{"glyphs":{"0":{"ha":690,"x_min":61,"x_max":629,"o":"m 346 -17 q 136 103 211 -17 q 61 446 61 222 q 136 786 61 669 q 346 903 211 903 q 554 786 479 903 q 629 446 629 669 q 554 103 629 222 q 346 -17 479 -17 m 346 75 q 416 97 385 75 q 470 163 447 118 q 506 278 493 208 q 518 446 518 349 q 506 613 518 543 q 470 726 493 682 q 416 790 447 769 q 346 811 385 811 q 275 790 307 811 q 220 726 243 769 q 185 613 197 682 q 172 446 172 543 q 220 163 172 251 q 346 75 268 75 z "},"1":{"ha":690,"x_min":110,"x_max":610,"o":"m 110 94 l 313 94 l 313 747 l 151 747 l 151 821 q 258 848 213 832 q 339 886 303 864 l 426 886 l 426 94 l 610 94 l 610 0 l 110 0 l 110 94 z "},"2":{"ha":690,"x_min":50,"x_max":628,"o":"m 56 68 q 233 249 156 168 q 364 398 311 329 q 444 524 417 467 q 472 636 472 582 q 431 761 472 713 q 304 810 389 810 q 201 778 249 810 q 115 703 154 747 l 50 768 q 168 866 106 829 q 318 903 231 903 q 513 831 442 903 q 583 642 583 760 q 556 516 583 579 q 481 385 529 453 q 367 245 433 318 q 222 90 301 172 q 297 96 258 93 q 371 99 336 99 l 628 99 l 628 0 l 56 0 l 56 68 z "},"3":{"ha":690,"x_min":36,"x_max":619,"o":"m 94 183 q 188 110 135 142 q 321 78 242 78 q 453 122 401 78 q 504 240 504 165 q 490 312 504 279 q 442 368 475 344 q 354 404 408 392 q 221 417 300 417 l 221 504 q 340 517 292 504 q 417 551 388 529 q 460 604 447 574 q 472 669 472 635 q 431 772 472 735 q 319 810 390 810 q 217 785 264 810 q 131 719 171 760 l 69 792 q 183 872 121 840 q 324 903 244 903 q 431 888 382 903 q 515 844 479 872 q 569 774 550 815 q 589 678 589 732 q 544 546 589 597 q 428 467 500 494 l 428 461 q 503 433 468 451 q 564 385 538 414 q 605 319 590 357 q 619 236 619 282 q 597 131 619 178 q 534 51 574 83 q 442 1 494 18 q 328 -17 389 -17 q 231 -6 275 -17 q 151 22 188 4 q 87 61 115 39 q 36 108 58 83 l 94 183 z "},"4":{"ha":690,"x_min":24,"x_max":651,"o":"m 422 336 l 422 593 q 424 678 422 629 q 429 764 426 728 l 424 764 q 389 701 407 732 q 351 639 371 671 l 144 336 l 422 336 m 651 244 l 531 244 l 531 0 l 422 0 l 422 244 l 24 244 l 24 319 l 403 886 l 531 886 l 531 336 l 651 336 l 651 244 z "},"5":{"ha":690,"x_min":35,"x_max":624,"o":"m 90 179 q 183 108 129 139 q 314 78 236 78 q 390 92 354 78 q 451 133 425 107 q 493 197 478 160 q 508 281 508 235 q 457 424 508 372 q 319 475 406 475 q 241 461 274 475 q 168 421 208 447 l 107 460 l 136 886 l 579 886 l 579 788 l 236 788 l 213 525 q 276 551 244 542 q 349 561 308 561 q 456 544 406 561 q 543 494 506 528 q 602 408 581 460 q 624 283 624 356 q 599 156 624 211 q 532 62 574 100 q 437 3 490 24 q 325 -17 383 -17 q 228 -6 272 -17 q 149 21 185 4 q 85 59 114 38 q 35 104 57 81 l 90 179 z "},"6":{"ha":690,"x_min":67,"x_max":635,"o":"m 372 74 q 433 88 406 74 q 482 127 461 101 q 515 188 503 153 q 526 268 526 224 q 486 406 526 356 q 363 456 446 456 q 272 428 321 456 q 178 339 222 401 q 238 141 189 208 q 372 74 288 74 m 554 738 q 488 788 526 769 q 408 807 450 807 q 321 788 363 807 q 247 724 279 768 q 196 608 215 679 q 175 431 176 536 q 272 512 217 482 q 382 542 328 542 q 566 474 497 542 q 635 268 635 406 q 614 152 635 204 q 557 63 593 100 q 474 4 521 25 q 372 -17 426 -17 q 251 10 307 -17 q 155 90 196 36 q 90 223 114 143 q 67 410 67 303 q 94 637 67 543 q 169 790 122 731 q 277 876 217 849 q 404 903 338 903 q 528 876 476 903 q 618 808 581 849 l 554 738 z "},"7":{"ha":690,"x_min":61,"x_max":632,"o":"m 246 0 q 268 229 251 125 q 315 427 285 333 q 391 608 344 521 q 503 788 438 696 l 61 788 l 61 886 l 632 886 l 632 815 q 503 624 553 715 q 425 437 454 532 q 383 235 396 342 q 364 0 369 129 l 246 0 l 246 0 z "},"8":{"ha":690,"x_min":57,"x_max":633,"o":"m 160 238 q 174 169 160 200 q 215 116 189 139 q 275 81 240 93 q 350 68 310 68 q 476 111 428 68 q 524 224 524 154 q 504 297 524 267 q 451 351 485 328 q 374 392 418 374 q 283 431 331 411 q 195 347 231 394 q 160 238 160 299 m 410 483 q 478 568 454 524 q 503 661 503 613 q 463 773 503 728 q 349 818 422 818 q 246 779 286 818 q 206 675 206 740 q 222 606 206 635 q 267 556 239 578 q 333 516 296 533 q 410 483 369 499 m 57 226 q 72 306 57 269 q 109 373 86 343 q 162 426 132 403 q 224 465 192 449 l 224 471 q 138 555 175 506 q 100 675 100 604 q 119 768 100 726 q 172 840 139 810 q 251 886 206 869 q 351 903 297 903 q 456 885 410 903 q 534 837 501 868 q 584 762 567 806 q 601 667 601 718 q 590 600 601 632 q 560 540 578 568 q 522 490 543 513 q 479 453 500 468 l 479 447 q 536 409 508 431 q 585 360 564 388 q 620 299 607 333 q 633 219 633 264 q 613 126 633 169 q 554 51 592 83 q 464 1 517 19 q 347 -17 411 -17 q 231 1 285 -17 q 140 52 178 19 q 79 129 101 85 q 57 226 57 174 z "},"9":{"ha":690,"x_min":56,"x_max":622,"o":"m 326 431 q 419 458 369 431 q 513 549 468 485 q 451 746 501 679 q 317 813 401 813 q 256 799 285 813 q 207 759 228 785 q 174 697 186 733 q 163 618 163 661 q 203 481 163 531 q 326 431 243 431 m 135 149 q 201 97 163 117 q 281 78 239 78 q 369 97 328 78 q 443 162 411 117 q 494 279 475 207 q 515 458 514 351 q 418 375 474 406 q 307 344 363 344 q 124 413 192 344 q 56 618 56 481 q 76 734 56 682 q 133 824 97 786 q 216 882 168 861 q 317 903 264 903 q 438 876 382 903 q 535 797 494 850 q 599 663 576 743 q 622 476 622 583 q 594 249 622 343 q 519 97 567 156 q 412 10 472 38 q 285 -17 351 -17 q 160 10 214 -17 q 71 76 107 36 l 135 149 z "},"\u0000":{"ha":0,"x_min":0,"x_max":0,"o":""},"\r":{"ha":281,"x_min":0,"x_max":0,"o":""}," ":{"ha":281,"x_min":0,"x_max":0,"o":""},"A":{"ha":756,"x_min":4,"x_max":751,"o":"m 513 371 l 469 510 q 422 662 444 586 q 378 817 400 738 l 372 817 q 329 662 351 738 q 282 510 307 586 l 239 371 l 513 371 m 542 278 l 210 278 l 122 0 l 4 0 l 313 911 l 443 911 l 751 0 l 628 0 l 542 278 z "},"B":{"ha":817,"x_min":125,"x_max":761,"o":"m 125 911 l 396 911 q 523 899 465 911 q 622 860 581 886 q 685 791 663 833 q 708 689 708 749 q 669 566 708 621 q 550 490 631 511 l 550 485 q 706 415 650 469 q 761 267 761 361 q 736 150 761 200 q 665 67 711 100 q 556 17 619 33 q 415 0 492 0 l 125 0 l 125 911 m 375 522 q 544 563 493 522 q 594 679 594 603 q 541 787 594 754 q 381 819 488 819 l 240 819 l 240 522 l 375 522 m 399 92 q 582 135 517 92 q 647 272 647 179 q 583 397 647 357 q 399 436 519 436 l 240 436 l 240 92 l 399 92 z "},"C":{"ha":793,"x_min":72,"x_max":749,"o":"m 72 456 q 103 653 72 565 q 188 801 133 740 q 316 895 242 863 q 478 928 390 928 q 624 894 561 928 q 726 815 686 860 l 661 742 q 581 803 625 781 q 479 826 538 826 q 361 801 414 826 q 271 727 308 775 q 213 611 233 679 q 192 458 192 543 q 212 303 192 372 q 268 186 232 235 q 356 111 304 138 q 474 85 408 85 q 590 111 540 85 q 683 186 639 138 l 749 115 q 626 18 694 53 q 471 -17 558 -17 q 312 15 385 -17 q 185 108 239 47 q 102 256 132 168 q 72 456 72 344 z "},"D":{"ha":854,"x_min":125,"x_max":783,"o":"m 125 911 l 353 911 q 674 794 564 911 q 783 460 783 678 q 756 266 783 351 q 674 122 728 181 q 540 31 619 63 q 358 0 461 0 l 125 0 l 125 911 m 344 94 q 584 190 504 94 q 664 460 664 286 q 584 725 664 633 q 344 817 504 817 l 240 817 l 240 94 l 344 94 z "},"E":{"ha":732,"x_min":125,"x_max":664,"o":"m 125 911 l 650 911 l 650 814 l 240 814 l 240 528 l 586 528 l 586 429 l 240 429 l 240 99 l 664 99 l 664 0 l 125 0 l 125 911 z "},"F":{"ha":686,"x_min":125,"x_max":650,"o":"m 125 911 l 650 911 l 650 814 l 240 814 l 240 506 l 588 506 l 588 408 l 240 408 l 240 0 l 125 0 l 125 911 z "},"G":{"ha":857,"x_min":72,"x_max":764,"o":"m 72 456 q 103 653 72 565 q 191 801 135 740 q 324 895 247 863 q 492 928 400 928 q 649 892 586 928 q 753 815 713 857 l 688 742 q 608 802 653 778 q 493 826 563 826 q 368 801 424 826 q 274 727 313 775 q 213 611 235 679 q 192 458 192 543 q 212 303 192 372 q 270 186 232 235 q 365 111 308 138 q 494 85 421 85 q 587 99 543 85 q 658 139 631 114 l 658 376 l 465 376 l 465 472 l 764 472 l 764 89 q 647 13 719 43 q 482 -17 574 -17 q 317 15 392 -17 q 188 108 242 47 q 103 256 133 168 q 72 456 72 344 z "},"H":{"ha":906,"x_min":125,"x_max":781,"o":"m 125 911 l 240 911 l 240 529 l 664 529 l 664 911 l 781 911 l 781 0 l 664 0 l 664 429 l 240 429 l 240 0 l 125 0 l 125 911 z "},"I":{"ha":365,"x_min":125,"x_max":240,"o":"m 125 911 l 240 911 l 240 0 l 125 0 l 125 911 z "},"J":{"ha":667,"x_min":43,"x_max":546,"o":"m 126 188 q 196 109 157 133 q 283 85 235 85 q 393 130 357 85 q 429 279 429 175 l 429 911 l 546 911 l 546 268 q 531 158 546 210 q 487 67 517 106 q 409 6 457 28 q 294 -17 361 -17 q 43 129 124 -17 l 126 188 z "},"K":{"ha":804,"x_min":125,"x_max":799,"o":"m 125 911 l 240 911 l 240 454 l 244 454 l 624 911 l 754 911 l 469 564 l 799 0 l 669 0 l 397 474 l 240 289 l 240 0 l 125 0 l 125 911 z "},"L":{"ha":675,"x_min":125,"x_max":639,"o":"m 125 911 l 240 911 l 240 99 l 639 99 l 639 0 l 125 0 l 125 911 z "},"M":{"ha":1010,"x_min":125,"x_max":885,"o":"m 125 911 l 261 911 l 438 422 l 504 236 l 510 236 l 574 422 l 749 911 l 885 911 l 885 0 l 775 0 l 775 501 q 780 636 775 563 q 790 771 785 710 l 785 771 l 711 568 l 536 92 l 471 92 l 294 568 l 222 771 l 217 771 q 226 636 221 710 q 232 501 232 563 l 232 0 l 125 0 l 125 911 z "},"N":{"ha":899,"x_min":125,"x_max":774,"o":"m 125 911 l 244 911 l 574 339 l 672 150 l 678 150 q 669 294 674 219 q 664 440 664 368 l 664 911 l 774 911 l 774 0 l 654 0 l 324 574 l 225 761 l 219 761 q 230 620 225 692 q 235 476 235 549 l 235 0 l 125 0 l 125 911 z "},"O":{"ha":922,"x_min":72,"x_max":851,"o":"m 461 -17 q 303 17 375 -17 q 181 112 232 50 q 101 262 129 174 q 72 460 72 350 q 101 656 72 569 q 181 803 129 743 q 303 896 232 864 q 461 928 375 928 q 619 895 547 928 q 742 802 690 863 q 823 655 794 742 q 851 460 851 568 q 823 262 851 350 q 742 112 794 174 q 619 17 690 50 q 461 -17 547 -17 m 461 85 q 572 111 522 85 q 656 187 621 138 q 711 305 692 236 q 731 460 731 374 q 711 613 731 544 q 656 728 692 681 q 572 801 621 775 q 461 826 522 826 q 351 801 400 826 q 266 728 301 775 q 211 613 231 681 q 192 460 192 544 q 211 305 192 374 q 266 187 231 236 q 351 111 301 138 q 461 85 400 85 z "},"P":{"ha":800,"x_min":125,"x_max":740,"o":"m 125 911 l 404 911 q 542 897 479 911 q 648 852 604 883 q 716 769 692 821 q 740 643 740 718 q 716 518 740 571 q 647 431 692 465 q 541 378 603 396 q 404 361 479 361 l 240 361 l 240 0 l 125 0 l 125 911 m 390 456 q 567 501 510 456 q 625 643 625 546 q 567 780 625 742 q 390 818 508 818 l 240 818 l 240 456 l 390 456 z "},"Q":{"ha":922,"x_min":72,"x_max":871,"o":"m 192 460 q 211 302 192 372 q 266 182 231 232 q 351 106 301 132 q 461 79 400 79 q 572 106 522 79 q 656 182 621 132 q 711 302 692 232 q 731 460 731 372 q 711 613 731 544 q 656 728 692 681 q 572 801 621 775 q 461 826 522 826 q 351 801 400 826 q 266 728 301 775 q 211 613 231 681 q 192 460 192 544 m 871 -207 q 815 -221 850 -214 q 740 -228 781 -228 q 529 -167 614 -228 q 404 -12 444 -107 q 268 35 329 -3 q 163 133 207 72 q 96 277 119 194 q 72 460 72 360 q 101 656 72 569 q 181 803 129 743 q 303 896 232 864 q 461 928 375 928 q 619 895 547 928 q 742 802 690 863 q 823 655 794 742 q 851 460 851 568 q 828 280 851 361 q 763 138 806 199 q 661 40 721 78 q 529 -11 601 1 q 619 -101 561 -72 q 753 -131 678 -131 q 806 -126 783 -131 q 849 -117 829 -122 l 871 -207 z "},"R":{"ha":807,"x_min":125,"x_max":756,"o":"m 240 479 l 393 479 q 557 523 500 479 q 614 656 614 567 q 557 782 614 746 q 393 818 500 818 l 240 818 l 240 479 m 625 0 l 406 385 l 240 385 l 240 0 l 125 0 l 125 911 l 410 911 q 538 898 479 911 q 640 854 597 885 q 706 775 682 824 q 729 656 729 726 q 674 485 729 549 q 525 397 618 421 l 756 0 l 625 0 z "},"S":{"ha":742,"x_min":58,"x_max":688,"o":"m 128 199 q 242 116 176 147 q 379 85 308 85 q 519 126 469 85 q 569 233 569 167 q 558 292 569 268 q 526 334 546 317 q 478 365 506 351 q 418 394 450 379 l 288 451 q 222 485 256 465 q 163 532 189 504 q 119 598 136 560 q 103 686 103 636 q 124 782 103 738 q 184 859 146 826 q 274 910 222 892 q 389 928 326 928 q 540 897 471 928 q 658 815 610 865 l 596 740 q 503 803 554 781 q 389 826 453 826 q 266 791 313 826 q 219 693 219 756 q 233 637 219 660 q 268 597 246 614 q 317 566 290 579 q 371 542 343 553 l 500 486 q 574 448 539 469 q 633 398 608 426 q 673 331 658 369 q 688 243 688 293 q 666 142 688 189 q 604 59 644 94 q 507 3 564 24 q 378 -17 450 -17 q 200 19 282 -17 q 58 118 118 56 l 128 199 z "},"T":{"ha":744,"x_min":39,"x_max":706,"o":"m 314 814 l 39 814 l 39 911 l 706 911 l 706 814 l 431 814 l 431 0 l 314 0 l 314 814 z "},"U":{"ha":896,"x_min":121,"x_max":775,"o":"m 121 911 l 236 911 l 236 374 q 253 236 236 292 q 298 147 269 181 q 365 99 326 114 q 449 85 404 85 q 533 99 494 85 q 601 147 572 114 q 647 236 631 181 q 664 374 664 292 l 664 911 l 775 911 l 775 376 q 750 192 775 267 q 681 70 725 117 q 578 3 638 24 q 449 -17 518 -17 q 319 3 379 -17 q 215 70 258 24 q 146 192 171 117 q 121 376 121 267 l 121 911 z "},"V":{"ha":715,"x_min":0,"x_max":715,"o":"m 0 911 l 124 911 l 269 419 q 313 268 294 338 q 358 118 332 199 l 364 118 q 408 268 389 199 q 451 419 428 338 l 597 911 l 715 911 l 426 0 l 292 0 l 0 911 z "},"W":{"ha":1092,"x_min":32,"x_max":1058,"o":"m 32 911 l 151 911 l 247 415 q 274 268 260 340 q 300 121 288 196 l 306 121 q 338 269 321 196 q 369 415 354 342 l 496 911 l 601 911 l 728 415 q 761 269 744 343 q 794 121 778 196 l 800 121 q 825 269 813 196 q 851 415 838 342 l 947 911 l 1058 911 l 869 0 l 731 0 l 593 549 q 570 652 581 601 q 549 756 560 703 l 543 756 q 520 652 532 703 q 497 549 508 601 l 363 0 l 225 0 l 32 911 z "},"X":{"ha":713,"x_min":21,"x_max":692,"o":"m 286 471 l 39 911 l 167 911 l 290 678 q 324 616 308 646 q 361 546 340 586 l 367 546 q 401 616 386 586 q 432 678 415 646 l 553 911 l 675 911 l 426 465 l 692 0 l 564 0 l 431 246 q 394 315 413 279 q 353 392 375 350 l 347 392 q 310 315 328 350 q 275 246 292 279 l 143 0 l 21 0 l 286 471 z "},"Y":{"ha":661,"x_min":-1,"x_max":663,"o":"m 272 353 l -1 911 l 122 911 l 240 654 q 283 556 263 604 q 328 456 304 507 l 333 456 q 381 556 357 507 q 425 654 404 604 l 542 911 l 663 911 l 389 353 l 389 0 l 272 0 l 272 353 z "},"Z":{"ha":749,"x_min":63,"x_max":690,"o":"m 63 69 l 542 814 l 106 814 l 106 911 l 686 911 l 686 843 l 206 99 l 690 99 l 690 0 l 63 0 l 63 69 z "},"a":{"ha":711,"x_min":81,"x_max":610,"o":"m 81 175 q 180 345 81 286 q 496 428 279 404 q 490 490 496 460 q 467 544 483 521 q 425 583 451 568 q 357 597 399 597 q 247 575 297 597 q 156 525 196 553 l 110 604 q 225 663 157 635 q 375 692 293 692 q 554 616 499 692 q 610 414 610 540 l 610 0 l 515 0 l 506 81 l 503 81 q 398 12 454 40 q 279 -17 342 -17 q 137 33 193 -17 q 81 175 81 83 m 193 183 q 227 100 193 125 q 311 75 261 75 q 403 98 360 75 q 496 165 447 121 l 496 353 q 353 326 411 342 q 259 290 294 311 q 208 242 224 269 q 193 183 193 215 z "},"b":{"ha":771,"x_min":114,"x_max":704,"o":"m 114 989 l 228 989 l 228 719 l 225 597 q 325 665 271 638 q 436 692 379 692 q 551 667 501 692 q 635 598 601 643 q 687 490 669 553 q 704 349 704 426 q 681 194 704 263 q 617 79 657 126 q 524 8 576 32 q 413 -17 471 -17 q 315 5 365 -17 q 219 67 264 26 l 215 67 l 206 0 l 114 0 l 114 989 m 228 150 q 316 95 272 111 q 393 79 360 79 q 470 98 435 79 q 531 151 506 117 q 572 235 557 185 q 586 347 586 285 q 576 449 586 403 q 545 527 567 494 q 490 578 524 560 q 408 596 456 596 q 228 504 326 596 l 228 150 z "},"c":{"ha":633,"x_min":64,"x_max":600,"o":"m 64 336 q 90 487 64 421 q 161 599 117 553 q 265 668 206 644 q 389 692 324 692 q 503 667 456 692 q 586 611 551 643 l 529 538 q 466 581 499 564 q 393 597 433 597 q 308 578 347 597 q 242 525 269 560 q 198 442 214 490 q 182 336 182 394 q 197 231 182 278 q 240 149 213 183 q 306 97 267 115 q 390 78 344 78 q 478 98 439 78 q 549 146 518 118 l 600 71 q 498 7 554 31 q 381 -17 442 -17 q 256 7 314 -17 q 155 76 197 31 q 88 187 113 121 q 64 336 64 253 z "},"d":{"ha":771,"x_min":65,"x_max":657,"o":"m 65 336 q 90 484 65 418 q 154 596 114 550 q 247 667 194 642 q 358 692 300 692 q 460 671 417 692 q 547 614 503 650 l 542 729 l 542 989 l 657 989 l 657 0 l 563 0 l 553 79 l 549 79 q 456 12 508 40 q 344 -17 404 -17 q 141 75 217 -17 q 65 336 65 167 m 183 338 q 232 147 183 215 q 369 79 281 79 q 458 102 417 79 q 542 172 500 125 l 542 525 q 459 580 499 564 q 378 596 419 596 q 302 577 338 596 q 240 524 267 558 q 199 443 214 490 q 183 338 183 396 z "},"e":{"ha":689,"x_min":64,"x_max":636,"o":"m 64 336 q 90 485 64 419 q 158 597 115 551 q 254 667 200 643 q 367 692 308 692 q 481 669 431 692 q 566 606 532 647 q 618 506 600 564 q 636 375 636 447 q 632 313 636 338 l 176 313 q 244 139 183 203 q 401 75 304 75 q 491 90 450 75 q 569 128 532 104 l 610 53 q 511 4 565 25 q 388 -17 457 -17 q 260 8 319 -17 q 158 77 201 32 q 89 188 114 122 q 64 336 64 253 m 536 388 q 492 547 536 492 q 369 601 449 601 q 301 587 333 601 q 242 545 268 572 q 198 478 215 518 q 175 388 181 439 l 536 388 z "},"f":{"ha":406,"x_min":42,"x_max":443,"o":"m 418 896 q 342 913 381 913 q 247 782 247 913 l 247 675 l 390 675 l 390 582 l 247 582 l 247 0 l 133 0 l 133 582 l 42 582 l 42 668 l 133 675 l 133 782 q 181 946 133 886 q 331 1006 229 1006 q 391 999 363 1006 q 443 983 419 993 l 418 896 z "},"g":{"ha":700,"x_min":63,"x_max":683,"o":"m 163 -114 q 215 -200 163 -168 q 358 -232 267 -232 q 447 -220 407 -232 q 514 -190 486 -208 q 557 -146 542 -171 q 572 -94 572 -121 q 538 -29 572 -47 q 436 -11 503 -11 l 319 -11 q 277 -9 300 -11 q 232 0 254 -7 q 179 -56 196 -26 q 163 -114 163 -85 m 63 -129 q 89 -47 63 -86 q 161 24 115 -8 l 161 29 q 119 72 136 44 q 101 139 101 99 q 125 214 101 182 q 175 264 149 246 l 175 269 q 115 344 142 297 q 88 451 88 390 q 108 551 88 507 q 163 627 128 596 q 244 675 197 658 q 342 692 290 692 q 394 687 369 692 q 438 675 418 682 l 672 675 l 672 588 l 533 588 q 573 528 557 564 q 589 449 589 492 q 569 351 589 394 q 517 277 550 307 q 438 231 483 247 q 342 214 393 214 q 290 220 317 214 q 240 238 264 226 q 210 203 222 222 q 197 157 197 185 q 222 104 197 125 q 317 83 247 83 l 447 83 q 624 45 565 83 q 683 -78 683 7 q 660 -167 683 -125 q 592 -242 636 -210 q 484 -292 547 -274 q 342 -311 421 -311 q 228 -299 279 -311 q 140 -264 176 -287 q 83 -207 103 -240 q 63 -129 63 -174 m 342 290 q 397 301 371 290 q 442 333 422 313 q 474 384 463 354 q 485 451 485 414 q 443 567 485 526 q 342 608 401 608 q 240 567 282 608 q 199 451 199 526 q 210 384 199 414 q 241 333 221 354 q 287 301 261 313 q 342 290 313 290 z "},"h":{"ha":756,"x_min":114,"x_max":654,"o":"m 114 989 l 228 989 l 228 719 l 224 581 q 325 659 272 626 q 449 692 378 692 q 605 625 556 692 q 654 428 654 558 l 654 0 l 540 0 l 540 413 q 510 551 540 508 q 413 593 479 593 q 319 567 360 593 q 228 489 279 540 l 228 0 l 114 0 l 114 989 z "},"i":{"ha":342,"x_min":93,"x_max":251,"o":"m 172 814 q 116 835 139 814 q 93 888 93 856 q 116 941 93 921 q 172 961 139 961 q 228 941 206 961 q 251 888 251 921 q 228 835 251 856 q 172 814 206 814 m 114 675 l 228 675 l 228 0 l 114 0 l 114 675 z "},"j":{"ha":343,"x_min":-56,"x_max":251,"o":"m 115 675 l 229 675 l 229 -76 q 188 -240 229 -179 q 44 -301 146 -301 q -12 -296 13 -301 q -56 -283 -37 -290 l -32 -197 q -3 -205 -19 -201 q 32 -208 14 -208 q 99 -174 82 -208 q 115 -76 115 -139 l 115 675 m 174 814 q 117 835 140 814 q 94 888 94 856 q 117 941 94 921 q 174 961 140 961 q 228 941 206 961 q 251 888 251 921 q 228 835 251 856 q 174 814 206 814 z "},"k":{"ha":688,"x_min":114,"x_max":675,"o":"m 114 989 l 226 989 l 226 319 l 231 319 l 518 675 l 644 675 l 418 404 l 675 0 l 550 0 l 353 325 l 226 178 l 226 0 l 114 0 l 114 989 z "},"l":{"ha":354,"x_min":114,"x_max":300,"o":"m 114 989 l 228 989 l 228 128 q 238 89 228 100 q 260 78 247 78 q 270 78 265 78 q 285 81 275 78 l 300 -6 q 274 -14 289 -11 q 235 -17 258 -17 q 142 22 169 -17 q 114 136 114 61 l 114 989 z "},"m":{"ha":1151,"x_min":114,"x_max":1046,"o":"m 114 675 l 208 675 l 218 578 l 222 578 q 319 659 267 626 q 432 692 371 692 q 553 658 510 692 q 618 563 597 624 q 724 656 671 621 q 840 692 778 692 q 995 625 944 692 q 1046 428 1046 558 l 1046 0 l 932 0 l 932 413 q 901 551 932 508 q 807 593 871 593 q 638 489 731 593 l 638 0 l 524 0 l 524 413 q 493 551 524 508 q 397 593 463 593 q 228 489 321 593 l 228 0 l 114 0 l 114 675 z "},"n":{"ha":760,"x_min":114,"x_max":654,"o":"m 114 675 l 208 675 l 218 578 l 222 578 q 324 659 271 626 q 449 692 378 692 q 605 625 556 692 q 654 428 654 558 l 654 0 l 540 0 l 540 413 q 510 551 540 508 q 413 593 479 593 q 319 567 360 593 q 228 489 279 540 l 228 0 l 114 0 l 114 675 z "},"o":{"ha":753,"x_min":64,"x_max":689,"o":"m 64 336 q 90 487 64 421 q 158 599 115 553 q 258 668 201 644 q 376 692 314 692 q 495 668 439 692 q 594 599 551 644 q 663 487 638 553 q 689 336 689 421 q 663 187 689 253 q 594 76 638 121 q 495 7 551 31 q 376 -17 439 -17 q 258 7 314 -17 q 158 76 201 31 q 90 187 115 121 q 64 336 64 253 m 182 336 q 196 231 182 278 q 235 149 210 183 q 297 97 261 115 q 376 78 333 78 q 456 97 419 78 q 517 149 492 115 q 557 231 543 183 q 571 336 571 278 q 557 442 571 394 q 517 525 543 490 q 456 578 492 560 q 376 597 419 597 q 297 578 333 597 q 235 525 261 560 q 196 442 210 490 q 182 336 182 394 z "},"p":{"ha":771,"x_min":114,"x_max":704,"o":"m 228 -57 l 228 -285 l 114 -285 l 114 675 l 208 675 l 218 597 l 222 597 q 323 664 268 636 q 438 692 378 692 q 553 667 503 692 q 636 598 603 643 q 687 490 669 553 q 704 347 704 426 q 681 194 704 261 q 617 79 657 126 q 524 8 576 32 q 413 -17 471 -17 q 319 4 365 -17 q 225 61 272 25 l 228 -57 m 228 150 q 317 95 274 111 q 393 79 360 79 q 470 98 435 79 q 531 151 506 117 q 572 235 557 185 q 586 347 586 285 q 576 449 586 403 q 545 527 567 494 q 490 578 524 560 q 408 596 456 596 q 322 572 365 596 q 228 504 278 549 l 228 150 z "},"q":{"ha":764,"x_min":65,"x_max":657,"o":"m 65 336 q 90 484 65 418 q 154 596 114 550 q 247 667 194 642 q 358 692 300 692 q 461 672 417 692 q 551 611 506 651 l 554 611 l 565 675 l 657 675 l 657 -285 l 542 -285 l 542 -44 l 547 75 q 455 10 507 38 q 344 -17 403 -17 q 141 75 217 -17 q 65 336 65 167 m 183 338 q 232 147 183 215 q 369 79 281 79 q 458 102 417 79 q 542 172 500 125 l 542 525 q 459 580 499 564 q 378 596 419 596 q 302 577 338 596 q 240 524 267 558 q 199 443 214 490 q 183 338 183 396 z "},"r":{"ha":482,"x_min":114,"x_max":486,"o":"m 114 675 l 208 675 l 218 553 l 222 553 q 306 654 257 617 q 414 692 356 692 q 486 678 454 692 l 464 578 q 433 586 447 583 q 399 589 419 589 q 309 554 356 589 q 228 433 263 519 l 228 0 l 114 0 l 114 675 z "},"s":{"ha":582,"x_min":39,"x_max":538,"o":"m 96 153 q 187 94 140 117 q 294 72 233 72 q 394 103 361 72 q 428 178 428 133 q 414 224 428 204 q 378 258 400 243 q 329 283 357 272 q 274 306 301 294 q 201 334 238 318 q 137 373 165 350 q 90 426 108 396 q 72 500 72 457 q 88 576 72 540 q 134 637 104 611 q 207 677 164 663 q 304 692 250 692 q 422 669 368 692 q 514 615 475 647 l 460 543 q 388 586 425 569 q 306 603 350 603 q 212 574 242 603 q 182 506 182 544 q 194 465 182 482 q 228 434 207 447 q 276 410 249 421 q 332 389 303 400 q 405 360 368 375 q 471 322 442 344 q 519 265 500 299 q 538 185 538 232 q 522 107 538 143 q 474 43 506 71 q 397 -1 443 15 q 290 -17 350 -17 q 153 10 218 -17 q 39 76 88 36 l 96 153 z "},"t":{"ha":469,"x_min":33,"x_max":451,"o":"m 133 582 l 33 582 l 33 668 l 139 675 l 153 864 l 249 864 l 249 675 l 431 675 l 431 582 l 249 582 l 249 207 q 272 110 249 144 q 353 76 294 76 q 392 82 371 76 q 429 94 413 88 l 451 8 q 391 -9 424 -1 q 326 -17 358 -17 q 235 0 272 -17 q 176 46 199 17 q 143 117 153 75 q 133 208 133 158 l 133 582 z "},"u":{"ha":756,"x_min":104,"x_max":642,"o":"m 104 675 l 219 675 l 219 263 q 249 124 219 167 q 346 82 279 82 q 439 109 399 82 q 528 196 479 136 l 528 675 l 642 675 l 642 0 l 547 0 l 538 106 l 533 106 q 434 17 486 50 q 311 -17 382 -17 q 153 50 203 -17 q 104 247 104 117 l 104 675 z "},"v":{"ha":649,"x_min":17,"x_max":632,"o":"m 17 675 l 135 675 l 263 292 q 294 192 278 242 q 325 93 310 142 l 331 93 q 361 192 346 142 q 392 292 376 242 l 519 675 l 632 675 l 393 0 l 260 0 l 17 675 z "},"w":{"ha":997,"x_min":33,"x_max":964,"o":"m 33 675 l 150 675 l 250 285 q 271 190 261 236 q 290 97 281 144 l 296 97 q 318 191 307 144 q 342 285 329 238 l 446 675 l 557 675 l 663 285 q 687 190 675 236 q 710 97 699 144 l 715 97 q 736 190 726 144 q 757 285 746 236 l 856 675 l 964 675 l 783 0 l 644 0 l 547 363 q 524 458 535 411 q 501 557 514 506 l 496 557 q 474 458 485 506 q 449 361 463 410 l 354 0 l 221 0 l 33 675 z "},"x":{"ha":619,"x_min":19,"x_max":600,"o":"m 240 353 l 36 675 l 160 675 l 250 526 q 282 470 265 499 q 317 414 299 442 l 322 414 q 353 470 338 442 q 383 526 368 499 l 465 675 l 585 675 l 381 340 l 600 0 l 476 0 l 378 157 q 342 218 360 188 q 304 278 324 249 l 299 278 q 264 219 281 249 q 231 157 247 189 l 139 0 l 19 0 l 240 353 z "},"y":{"ha":649,"x_min":17,"x_max":632,"o":"m 68 -186 q 93 -192 79 -189 q 119 -196 107 -196 q 215 -155 178 -196 q 272 -51 251 -114 l 288 -1 l 17 675 l 135 675 l 272 301 q 305 208 288 257 q 338 111 322 158 l 343 111 q 372 207 358 157 q 400 301 386 257 l 521 675 l 632 675 l 378 -56 q 338 -149 360 -106 q 285 -223 315 -192 q 215 -272 254 -254 q 125 -290 176 -290 q 82 -287 101 -290 q 46 -276 63 -283 l 68 -186 l 68 -186 z "},"z":{"ha":590,"x_min":43,"x_max":554,"o":"m 43 61 l 399 582 l 82 582 l 82 675 l 543 675 l 543 614 l 188 93 l 554 93 l 554 0 l 43 0 l 43 61 z "},"À":{"ha":756,"x_min":4,"x_max":751,"o":"m 513 371 l 469 510 q 422 662 444 586 q 378 817 400 738 l 372 817 q 329 662 351 738 q 282 510 307 586 l 239 371 l 513 371 m 542 278 l 210 278 l 122 0 l 4 0 l 313 911 l 443 911 l 751 0 l 628 0 l 542 278 m 194 1136 l 325 1136 l 447 981 l 351 981 l 194 1136 z "},"Á":{"ha":756,"x_min":4,"x_max":751,"o":"m 513 371 l 469 510 q 422 662 444 586 q 378 817 400 738 l 372 817 q 329 662 351 738 q 282 510 307 586 l 239 371 l 513 371 m 542 278 l 210 278 l 122 0 l 4 0 l 313 911 l 443 911 l 751 0 l 628 0 l 542 278 m 401 981 l 306 981 l 428 1136 l 558 1136 l 401 981 z "},"Â":{"ha":756,"x_min":4,"x_max":751,"o":"m 513 371 l 469 510 q 422 662 444 586 q 378 817 400 738 l 372 817 q 329 662 351 738 q 282 510 307 586 l 239 371 l 513 371 m 542 278 l 210 278 l 122 0 l 4 0 l 313 911 l 443 911 l 751 0 l 628 0 l 542 278 m 188 981 l 321 1136 l 432 1136 l 565 981 l 472 981 l 379 1075 l 374 1075 l 281 981 l 188 981 z "},"Ã":{"ha":756,"x_min":4,"x_max":751,"o":"m 513 371 l 469 510 q 422 662 444 586 q 378 817 400 738 l 372 817 q 329 662 351 738 q 282 510 307 586 l 239 371 l 513 371 m 542 278 l 210 278 l 122 0 l 4 0 l 313 911 l 443 911 l 751 0 l 628 0 l 542 278 m 460 988 q 410 999 432 988 q 369 1024 388 1010 q 332 1049 350 1038 q 294 1060 314 1060 q 260 1042 275 1060 q 239 988 244 1024 l 175 988 q 213 1095 182 1053 q 293 1138 243 1138 q 343 1126 321 1138 q 384 1101 365 1115 q 421 1076 403 1088 q 458 1065 439 1065 q 493 1084 478 1065 q 514 1138 508 1103 l 578 1138 q 540 1031 571 1074 q 460 988 510 988 z "},"Ä":{"ha":756,"x_min":4,"x_max":751,"o":"m 513 371 l 469 510 q 422 662 444 586 q 378 817 400 738 l 372 817 q 329 662 351 738 q 282 510 307 586 l 239 371 l 513 371 m 542 278 l 210 278 l 122 0 l 4 0 l 313 911 l 443 911 l 751 0 l 628 0 l 542 278 m 257 993 q 208 1013 226 993 q 189 1061 189 1032 q 208 1110 189 1092 q 257 1129 226 1129 q 306 1110 286 1129 q 325 1061 325 1092 q 306 1013 325 1032 q 257 993 286 993 m 496 993 q 447 1013 467 993 q 428 1061 428 1032 q 447 1110 428 1092 q 496 1129 467 1129 q 545 1110 526 1129 q 564 1061 564 1092 q 545 1013 564 1032 q 496 993 526 993 z "},"Ā":{"ha":756,"x_min":4,"x_max":751,"o":"m 513 371 l 469 510 q 422 662 444 586 q 378 817 400 738 l 372 817 q 329 662 351 738 q 282 510 307 586 l 239 371 l 513 371 m 542 278 l 210 278 l 122 0 l 4 0 l 313 911 l 443 911 l 751 0 l 628 0 l 542 278 m 204 1092 l 549 1092 l 549 1013 l 204 1013 l 204 1092 z "},"Ă":{"ha":756,"x_min":4,"x_max":751,"o":"m 513 371 l 469 510 q 422 662 444 586 q 378 817 400 738 l 372 817 q 329 662 351 738 q 282 510 307 586 l 239 371 l 513 371 m 542 278 l 210 278 l 122 0 l 4 0 l 313 911 l 443 911 l 751 0 l 628 0 l 542 278 m 376 983 q 304 997 335 983 q 253 1031 274 1010 q 221 1079 232 1051 q 206 1136 210 1107 l 275 1136 q 306 1076 282 1103 q 376 1049 329 1049 q 447 1076 424 1049 q 478 1136 471 1103 l 547 1136 q 532 1079 543 1107 q 500 1031 521 1051 q 449 997 479 1010 q 376 983 418 983 z "},"Å":{"ha":756,"x_min":4,"x_max":751,"o":"m 513 371 l 469 510 q 422 662 444 586 q 378 817 400 738 l 372 817 q 329 662 351 738 q 282 510 307 586 l 239 371 l 513 371 m 542 278 l 210 278 l 122 0 l 4 0 l 313 911 l 443 911 l 751 0 l 628 0 l 542 278 m 376 971 q 283 1003 319 971 q 247 1093 247 1036 q 283 1182 247 1149 q 376 1215 319 1215 q 469 1182 432 1215 q 506 1093 506 1149 q 469 1003 506 1036 q 376 971 432 971 m 376 1021 q 422 1040 403 1021 q 442 1093 442 1058 q 422 1144 442 1125 q 376 1164 403 1164 q 329 1144 349 1164 q 310 1093 310 1125 q 329 1040 310 1058 q 376 1021 349 1021 z "},"Ǎ":{"ha":756,"x_min":4,"x_max":751,"o":"m 513 371 l 469 510 q 422 662 444 586 q 378 817 400 738 l 372 817 q 329 662 351 738 q 282 510 307 586 l 239 371 l 513 371 m 542 278 l 210 278 l 122 0 l 4 0 l 313 911 l 443 911 l 751 0 l 628 0 l 542 278 m 565 1136 l 432 981 l 321 981 l 188 1136 l 281 1136 l 374 1042 l 379 1042 l 472 1136 l 565 1136 z "},"Ạ":{"ha":756,"x_min":4,"x_max":751,"o":"m 513 371 l 469 510 q 422 662 444 586 q 378 817 400 738 l 372 817 q 329 662 351 738 q 282 510 307 586 l 239 371 l 513 371 m 542 278 l 210 278 l 122 0 l 4 0 l 313 911 l 443 911 l 751 0 l 628 0 l 542 278 m 376 -286 q 323 -265 344 -286 q 301 -211 301 -244 q 323 -158 301 -179 q 376 -137 344 -137 q 430 -158 408 -137 q 451 -211 451 -179 q 430 -265 451 -244 q 376 -286 408 -286 z "},"Ả":{"ha":756,"x_min":4,"x_max":751,"o":"m 513 371 l 469 510 q 422 662 444 586 q 378 817 400 738 l 372 817 q 329 662 351 738 q 282 510 307 586 l 239 371 l 513 371 m 542 278 l 210 278 l 122 0 l 4 0 l 313 911 l 443 911 l 751 0 l 628 0 l 542 278 m 325 1022 q 381 1046 358 1032 q 403 1086 403 1060 q 288 1144 403 1140 l 300 1211 q 442 1180 392 1208 q 492 1099 492 1151 q 479 1047 492 1068 q 445 1009 467 1025 q 396 984 424 993 q 338 969 368 975 l 325 1022 z "},"Ấ":{"ha":756,"x_min":4,"x_max":751,"o":"m 513 371 l 469 510 q 422 662 444 586 q 378 817 400 738 l 372 817 q 329 662 351 738 q 282 510 307 586 l 239 371 l 513 371 m 542 278 l 210 278 l 122 0 l 4 0 l 313 911 l 443 911 l 751 0 l 628 0 l 542 278 m 601 1224 l 701 1224 l 575 1069 l 503 1069 l 601 1224 m 326 1128 l 426 1128 l 554 981 l 467 981 l 379 1067 l 374 1067 l 286 981 l 199 981 l 326 1128 z "},"Ầ":{"ha":756,"x_min":4,"x_max":751,"o":"m 513 371 l 469 510 q 422 662 444 586 q 378 817 400 738 l 372 817 q 329 662 351 738 q 282 510 307 586 l 239 371 l 513 371 m 542 278 l 210 278 l 122 0 l 4 0 l 313 911 l 443 911 l 751 0 l 628 0 l 542 278 m 632 1069 l 560 1069 l 433 1224 l 533 1224 l 632 1069 m 326 1128 l 426 1128 l 554 981 l 467 981 l 379 1067 l 374 1067 l 286 981 l 199 981 l 326 1128 z "},"Ẩ":{"ha":756,"x_min":4,"x_max":751,"o":"m 513 371 l 469 510 q 422 662 444 586 q 378 817 400 738 l 372 817 q 329 662 351 738 q 282 510 307 586 l 239 371 l 513 371 m 542 278 l 210 278 l 122 0 l 4 0 l 313 911 l 443 911 l 751 0 l 628 0 l 542 278 m 521 1096 q 565 1113 547 1103 q 583 1146 583 1124 q 560 1185 583 1174 q 485 1200 538 1197 l 497 1258 q 622 1231 579 1256 q 664 1157 664 1206 q 625 1080 664 1104 q 536 1047 586 1056 l 521 1096 m 326 1128 l 426 1128 l 554 981 l 467 981 l 379 1067 l 374 1067 l 286 981 l 199 981 l 326 1128 z "},"Ẫ":{"ha":756,"x_min":4,"x_max":751,"o":"m 513 371 l 469 510 q 422 662 444 586 q 378 817 400 738 l 372 817 q 329 662 351 738 q 282 510 307 586 l 239 371 l 513 371 m 542 278 l 210 278 l 122 0 l 4 0 l 313 911 l 443 911 l 751 0 l 628 0 l 542 278 m 326 1128 l 426 1128 l 554 981 l 467 981 l 379 1067 l 374 1067 l 286 981 l 199 981 l 326 1128 m 193 1175 q 226 1267 199 1231 q 303 1304 254 1304 q 347 1294 328 1304 q 383 1273 367 1285 q 414 1251 399 1261 q 446 1242 429 1242 q 481 1258 467 1242 q 501 1304 496 1275 l 560 1304 q 526 1213 554 1250 q 450 1175 499 1175 q 406 1185 425 1175 q 370 1206 386 1194 q 339 1228 354 1218 q 307 1238 324 1238 q 251 1175 263 1238 l 193 1175 z "},"Ậ":{"ha":756,"x_min":4,"x_max":751,"o":"m 513 371 l 469 510 q 422 662 444 586 q 378 817 400 738 l 372 817 q 329 662 351 738 q 282 510 307 586 l 239 371 l 513 371 m 542 278 l 210 278 l 122 0 l 4 0 l 313 911 l 443 911 l 751 0 l 628 0 l 542 278 m 188 981 l 321 1136 l 432 1136 l 565 981 l 472 981 l 379 1075 l 374 1075 l 281 981 l 188 981 m 376 -286 q 323 -265 344 -286 q 301 -211 301 -244 q 323 -158 301 -179 q 376 -137 344 -137 q 430 -158 408 -137 q 451 -211 451 -179 q 430 -265 451 -244 q 376 -286 408 -286 z "},"Ắ":{"ha":756,"x_min":4,"x_max":751,"o":"m 513 371 l 469 510 q 422 662 444 586 q 378 817 400 738 l 372 817 q 329 662 351 738 q 282 510 307 586 l 239 371 l 513 371 m 542 278 l 210 278 l 122 0 l 4 0 l 313 911 l 443 911 l 751 0 l 628 0 l 542 278 m 425 1260 l 525 1260 l 390 1114 l 322 1114 l 425 1260 m 376 983 q 306 996 336 983 q 256 1029 276 1008 q 223 1076 235 1050 q 207 1132 211 1103 l 269 1132 q 302 1069 278 1096 q 376 1043 326 1043 q 451 1069 426 1043 q 483 1132 475 1096 l 546 1132 q 530 1076 542 1103 q 497 1029 518 1050 q 447 996 476 1008 q 376 983 417 983 z "},"Ằ":{"ha":756,"x_min":4,"x_max":751,"o":"m 513 371 l 469 510 q 422 662 444 586 q 378 817 400 738 l 372 817 q 329 662 351 738 q 282 510 307 586 l 239 371 l 513 371 m 542 278 l 210 278 l 122 0 l 4 0 l 313 911 l 443 911 l 751 0 l 628 0 l 542 278 m 431 1114 l 363 1114 l 228 1260 l 328 1260 l 431 1114 m 376 983 q 306 996 336 983 q 256 1029 276 1008 q 223 1076 235 1050 q 207 1132 211 1103 l 269 1132 q 302 1069 278 1096 q 376 1043 326 1043 q 451 1069 426 1043 q 483 1132 475 1096 l 546 1132 q 530 1076 542 1103 q 497 1029 518 1050 q 447 996 476 1008 q 376 983 417 983 z "},"Ẳ":{"ha":756,"x_min":4,"x_max":751,"o":"m 513 371 l 469 510 q 422 662 444 586 q 378 817 400 738 l 372 817 q 329 662 351 738 q 282 510 307 586 l 239 371 l 513 371 m 542 278 l 210 278 l 122 0 l 4 0 l 313 911 l 443 911 l 751 0 l 628 0 l 542 278 m 331 1160 q 374 1177 356 1167 q 392 1210 392 1188 q 369 1249 392 1238 q 294 1264 346 1261 l 306 1322 q 431 1294 388 1319 q 474 1221 474 1269 q 463 1176 474 1194 q 434 1144 451 1157 q 393 1123 417 1131 q 344 1111 369 1115 l 331 1160 m 376 983 q 306 996 336 983 q 256 1029 276 1008 q 223 1076 235 1050 q 207 1132 211 1103 l 269 1132 q 302 1069 278 1096 q 376 1043 326 1043 q 451 1069 426 1043 q 483 1132 475 1096 l 546 1132 q 530 1076 542 1103 q 497 1029 518 1050 q 447 996 476 1008 q 376 983 417 983 z "},"Ẵ":{"ha":756,"x_min":4,"x_max":751,"o":"m 513 371 l 469 510 q 422 662 444 586 q 378 817 400 738 l 372 817 q 329 662 351 738 q 282 510 307 586 l 239 371 l 513 371 m 542 278 l 210 278 l 122 0 l 4 0 l 313 911 l 443 911 l 751 0 l 628 0 l 542 278 m 376 983 q 306 996 336 983 q 256 1029 276 1008 q 223 1076 235 1050 q 207 1132 211 1103 l 269 1132 q 302 1069 278 1096 q 376 1043 326 1043 q 451 1069 426 1043 q 483 1132 475 1096 l 546 1132 q 530 1076 542 1103 q 497 1029 518 1050 q 447 996 476 1008 q 376 983 417 983 m 193 1175 q 226 1267 199 1231 q 303 1304 254 1304 q 347 1294 328 1304 q 383 1273 367 1285 q 414 1251 399 1261 q 446 1242 429 1242 q 481 1258 467 1242 q 501 1304 496 1275 l 560 1304 q 526 1213 554 1250 q 450 1175 499 1175 q 406 1185 425 1175 q 370 1206 386 1194 q 339 1228 354 1218 q 307 1238 324 1238 q 251 1175 263 1238 l 193 1175 z "},"Ặ":{"ha":756,"x_min":4,"x_max":751,"o":"m 513 371 l 469 510 q 422 662 444 586 q 378 817 400 738 l 372 817 q 329 662 351 738 q 282 510 307 586 l 239 371 l 513 371 m 542 278 l 210 278 l 122 0 l 4 0 l 313 911 l 443 911 l 751 0 l 628 0 l 542 278 m 376 983 q 304 997 335 983 q 253 1031 274 1010 q 221 1079 232 1051 q 206 1136 210 1107 l 275 1136 q 306 1076 282 1103 q 376 1049 329 1049 q 447 1076 424 1049 q 478 1136 471 1103 l 547 1136 q 532 1079 543 1107 q 500 1031 521 1051 q 449 997 479 1010 q 376 983 418 983 m 376 -286 q 323 -265 344 -286 q 301 -211 301 -244 q 323 -158 301 -179 q 376 -137 344 -137 q 430 -158 408 -137 q 451 -211 451 -179 q 430 -265 451 -244 q 376 -286 408 -286 z "},"Ą":{"ha":756,"x_min":4,"x_max":794,"o":"m 513 371 l 469 510 q 422 662 444 586 q 378 817 400 738 l 372 817 q 329 662 351 738 q 282 510 307 586 l 239 371 l 513 371 m 794 -256 q 742 -283 774 -271 q 683 -294 711 -294 q 589 -264 628 -294 q 550 -174 550 -233 q 560 -119 550 -146 q 585 -71 569 -93 q 618 -31 600 -49 q 654 0 636 -12 l 628 0 l 542 278 l 210 278 l 122 0 l 4 0 l 313 911 l 443 911 l 751 0 q 672 -62 703 -19 q 640 -149 640 -106 q 660 -197 640 -181 q 704 -212 679 -212 q 763 -193 736 -212 l 794 -256 z "},"Æ":{"ha":1142,"x_min":11,"x_max":1074,"o":"m 557 358 l 557 819 l 551 819 q 403 522 478 671 l 318 358 l 557 358 m 1074 99 l 1074 0 l 557 0 l 557 265 l 271 265 l 133 0 l 11 0 l 489 911 l 1060 911 l 1060 814 l 674 814 l 674 528 l 996 528 l 996 429 l 674 429 l 674 99 l 1074 99 z "},"Ç":{"ha":793,"x_min":72,"x_max":749,"o":"m 72 456 q 103 653 72 565 q 188 801 133 740 q 316 895 242 863 q 478 928 390 928 q 624 894 561 928 q 726 815 686 860 l 661 742 q 581 803 625 781 q 479 826 538 826 q 361 801 414 826 q 271 727 308 775 q 213 611 233 679 q 192 458 192 543 q 212 303 192 372 q 268 186 232 235 q 356 111 304 138 q 474 85 408 85 q 590 111 540 85 q 683 186 639 138 l 749 115 q 626 18 694 53 q 471 -17 558 -17 q 312 15 385 -17 q 185 108 239 47 q 102 256 132 168 q 72 456 72 344 m 450 4 l 524 4 l 489 -69 q 547 -103 522 -81 q 571 -168 571 -125 q 554 -221 571 -199 q 510 -258 538 -243 q 445 -283 482 -274 q 369 -296 408 -292 l 358 -239 q 448 -216 414 -232 q 482 -172 482 -200 q 459 -130 482 -144 q 394 -104 436 -115 l 450 4 z "},"Ć":{"ha":793,"x_min":72,"x_max":749,"o":"m 72 456 q 103 653 72 565 q 188 801 133 740 q 316 895 242 863 q 478 928 390 928 q 624 894 561 928 q 726 815 686 860 l 661 742 q 581 803 625 781 q 479 826 538 826 q 361 801 414 826 q 271 727 308 775 q 213 611 233 679 q 192 458 192 543 q 212 303 192 372 q 268 186 232 235 q 356 111 304 138 q 474 85 408 85 q 590 111 540 85 q 683 186 639 138 l 749 115 q 626 18 694 53 q 471 -17 558 -17 q 312 15 385 -17 q 185 108 239 47 q 102 256 132 168 q 72 456 72 344 m 483 981 l 388 981 l 510 1136 l 640 1136 l 483 981 z "},"Ĉ":{"ha":793,"x_min":72,"x_max":749,"o":"m 72 456 q 103 653 72 565 q 188 801 133 740 q 316 895 242 863 q 478 928 390 928 q 624 894 561 928 q 726 815 686 860 l 661 742 q 581 803 625 781 q 479 826 538 826 q 361 801 414 826 q 271 727 308 775 q 213 611 233 679 q 192 458 192 543 q 212 303 192 372 q 268 186 232 235 q 356 111 304 138 q 474 85 408 85 q 590 111 540 85 q 683 186 639 138 l 749 115 q 626 18 694 53 q 471 -17 558 -17 q 312 15 385 -17 q 185 108 239 47 q 102 256 132 168 q 72 456 72 344 m 269 981 l 403 1136 l 514 1136 l 647 981 l 554 981 l 461 1075 l 456 1075 l 363 981 l 269 981 z "},"Č":{"ha":793,"x_min":72,"x_max":749,"o":"m 72 456 q 103 653 72 565 q 188 801 133 740 q 316 895 242 863 q 478 928 390 928 q 624 894 561 928 q 726 815 686 860 l 661 742 q 581 803 625 781 q 479 826 538 826 q 361 801 414 826 q 271 727 308 775 q 213 611 233 679 q 192 458 192 543 q 212 303 192 372 q 268 186 232 235 q 356 111 304 138 q 474 85 408 85 q 590 111 540 85 q 683 186 639 138 l 749 115 q 626 18 694 53 q 471 -17 558 -17 q 312 15 385 -17 q 185 108 239 47 q 102 256 132 168 q 72 456 72 344 m 647 1136 l 514 981 l 403 981 l 269 1136 l 363 1136 l 456 1042 l 461 1042 l 554 1136 l 647 1136 z "},"Ċ":{"ha":793,"x_min":72,"x_max":749,"o":"m 72 456 q 103 653 72 565 q 188 801 133 740 q 316 895 242 863 q 478 928 390 928 q 624 894 561 928 q 726 815 686 860 l 661 742 q 581 803 625 781 q 479 826 538 826 q 361 801 414 826 q 271 727 308 775 q 213 611 233 679 q 192 458 192 543 q 212 303 192 372 q 268 186 232 235 q 356 111 304 138 q 474 85 408 85 q 590 111 540 85 q 683 186 639 138 l 749 115 q 626 18 694 53 q 471 -17 558 -17 q 312 15 385 -17 q 185 108 239 47 q 102 256 132 168 q 72 456 72 344 m 458 992 q 402 1013 425 992 q 379 1067 379 1033 q 402 1119 379 1099 q 458 1140 425 1140 q 515 1119 492 1140 q 538 1067 538 1099 q 515 1013 538 1033 q 458 992 492 992 z "},"Ď":{"ha":854,"x_min":125,"x_max":783,"o":"m 125 911 l 353 911 q 674 794 564 911 q 783 460 783 678 q 756 266 783 351 q 674 122 728 181 q 540 31 619 63 q 358 0 461 0 l 125 0 l 125 911 m 344 94 q 584 190 504 94 q 664 460 664 286 q 584 725 664 633 q 344 817 504 817 l 240 817 l 240 94 l 344 94 m 615 1136 l 482 981 l 371 981 l 238 1136 l 331 1136 l 424 1042 l 429 1042 l 522 1136 l 615 1136 z "},"Ḍ":{"ha":854,"x_min":125,"x_max":783,"o":"m 125 911 l 353 911 q 674 794 564 911 q 783 460 783 678 q 756 266 783 351 q 674 122 728 181 q 540 31 619 63 q 358 0 461 0 l 125 0 l 125 911 m 344 94 q 584 190 504 94 q 664 460 664 286 q 584 725 664 633 q 344 817 504 817 l 240 817 l 240 94 l 344 94 m 422 -286 q 369 -265 390 -286 q 347 -211 347 -244 q 369 -158 347 -179 q 422 -137 390 -137 q 476 -158 454 -137 q 497 -211 497 -179 q 476 -265 497 -244 q 422 -286 454 -286 z "},"Ḏ":{"ha":854,"x_min":125,"x_max":783,"o":"m 125 911 l 353 911 q 674 794 564 911 q 783 460 783 678 q 756 266 783 351 q 674 122 728 181 q 540 31 619 63 q 358 0 461 0 l 125 0 l 125 911 m 344 94 q 584 190 504 94 q 664 460 664 286 q 584 725 664 633 q 344 817 504 817 l 240 817 l 240 94 l 344 94 m 593 -237 l 250 -237 l 250 -157 l 593 -157 l 593 -237 z "},"Đ":{"ha":886,"x_min":46,"x_max":814,"o":"m 375 94 q 615 190 535 94 q 694 460 694 286 q 615 725 694 633 q 375 817 535 817 l 271 817 l 271 511 l 478 511 l 478 446 l 271 446 l 271 94 l 375 94 m 383 911 q 704 794 594 911 q 814 460 814 678 q 786 266 814 351 q 704 122 758 181 q 571 31 650 63 q 389 0 492 0 l 156 0 l 156 446 l 46 446 l 46 506 l 156 511 l 156 911 l 383 911 z "},"È":{"ha":732,"x_min":125,"x_max":664,"o":"m 125 911 l 650 911 l 650 814 l 240 814 l 240 528 l 586 528 l 586 429 l 240 429 l 240 99 l 664 99 l 664 0 l 125 0 l 125 911 m 213 1136 l 343 1136 l 465 981 l 369 981 l 213 1136 z "},"É":{"ha":732,"x_min":125,"x_max":664,"o":"m 125 911 l 650 911 l 650 814 l 240 814 l 240 528 l 586 528 l 586 429 l 240 429 l 240 99 l 664 99 l 664 0 l 125 0 l 125 911 m 419 981 l 324 981 l 446 1136 l 576 1136 l 419 981 z "},"Ê":{"ha":732,"x_min":125,"x_max":664,"o":"m 125 911 l 650 911 l 650 814 l 240 814 l 240 528 l 586 528 l 586 429 l 240 429 l 240 99 l 664 99 l 664 0 l 125 0 l 125 911 m 206 981 l 339 1136 l 450 1136 l 583 981 l 490 981 l 397 1075 l 392 1075 l 299 981 l 206 981 z "},"Ě":{"ha":732,"x_min":125,"x_max":664,"o":"m 125 911 l 650 911 l 650 814 l 240 814 l 240 528 l 586 528 l 586 429 l 240 429 l 240 99 l 664 99 l 664 0 l 125 0 l 125 911 m 583 1136 l 450 981 l 339 981 l 206 1136 l 299 1136 l 392 1042 l 397 1042 l 490 1136 l 583 1136 z "},"Ë":{"ha":732,"x_min":125,"x_max":664,"o":"m 125 911 l 650 911 l 650 814 l 240 814 l 240 528 l 586 528 l 586 429 l 240 429 l 240 99 l 664 99 l 664 0 l 125 0 l 125 911 m 275 993 q 226 1013 244 993 q 207 1061 207 1032 q 226 1110 207 1092 q 275 1129 244 1129 q 324 1110 304 1129 q 343 1061 343 1092 q 324 1013 343 1032 q 275 993 304 993 m 514 993 q 465 1013 485 993 q 446 1061 446 1032 q 465 1110 446 1092 q 514 1129 485 1129 q 563 1110 544 1129 q 582 1061 582 1092 q 563 1013 582 1032 q 514 993 544 993 z "},"Ē":{"ha":732,"x_min":125,"x_max":664,"o":"m 125 911 l 650 911 l 650 814 l 240 814 l 240 528 l 586 528 l 586 429 l 240 429 l 240 99 l 664 99 l 664 0 l 125 0 l 125 911 m 222 1092 l 567 1092 l 567 1013 l 222 1013 l 222 1092 z "},"Ĕ":{"ha":732,"x_min":125,"x_max":664,"o":"m 125 911 l 650 911 l 650 814 l 240 814 l 240 528 l 586 528 l 586 429 l 240 429 l 240 99 l 664 99 l 664 0 l 125 0 l 125 911 m 394 983 q 322 997 353 983 q 271 1031 292 1010 q 239 1079 250 1051 q 224 1136 228 1107 l 293 1136 q 324 1076 300 1103 q 394 1049 347 1049 q 465 1076 442 1049 q 496 1136 489 1103 l 565 1136 q 550 1079 561 1107 q 518 1031 539 1051 q 467 997 497 1010 q 394 983 436 983 z "},"Ė":{"ha":732,"x_min":125,"x_max":664,"o":"m 125 911 l 650 911 l 650 814 l 240 814 l 240 528 l 586 528 l 586 429 l 240 429 l 240 99 l 664 99 l 664 0 l 125 0 l 125 911 m 394 992 q 338 1013 361 992 q 315 1067 315 1033 q 338 1119 315 1099 q 394 1140 361 1140 q 451 1119 428 1140 q 474 1067 474 1099 q 451 1013 474 1033 q 394 992 428 992 z "},"Ẹ":{"ha":732,"x_min":125,"x_max":664,"o":"m 125 911 l 650 911 l 650 814 l 240 814 l 240 528 l 586 528 l 586 429 l 240 429 l 240 99 l 664 99 l 664 0 l 125 0 l 125 911 m 410 -286 q 356 -265 378 -286 q 335 -211 335 -244 q 356 -158 335 -179 q 410 -137 378 -137 q 463 -158 442 -137 q 485 -211 485 -179 q 463 -265 485 -244 q 410 -286 442 -286 z "},"Ẻ":{"ha":732,"x_min":125,"x_max":664,"o":"m 125 911 l 650 911 l 650 814 l 240 814 l 240 528 l 586 528 l 586 429 l 240 429 l 240 99 l 664 99 l 664 0 l 125 0 l 125 911 m 343 1022 q 399 1046 376 1032 q 421 1086 421 1060 q 306 1144 421 1140 l 318 1211 q 460 1180 410 1208 q 510 1099 510 1151 q 497 1047 510 1068 q 463 1009 485 1025 q 414 984 442 993 q 356 969 386 975 l 343 1022 z "},"Ẽ":{"ha":732,"x_min":125,"x_max":664,"o":"m 125 911 l 650 911 l 650 814 l 240 814 l 240 528 l 586 528 l 586 429 l 240 429 l 240 99 l 664 99 l 664 0 l 125 0 l 125 911 m 478 988 q 428 999 450 988 q 387 1024 406 1010 q 350 1049 368 1038 q 313 1060 332 1060 q 278 1042 293 1060 q 257 988 263 1024 l 193 988 q 231 1095 200 1053 q 311 1138 261 1138 q 361 1126 339 1138 q 402 1101 383 1115 q 439 1076 421 1088 q 476 1065 457 1065 q 511 1084 496 1065 q 532 1138 526 1103 l 596 1138 q 558 1031 589 1074 q 478 988 528 988 z "},"Ế":{"ha":732,"x_min":125,"x_max":719,"o":"m 125 911 l 650 911 l 650 814 l 240 814 l 240 528 l 586 528 l 586 429 l 240 429 l 240 99 l 664 99 l 664 0 l 125 0 l 125 911 m 619 1224 l 719 1224 l 593 1069 l 521 1069 l 619 1224 m 344 1128 l 444 1128 l 572 981 l 485 981 l 397 1067 l 392 1067 l 304 981 l 217 981 l 344 1128 z "},"Ề":{"ha":732,"x_min":125,"x_max":664,"o":"m 125 911 l 650 911 l 650 814 l 240 814 l 240 528 l 586 528 l 586 429 l 240 429 l 240 99 l 664 99 l 664 0 l 125 0 l 125 911 m 650 1069 l 578 1069 l 451 1224 l 551 1224 l 650 1069 m 344 1128 l 444 1128 l 572 981 l 485 981 l 397 1067 l 392 1067 l 304 981 l 217 981 l 344 1128 z "},"Ể":{"ha":732,"x_min":125,"x_max":682,"o":"m 125 911 l 650 911 l 650 814 l 240 814 l 240 528 l 586 528 l 586 429 l 240 429 l 240 99 l 664 99 l 664 0 l 125 0 l 125 911 m 539 1096 q 583 1113 565 1103 q 601 1146 601 1124 q 578 1185 601 1174 q 503 1200 556 1197 l 515 1258 q 640 1231 597 1256 q 682 1157 682 1206 q 643 1080 682 1104 q 554 1047 604 1056 l 539 1096 m 344 1128 l 444 1128 l 572 981 l 485 981 l 397 1067 l 392 1067 l 304 981 l 217 981 l 344 1128 z "},"Ễ":{"ha":732,"x_min":125,"x_max":664,"o":"m 125 911 l 650 911 l 650 814 l 240 814 l 240 528 l 586 528 l 586 429 l 240 429 l 240 99 l 664 99 l 664 0 l 125 0 l 125 911 m 344 1128 l 444 1128 l 572 981 l 485 981 l 397 1067 l 392 1067 l 304 981 l 217 981 l 344 1128 m 211 1175 q 244 1267 217 1231 q 321 1304 272 1304 q 365 1294 346 1304 q 401 1273 385 1285 q 432 1251 417 1261 q 464 1242 447 1242 q 499 1258 485 1242 q 519 1304 514 1275 l 578 1304 q 544 1213 572 1250 q 468 1175 517 1175 q 424 1185 443 1175 q 388 1206 404 1194 q 357 1228 372 1218 q 325 1238 342 1238 q 269 1175 281 1238 l 211 1175 z "},"Ệ":{"ha":732,"x_min":125,"x_max":664,"o":"m 125 911 l 650 911 l 650 814 l 240 814 l 240 528 l 586 528 l 586 429 l 240 429 l 240 99 l 664 99 l 664 0 l 125 0 l 125 911 m 206 981 l 339 1136 l 450 1136 l 583 981 l 490 981 l 397 1075 l 392 1075 l 299 981 l 206 981 m 410 -286 q 356 -265 378 -286 q 335 -211 335 -244 q 356 -158 335 -179 q 410 -137 378 -137 q 463 -158 442 -137 q 485 -211 485 -179 q 463 -265 485 -244 q 410 -286 442 -286 z "},"Ę":{"ha":732,"x_min":125,"x_max":686,"o":"m 125 911 l 650 911 l 650 814 l 240 814 l 240 528 l 586 528 l 586 429 l 240 429 l 240 99 l 664 99 l 664 0 l 660 0 q 613 -16 636 -3 q 572 -49 590 -29 q 543 -95 554 -69 q 532 -149 532 -121 q 553 -197 532 -181 q 599 -212 574 -212 q 654 -193 628 -212 l 686 -256 q 635 -283 667 -271 q 575 -294 603 -294 q 481 -264 519 -294 q 442 -174 442 -233 q 474 -70 442 -115 q 546 0 507 -25 l 125 0 l 125 911 z "},"Ĝ":{"ha":857,"x_min":72,"x_max":764,"o":"m 72 456 q 103 653 72 565 q 191 801 135 740 q 324 895 247 863 q 492 928 400 928 q 649 892 586 928 q 753 815 713 857 l 688 742 q 608 802 653 778 q 493 826 563 826 q 368 801 424 826 q 274 727 313 775 q 213 611 235 679 q 192 458 192 543 q 212 303 192 372 q 270 186 232 235 q 365 111 308 138 q 494 85 421 85 q 587 99 543 85 q 658 139 631 114 l 658 376 l 465 376 l 465 472 l 764 472 l 764 89 q 647 13 719 43 q 482 -17 574 -17 q 317 15 392 -17 q 188 108 242 47 q 103 256 133 168 q 72 456 72 344 m 301 981 l 435 1136 l 546 1136 l 679 981 l 586 981 l 493 1075 l 488 1075 l 394 981 l 301 981 z "},"Ğ":{"ha":857,"x_min":72,"x_max":764,"o":"m 72 456 q 103 653 72 565 q 191 801 135 740 q 324 895 247 863 q 492 928 400 928 q 649 892 586 928 q 753 815 713 857 l 688 742 q 608 802 653 778 q 493 826 563 826 q 368 801 424 826 q 274 727 313 775 q 213 611 235 679 q 192 458 192 543 q 212 303 192 372 q 270 186 232 235 q 365 111 308 138 q 494 85 421 85 q 587 99 543 85 q 658 139 631 114 l 658 376 l 465 376 l 465 472 l 764 472 l 764 89 q 647 13 719 43 q 482 -17 574 -17 q 317 15 392 -17 q 188 108 242 47 q 103 256 133 168 q 72 456 72 344 m 490 983 q 418 997 449 983 q 367 1031 388 1010 q 335 1079 346 1051 q 319 1136 324 1107 l 389 1136 q 419 1076 396 1103 q 490 1049 443 1049 q 561 1076 538 1049 q 592 1136 585 1103 l 661 1136 q 646 1079 657 1107 q 614 1031 635 1051 q 563 997 593 1010 q 490 983 532 983 z "},"Ġ":{"ha":857,"x_min":72,"x_max":764,"o":"m 72 456 q 103 653 72 565 q 191 801 135 740 q 324 895 247 863 q 492 928 400 928 q 649 892 586 928 q 753 815 713 857 l 688 742 q 608 802 653 778 q 493 826 563 826 q 368 801 424 826 q 274 727 313 775 q 213 611 235 679 q 192 458 192 543 q 212 303 192 372 q 270 186 232 235 q 365 111 308 138 q 494 85 421 85 q 587 99 543 85 q 658 139 631 114 l 658 376 l 465 376 l 465 472 l 764 472 l 764 89 q 647 13 719 43 q 482 -17 574 -17 q 317 15 392 -17 q 188 108 242 47 q 103 256 133 168 q 72 456 72 344 m 490 992 q 434 1013 457 992 q 411 1067 411 1033 q 434 1119 411 1099 q 490 1140 457 1140 q 547 1119 524 1140 q 569 1067 569 1099 q 547 1013 569 1033 q 490 992 524 992 z "},"Ģ":{"ha":857,"x_min":72,"x_max":764,"o":"m 72 456 q 103 653 72 565 q 191 801 135 740 q 324 895 247 863 q 492 928 400 928 q 649 892 586 928 q 753 815 713 857 l 688 742 q 608 802 653 778 q 493 826 563 826 q 368 801 424 826 q 274 727 313 775 q 213 611 235 679 q 192 458 192 543 q 212 303 192 372 q 270 186 232 235 q 365 111 308 138 q 494 85 421 85 q 587 99 543 85 q 658 139 631 114 l 658 376 l 465 376 l 465 472 l 764 472 l 764 89 q 647 13 719 43 q 482 -17 574 -17 q 317 15 392 -17 q 188 108 242 47 q 103 256 133 168 q 72 456 72 344 m 443 -67 q 546 -102 514 -78 q 578 -174 578 -126 q 561 -226 578 -204 q 517 -264 544 -249 q 452 -288 489 -279 q 376 -300 415 -297 l 365 -244 q 455 -223 421 -237 q 489 -181 489 -208 q 468 -140 489 -153 q 418 -119 447 -126 l 443 -67 l 443 -67 z "},"Ǧ":{"ha":857,"x_min":72,"x_max":764,"o":"m 72 456 q 103 653 72 565 q 191 801 135 740 q 324 895 247 863 q 492 928 400 928 q 649 892 586 928 q 753 815 713 857 l 688 742 q 608 802 653 778 q 493 826 563 826 q 368 801 424 826 q 274 727 313 775 q 213 611 235 679 q 192 458 192 543 q 212 303 192 372 q 270 186 232 235 q 365 111 308 138 q 494 85 421 85 q 587 99 543 85 q 658 139 631 114 l 658 376 l 465 376 l 465 472 l 764 472 l 764 89 q 647 13 719 43 q 482 -17 574 -17 q 317 15 392 -17 q 188 108 242 47 q 103 256 133 168 q 72 456 72 344 m 679 1136 l 546 981 l 435 981 l 301 1136 l 394 1136 l 488 1042 l 493 1042 l 586 1136 l 679 1136 z "},"Ḡ":{"ha":857,"x_min":72,"x_max":764,"o":"m 72 456 q 103 653 72 565 q 191 801 135 740 q 324 895 247 863 q 492 928 400 928 q 649 892 586 928 q 753 815 713 857 l 688 742 q 608 802 653 778 q 493 826 563 826 q 368 801 424 826 q 274 727 313 775 q 213 611 235 679 q 192 458 192 543 q 212 303 192 372 q 270 186 232 235 q 365 111 308 138 q 494 85 421 85 q 587 99 543 85 q 658 139 631 114 l 658 376 l 465 376 l 465 472 l 764 472 l 764 89 q 647 13 719 43 q 482 -17 574 -17 q 317 15 392 -17 q 188 108 242 47 q 103 256 133 168 q 72 456 72 344 m 318 1092 l 663 1092 l 663 1013 l 318 1013 l 318 1092 z "},"Ĥ":{"ha":906,"x_min":125,"x_max":781,"o":"m 125 911 l 240 911 l 240 529 l 664 529 l 664 911 l 781 911 l 781 0 l 664 0 l 664 429 l 240 429 l 240 0 l 125 0 l 125 911 m 264 981 l 397 1136 l 508 1136 l 642 981 l 549 981 l 456 1075 l 450 1075 l 357 981 l 264 981 z "},"Ḥ":{"ha":906,"x_min":125,"x_max":781,"o":"m 125 911 l 240 911 l 240 529 l 664 529 l 664 911 l 781 911 l 781 0 l 664 0 l 664 429 l 240 429 l 240 0 l 125 0 l 125 911 m 453 -286 q 399 -265 421 -286 q 378 -211 378 -244 q 399 -158 378 -179 q 453 -137 421 -137 q 506 -158 485 -137 q 528 -211 528 -179 q 506 -265 528 -244 q 453 -286 485 -286 z "},"Ḫ":{"ha":906,"x_min":125,"x_max":781,"o":"m 125 911 l 240 911 l 240 529 l 664 529 l 664 911 l 781 911 l 781 0 l 664 0 l 664 429 l 240 429 l 240 0 l 125 0 l 125 911 m 453 -286 q 376 -270 408 -286 q 322 -228 343 -254 q 290 -172 301 -203 q 278 -110 279 -140 l 349 -110 q 379 -183 354 -150 q 453 -215 404 -215 q 526 -183 501 -215 q 557 -110 551 -150 l 628 -110 q 615 -172 625 -140 q 583 -228 604 -203 q 530 -270 563 -254 q 453 -286 497 -286 z "},"Ħ":{"ha":954,"x_min":44,"x_max":908,"o":"m 692 683 l 268 683 l 268 529 l 692 529 l 692 683 m 908 683 l 808 683 l 808 0 l 692 0 l 692 429 l 268 429 l 268 0 l 153 0 l 153 683 l 44 683 l 44 742 l 153 749 l 153 911 l 268 911 l 268 749 l 692 749 l 692 911 l 808 911 l 808 749 l 908 749 l 908 683 z "},"Ì":{"ha":365,"x_min":0,"x_max":253,"o":"m 125 911 l 240 911 l 240 0 l 125 0 l 125 911 m 0 1136 l 131 1136 l 253 981 l 157 981 l 0 1136 z "},"Í":{"ha":365,"x_min":111,"x_max":364,"o":"m 125 911 l 240 911 l 240 0 l 125 0 l 125 911 m 207 981 l 111 981 l 233 1136 l 364 1136 l 207 981 z "},"Î":{"ha":365,"x_min":-7,"x_max":371,"o":"m 125 911 l 240 911 l 240 0 l 125 0 l 125 911 m -7 981 l 126 1136 l 238 1136 l 371 981 l 278 981 l 185 1075 l 179 1075 l 86 981 l -7 981 z "},"Ĩ":{"ha":365,"x_min":-19,"x_max":383,"o":"m 125 911 l 240 911 l 240 0 l 125 0 l 125 911 m 265 988 q 215 999 238 988 q 174 1024 193 1010 q 138 1049 156 1038 q 100 1060 119 1060 q 65 1042 81 1060 q 44 988 50 1024 l -19 988 q 18 1095 -12 1053 q 99 1138 49 1138 q 149 1126 126 1138 q 190 1101 171 1115 q 226 1076 208 1088 q 264 1065 244 1065 q 299 1084 283 1065 q 319 1138 314 1103 l 383 1138 q 346 1031 376 1074 q 265 988 315 988 z "},"Ï":{"ha":365,"x_min":-6,"x_max":369,"o":"m 125 911 l 240 911 l 240 0 l 125 0 l 125 911 m 63 993 q 13 1013 32 993 q -6 1061 -6 1032 q 13 1110 -6 1092 q 63 1129 32 1129 q 111 1110 92 1129 q 131 1061 131 1092 q 111 1013 131 1032 q 63 993 92 993 m 301 993 q 253 1013 272 993 q 233 1061 233 1032 q 253 1110 233 1092 q 301 1129 272 1129 q 351 1110 332 1129 q 369 1061 369 1092 q 351 1013 369 1032 q 301 993 332 993 z "},"Ī":{"ha":365,"x_min":10,"x_max":354,"o":"m 125 911 l 240 911 l 240 0 l 125 0 l 125 911 m 10 1092 l 354 1092 l 354 1013 l 10 1013 l 10 1092 z "},"İ":{"ha":365,"x_min":103,"x_max":261,"o":"m 125 911 l 240 911 l 240 0 l 125 0 l 125 911 m 182 992 q 126 1013 149 992 q 103 1067 103 1033 q 126 1119 103 1099 q 182 1140 149 1140 q 238 1119 215 1140 q 261 1067 261 1099 q 238 1013 261 1033 q 182 992 215 992 z "},"Ǐ":{"ha":365,"x_min":-7,"x_max":371,"o":"m 125 911 l 240 911 l 240 0 l 125 0 l 125 911 m 371 1136 l 238 981 l 126 981 l -7 1136 l 86 1136 l 179 1042 l 185 1042 l 278 1136 l 371 1136 z "},"Ỉ":{"ha":365,"x_min":93,"x_max":297,"o":"m 125 911 l 240 911 l 240 0 l 125 0 l 125 911 m 131 1022 q 186 1046 164 1032 q 208 1086 208 1060 q 93 1144 208 1140 l 106 1211 q 247 1180 197 1208 q 297 1099 297 1151 q 285 1047 297 1068 q 251 1009 272 1025 q 201 984 229 993 q 143 969 174 975 l 131 1022 z "},"Ị":{"ha":365,"x_min":108,"x_max":258,"o":"m 125 911 l 240 911 l 240 0 l 125 0 l 125 911 m 183 -286 q 130 -265 151 -286 q 108 -211 108 -244 q 130 -158 108 -179 q 183 -137 151 -137 q 237 -158 215 -137 q 258 -211 258 -179 q 237 -265 258 -244 q 183 -286 215 -286 z "},"Į":{"ha":365,"x_min":60,"x_max":304,"o":"m 125 911 l 240 911 l 240 0 q 174 -69 197 -33 q 150 -149 150 -106 q 171 -197 150 -181 q 215 -212 192 -212 q 272 -193 246 -212 l 304 -256 q 252 -283 283 -271 q 193 -294 221 -294 q 99 -264 138 -294 q 60 -174 60 -233 q 90 -72 60 -114 q 153 0 119 -31 l 125 0 l 125 911 z "},"Ĵ":{"ha":667,"x_min":43,"x_max":672,"o":"m 126 188 q 196 109 157 133 q 283 85 235 85 q 393 130 357 85 q 429 279 429 175 l 429 911 l 546 911 l 546 268 q 531 158 546 210 q 487 67 517 106 q 409 6 457 28 q 294 -17 361 -17 q 43 129 124 -17 l 126 188 m 294 981 l 428 1136 l 539 1136 l 672 981 l 579 981 l 486 1075 l 481 1075 l 388 981 l 294 981 z "},"Ķ":{"ha":804,"x_min":125,"x_max":799,"o":"m 125 911 l 240 911 l 240 454 l 244 454 l 624 911 l 754 911 l 469 564 l 799 0 l 669 0 l 397 474 l 240 289 l 240 0 l 125 0 l 125 911 m 411 -67 q 514 -102 482 -78 q 546 -174 546 -126 q 529 -226 546 -204 q 485 -264 513 -249 q 420 -288 457 -279 q 344 -300 383 -297 l 333 -244 q 423 -223 389 -237 q 457 -181 457 -208 q 436 -140 457 -153 q 386 -119 415 -126 l 411 -67 l 411 -67 z "},"Ĺ":{"ha":675,"x_min":115,"x_max":639,"o":"m 125 911 l 240 911 l 240 99 l 639 99 l 639 0 l 125 0 l 125 911 m 211 981 l 115 981 l 238 1136 l 368 1136 l 211 981 z "},"Ľ":{"ha":675,"x_min":125,"x_max":639,"o":"m 125 911 l 240 911 l 240 99 l 639 99 l 639 0 l 125 0 l 125 911 m 464 715 l 458 1010 l 540 1010 l 539 931 l 519 715 l 464 715 z "},"Ļ":{"ha":675,"x_min":125,"x_max":639,"o":"m 125 911 l 240 911 l 240 99 l 639 99 l 639 0 l 125 0 l 125 911 m 360 -67 q 463 -102 431 -78 q 494 -174 494 -126 q 478 -226 494 -204 q 433 -264 461 -249 q 369 -288 406 -279 q 293 -300 332 -297 l 282 -244 q 372 -223 338 -237 q 406 -181 406 -208 q 385 -140 406 -153 q 335 -119 364 -126 l 360 -67 l 360 -67 z "},"Ŀ":{"ha":675,"x_min":125,"x_max":639,"o":"m 125 911 l 240 911 l 240 99 l 639 99 l 639 0 l 125 0 l 125 911 m 440 451 q 465 516 440 492 q 524 540 489 540 q 581 516 557 540 q 606 451 606 492 q 581 390 606 414 q 524 365 557 365 q 465 390 489 365 q 440 451 440 414 z "},"Ḷ":{"ha":675,"x_min":125,"x_max":639,"o":"m 125 911 l 240 911 l 240 99 l 639 99 l 639 0 l 125 0 l 125 911 m 400 -286 q 347 -265 368 -286 q 325 -211 325 -244 q 347 -158 325 -179 q 400 -137 368 -137 q 453 -158 432 -137 q 475 -211 475 -179 q 453 -265 475 -244 q 400 -286 432 -286 z "},"Ḹ":{"ha":675,"x_min":14,"x_max":639,"o":"m 125 911 l 240 911 l 240 99 l 639 99 l 639 0 l 125 0 l 125 911 m 14 1092 l 358 1092 l 358 1013 l 14 1013 l 14 1092 m 400 -286 q 347 -265 368 -286 q 325 -211 325 -244 q 347 -158 325 -179 q 400 -137 368 -137 q 453 -158 432 -137 q 475 -211 475 -179 q 453 -265 475 -244 q 400 -286 432 -286 z "},"Ḻ":{"ha":675,"x_min":125,"x_max":639,"o":"m 125 911 l 240 911 l 240 99 l 639 99 l 639 0 l 125 0 l 125 911 m 571 -237 l 228 -237 l 228 -157 l 571 -157 l 571 -237 z "},"Ł":{"ha":679,"x_min":18,"x_max":646,"o":"m 646 99 l 646 0 l 132 0 l 132 333 l 18 269 l 18 363 l 132 428 l 132 911 l 249 911 l 249 479 l 506 618 l 506 524 l 249 386 l 249 99 l 646 99 z "},"Ṃ":{"ha":1010,"x_min":125,"x_max":885,"o":"m 125 911 l 261 911 l 438 422 l 504 236 l 510 236 l 574 422 l 749 911 l 885 911 l 885 0 l 775 0 l 775 501 q 780 636 775 563 q 790 771 785 710 l 785 771 l 711 568 l 536 92 l 471 92 l 294 568 l 222 771 l 217 771 q 226 636 221 710 q 232 501 232 563 l 232 0 l 125 0 l 125 911 m 506 -286 q 452 -265 474 -286 q 431 -211 431 -244 q 452 -158 431 -179 q 506 -137 474 -137 q 559 -158 538 -137 q 581 -211 581 -179 q 559 -265 581 -244 q 506 -286 538 -286 z "},"Ń":{"ha":899,"x_min":125,"x_max":774,"o":"m 125 911 l 244 911 l 574 339 l 672 150 l 678 150 q 669 294 674 219 q 664 440 664 368 l 664 911 l 774 911 l 774 0 l 654 0 l 324 574 l 225 761 l 219 761 q 230 620 225 692 q 235 476 235 549 l 235 0 l 125 0 l 125 911 m 478 981 l 382 981 l 504 1136 l 635 1136 l 478 981 z "},"Ň":{"ha":899,"x_min":125,"x_max":774,"o":"m 125 911 l 244 911 l 574 339 l 672 150 l 678 150 q 669 294 674 219 q 664 440 664 368 l 664 911 l 774 911 l 774 0 l 654 0 l 324 574 l 225 761 l 219 761 q 230 620 225 692 q 235 476 235 549 l 235 0 l 125 0 l 125 911 m 642 1136 l 508 981 l 397 981 l 264 1136 l 357 1136 l 450 1042 l 456 1042 l 549 1136 l 642 1136 z "},"Ñ":{"ha":899,"x_min":125,"x_max":774,"o":"m 125 911 l 244 911 l 574 339 l 672 150 l 678 150 q 669 294 674 219 q 664 440 664 368 l 664 911 l 774 911 l 774 0 l 654 0 l 324 574 l 225 761 l 219 761 q 230 620 225 692 q 235 476 235 549 l 235 0 l 125 0 l 125 911 m 536 988 q 486 999 508 988 q 445 1024 464 1010 q 408 1049 426 1038 q 371 1060 390 1060 q 336 1042 351 1060 q 315 988 321 1024 l 251 988 q 289 1095 258 1053 q 369 1138 319 1138 q 419 1126 397 1138 q 460 1101 442 1115 q 497 1076 479 1088 q 535 1065 515 1065 q 569 1084 554 1065 q 590 1138 585 1103 l 654 1138 q 617 1031 647 1074 q 536 988 586 988 z "},"Ņ":{"ha":899,"x_min":125,"x_max":774,"o":"m 125 911 l 244 911 l 574 339 l 672 150 l 678 150 q 669 294 674 219 q 664 440 664 368 l 664 911 l 774 911 l 774 0 l 654 0 l 324 574 l 225 761 l 219 761 q 230 620 225 692 q 235 476 235 549 l 235 0 l 125 0 l 125 911 m 415 -67 q 518 -102 486 -78 q 550 -174 550 -126 q 533 -226 550 -204 q 489 -264 517 -249 q 424 -288 461 -279 q 349 -300 388 -297 l 338 -244 q 427 -223 393 -237 q 461 -181 461 -208 q 440 -140 461 -153 q 390 -119 419 -126 l 415 -67 l 415 -67 z "},"Ṅ":{"ha":899,"x_min":125,"x_max":774,"o":"m 125 911 l 244 911 l 574 339 l 672 150 l 678 150 q 669 294 674 219 q 664 440 664 368 l 664 911 l 774 911 l 774 0 l 654 0 l 324 574 l 225 761 l 219 761 q 230 620 225 692 q 235 476 235 549 l 235 0 l 125 0 l 125 911 m 453 992 q 397 1013 419 992 q 374 1067 374 1033 q 397 1119 374 1099 q 453 1140 419 1140 q 509 1119 486 1140 q 532 1067 532 1099 q 509 1013 532 1033 q 453 992 486 992 z "},"Ṇ":{"ha":899,"x_min":125,"x_max":774,"o":"m 125 911 l 244 911 l 574 339 l 672 150 l 678 150 q 669 294 674 219 q 664 440 664 368 l 664 911 l 774 911 l 774 0 l 654 0 l 324 574 l 225 761 l 219 761 q 230 620 225 692 q 235 476 235 549 l 235 0 l 125 0 l 125 911 m 456 -286 q 402 -265 424 -286 q 381 -211 381 -244 q 402 -158 381 -179 q 456 -137 424 -137 q 509 -158 488 -137 q 531 -211 531 -179 q 509 -265 531 -244 q 456 -286 488 -286 z "},"Ṉ":{"ha":899,"x_min":125,"x_max":774,"o":"m 125 911 l 244 911 l 574 339 l 672 150 l 678 150 q 669 294 674 219 q 664 440 664 368 l 664 911 l 774 911 l 774 0 l 654 0 l 324 574 l 225 761 l 219 761 q 230 620 225 692 q 235 476 235 549 l 235 0 l 125 0 l 125 911 m 626 -237 l 283 -237 l 283 -157 l 626 -157 l 626 -237 z "},"Ò":{"ha":922,"x_min":72,"x_max":851,"o":"m 461 -17 q 303 17 375 -17 q 181 112 232 50 q 101 262 129 174 q 72 460 72 350 q 101 656 72 569 q 181 803 129 743 q 303 896 232 864 q 461 928 375 928 q 619 895 547 928 q 742 802 690 863 q 823 655 794 742 q 851 460 851 568 q 823 262 851 350 q 742 112 794 174 q 619 17 690 50 q 461 -17 547 -17 m 461 85 q 572 111 522 85 q 656 187 621 138 q 711 305 692 236 q 731 460 731 374 q 711 613 731 544 q 656 728 692 681 q 572 801 621 775 q 461 826 522 826 q 351 801 400 826 q 266 728 301 775 q 211 613 231 681 q 192 460 192 544 q 211 305 192 374 q 266 187 231 236 q 351 111 301 138 q 461 85 400 85 m 279 1136 l 410 1136 l 532 981 l 436 981 l 279 1136 z "},"Ó":{"ha":922,"x_min":72,"x_max":851,"o":"m 461 -17 q 303 17 375 -17 q 181 112 232 50 q 101 262 129 174 q 72 460 72 350 q 101 656 72 569 q 181 803 129 743 q 303 896 232 864 q 461 928 375 928 q 619 895 547 928 q 742 802 690 863 q 823 655 794 742 q 851 460 851 568 q 823 262 851 350 q 742 112 794 174 q 619 17 690 50 q 461 -17 547 -17 m 461 85 q 572 111 522 85 q 656 187 621 138 q 711 305 692 236 q 731 460 731 374 q 711 613 731 544 q 656 728 692 681 q 572 801 621 775 q 461 826 522 826 q 351 801 400 826 q 266 728 301 775 q 211 613 231 681 q 192 460 192 544 q 211 305 192 374 q 266 187 231 236 q 351 111 301 138 q 461 85 400 85 m 486 981 l 390 981 l 513 1136 l 643 1136 l 486 981 z "},"Ô":{"ha":922,"x_min":72,"x_max":851,"o":"m 461 -17 q 303 17 375 -17 q 181 112 232 50 q 101 262 129 174 q 72 460 72 350 q 101 656 72 569 q 181 803 129 743 q 303 896 232 864 q 461 928 375 928 q 619 895 547 928 q 742 802 690 863 q 823 655 794 742 q 851 460 851 568 q 823 262 851 350 q 742 112 794 174 q 619 17 690 50 q 461 -17 547 -17 m 461 85 q 572 111 522 85 q 656 187 621 138 q 711 305 692 236 q 731 460 731 374 q 711 613 731 544 q 656 728 692 681 q 572 801 621 775 q 461 826 522 826 q 351 801 400 826 q 266 728 301 775 q 211 613 231 681 q 192 460 192 544 q 211 305 192 374 q 266 187 231 236 q 351 111 301 138 q 461 85 400 85 m 272 981 l 406 1136 l 517 1136 l 650 981 l 557 981 l 464 1075 l 458 1075 l 365 981 l 272 981 z "},"Õ":{"ha":922,"x_min":72,"x_max":851,"o":"m 461 -17 q 303 17 375 -17 q 181 112 232 50 q 101 262 129 174 q 72 460 72 350 q 101 656 72 569 q 181 803 129 743 q 303 896 232 864 q 461 928 375 928 q 619 895 547 928 q 742 802 690 863 q 823 655 794 742 q 851 460 851 568 q 823 262 851 350 q 742 112 794 174 q 619 17 690 50 q 461 -17 547 -17 m 461 85 q 572 111 522 85 q 656 187 621 138 q 711 305 692 236 q 731 460 731 374 q 711 613 731 544 q 656 728 692 681 q 572 801 621 775 q 461 826 522 826 q 351 801 400 826 q 266 728 301 775 q 211 613 231 681 q 192 460 192 544 q 211 305 192 374 q 266 187 231 236 q 351 111 301 138 q 461 85 400 85 m 544 988 q 494 999 517 988 q 453 1024 472 1010 q 417 1049 435 1038 q 379 1060 399 1060 q 344 1042 360 1060 q 324 988 329 1024 l 260 988 q 297 1095 267 1053 q 378 1138 328 1138 q 428 1126 406 1138 q 469 1101 450 1115 q 506 1076 488 1088 q 543 1065 524 1065 q 578 1084 563 1065 q 599 1138 593 1103 l 663 1138 q 625 1031 656 1074 q 544 988 594 988 z "},"Ö":{"ha":922,"x_min":72,"x_max":851,"o":"m 461 -17 q 303 17 375 -17 q 181 112 232 50 q 101 262 129 174 q 72 460 72 350 q 101 656 72 569 q 181 803 129 743 q 303 896 232 864 q 461 928 375 928 q 619 895 547 928 q 742 802 690 863 q 823 655 794 742 q 851 460 851 568 q 823 262 851 350 q 742 112 794 174 q 619 17 690 50 q 461 -17 547 -17 m 461 85 q 572 111 522 85 q 656 187 621 138 q 711 305 692 236 q 731 460 731 374 q 711 613 731 544 q 656 728 692 681 q 572 801 621 775 q 461 826 522 826 q 351 801 400 826 q 266 728 301 775 q 211 613 231 681 q 192 460 192 544 q 211 305 192 374 q 266 187 231 236 q 351 111 301 138 q 461 85 400 85 m 342 993 q 292 1013 311 993 q 274 1061 274 1032 q 292 1110 274 1092 q 342 1129 311 1129 q 390 1110 371 1129 q 410 1061 410 1092 q 390 1013 410 1032 q 342 993 371 993 m 581 993 q 532 1013 551 993 q 513 1061 513 1032 q 532 1110 513 1092 q 581 1129 551 1129 q 630 1110 611 1129 q 649 1061 649 1092 q 630 1013 649 1032 q 581 993 611 993 z "},"Ō":{"ha":922,"x_min":72,"x_max":851,"o":"m 461 -17 q 303 17 375 -17 q 181 112 232 50 q 101 262 129 174 q 72 460 72 350 q 101 656 72 569 q 181 803 129 743 q 303 896 232 864 q 461 928 375 928 q 619 895 547 928 q 742 802 690 863 q 823 655 794 742 q 851 460 851 568 q 823 262 851 350 q 742 112 794 174 q 619 17 690 50 q 461 -17 547 -17 m 461 85 q 572 111 522 85 q 656 187 621 138 q 711 305 692 236 q 731 460 731 374 q 711 613 731 544 q 656 728 692 681 q 572 801 621 775 q 461 826 522 826 q 351 801 400 826 q 266 728 301 775 q 211 613 231 681 q 192 460 192 544 q 211 305 192 374 q 266 187 231 236 q 351 111 301 138 q 461 85 400 85 m 289 1092 l 633 1092 l 633 1013 l 289 1013 l 289 1092 z "},"Ő":{"ha":922,"x_min":72,"x_max":851,"o":"m 461 -17 q 303 17 375 -17 q 181 112 232 50 q 101 262 129 174 q 72 460 72 350 q 101 656 72 569 q 181 803 129 743 q 303 896 232 864 q 461 928 375 928 q 619 895 547 928 q 742 802 690 863 q 823 655 794 742 q 851 460 851 568 q 823 262 851 350 q 742 112 794 174 q 619 17 690 50 q 461 -17 547 -17 m 461 85 q 572 111 522 85 q 656 187 621 138 q 711 305 692 236 q 731 460 731 374 q 711 613 731 544 q 656 728 692 681 q 572 801 621 775 q 461 826 522 826 q 351 801 400 826 q 266 728 301 775 q 211 613 231 681 q 192 460 192 544 q 211 305 192 374 q 266 187 231 236 q 351 111 301 138 q 461 85 400 85 m 310 981 l 401 1136 l 508 1136 l 393 981 l 310 981 m 621 1136 l 728 1136 l 611 981 l 529 981 l 621 1136 z "},"Ǒ":{"ha":922,"x_min":72,"x_max":851,"o":"m 461 -17 q 303 17 375 -17 q 181 112 232 50 q 101 262 129 174 q 72 460 72 350 q 101 656 72 569 q 181 803 129 743 q 303 896 232 864 q 461 928 375 928 q 619 895 547 928 q 742 802 690 863 q 823 655 794 742 q 851 460 851 568 q 823 262 851 350 q 742 112 794 174 q 619 17 690 50 q 461 -17 547 -17 m 461 85 q 572 111 522 85 q 656 187 621 138 q 711 305 692 236 q 731 460 731 374 q 711 613 731 544 q 656 728 692 681 q 572 801 621 775 q 461 826 522 826 q 351 801 400 826 q 266 728 301 775 q 211 613 231 681 q 192 460 192 544 q 211 305 192 374 q 266 187 231 236 q 351 111 301 138 q 461 85 400 85 m 650 1136 l 517 981 l 406 981 l 272 1136 l 365 1136 l 458 1042 l 464 1042 l 557 1136 l 650 1136 z "},"Ọ":{"ha":922,"x_min":72,"x_max":851,"o":"m 461 -17 q 303 17 375 -17 q 181 112 232 50 q 101 262 129 174 q 72 460 72 350 q 101 656 72 569 q 181 803 129 743 q 303 896 232 864 q 461 928 375 928 q 619 895 547 928 q 742 802 690 863 q 823 655 794 742 q 851 460 851 568 q 823 262 851 350 q 742 112 794 174 q 619 17 690 50 q 461 -17 547 -17 m 461 85 q 572 111 522 85 q 656 187 621 138 q 711 305 692 236 q 731 460 731 374 q 711 613 731 544 q 656 728 692 681 q 572 801 621 775 q 461 826 522 826 q 351 801 400 826 q 266 728 301 775 q 211 613 231 681 q 192 460 192 544 q 211 305 192 374 q 266 187 231 236 q 351 111 301 138 q 461 85 400 85 m 461 -286 q 408 -265 429 -286 q 386 -211 386 -244 q 408 -158 386 -179 q 461 -137 429 -137 q 515 -158 493 -137 q 536 -211 536 -179 q 515 -265 536 -244 q 461 -286 493 -286 z "},"Ỏ":{"ha":922,"x_min":72,"x_max":851,"o":"m 461 -17 q 303 17 375 -17 q 181 112 232 50 q 101 262 129 174 q 72 460 72 350 q 101 656 72 569 q 181 803 129 743 q 303 896 232 864 q 461 928 375 928 q 619 895 547 928 q 742 802 690 863 q 823 655 794 742 q 851 460 851 568 q 823 262 851 350 q 742 112 794 174 q 619 17 690 50 q 461 -17 547 -17 m 461 85 q 572 111 522 85 q 656 187 621 138 q 711 305 692 236 q 731 460 731 374 q 711 613 731 544 q 656 728 692 681 q 572 801 621 775 q 461 826 522 826 q 351 801 400 826 q 266 728 301 775 q 211 613 231 681 q 192 460 192 544 q 211 305 192 374 q 266 187 231 236 q 351 111 301 138 q 461 85 400 85 m 410 1022 q 465 1046 443 1032 q 488 1086 488 1060 q 372 1144 488 1140 l 385 1211 q 526 1180 476 1208 q 576 1099 576 1151 q 564 1047 576 1068 q 530 1009 551 1025 q 481 984 508 993 q 422 969 453 975 l 410 1022 z "},"Ố":{"ha":922,"x_min":72,"x_max":851,"o":"m 461 -17 q 303 17 375 -17 q 181 112 232 50 q 101 262 129 174 q 72 460 72 350 q 101 656 72 569 q 181 803 129 743 q 303 896 232 864 q 461 928 375 928 q 619 895 547 928 q 742 802 690 863 q 823 655 794 742 q 851 460 851 568 q 823 262 851 350 q 742 112 794 174 q 619 17 690 50 q 461 -17 547 -17 m 461 85 q 572 111 522 85 q 656 187 621 138 q 711 305 692 236 q 731 460 731 374 q 711 613 731 544 q 656 728 692 681 q 572 801 621 775 q 461 826 522 826 q 351 801 400 826 q 266 728 301 775 q 211 613 231 681 q 192 460 192 544 q 211 305 192 374 q 266 187 231 236 q 351 111 301 138 q 461 85 400 85 m 686 1224 l 786 1224 l 660 1069 l 588 1069 l 686 1224 m 411 1128 l 511 1128 l 639 981 l 551 981 l 464 1067 l 458 1067 l 371 981 l 283 981 l 411 1128 z "},"Ồ":{"ha":922,"x_min":72,"x_max":851,"o":"m 461 -17 q 303 17 375 -17 q 181 112 232 50 q 101 262 129 174 q 72 460 72 350 q 101 656 72 569 q 181 803 129 743 q 303 896 232 864 q 461 928 375 928 q 619 895 547 928 q 742 802 690 863 q 823 655 794 742 q 851 460 851 568 q 823 262 851 350 q 742 112 794 174 q 619 17 690 50 q 461 -17 547 -17 m 461 85 q 572 111 522 85 q 656 187 621 138 q 711 305 692 236 q 731 460 731 374 q 711 613 731 544 q 656 728 692 681 q 572 801 621 775 q 461 826 522 826 q 351 801 400 826 q 266 728 301 775 q 211 613 231 681 q 192 460 192 544 q 211 305 192 374 q 266 187 231 236 q 351 111 301 138 q 461 85 400 85 m 717 1069 l 644 1069 l 518 1224 l 618 1224 l 717 1069 m 411 1128 l 511 1128 l 639 981 l 551 981 l 464 1067 l 458 1067 l 371 981 l 283 981 l 411 1128 z "},"Ổ":{"ha":922,"x_min":72,"x_max":851,"o":"m 461 -17 q 303 17 375 -17 q 181 112 232 50 q 101 262 129 174 q 72 460 72 350 q 101 656 72 569 q 181 803 129 743 q 303 896 232 864 q 461 928 375 928 q 619 895 547 928 q 742 802 690 863 q 823 655 794 742 q 851 460 851 568 q 823 262 851 350 q 742 112 794 174 q 619 17 690 50 q 461 -17 547 -17 m 461 85 q 572 111 522 85 q 656 187 621 138 q 711 305 692 236 q 731 460 731 374 q 711 613 731 544 q 656 728 692 681 q 572 801 621 775 q 461 826 522 826 q 351 801 400 826 q 266 728 301 775 q 211 613 231 681 q 192 460 192 544 q 211 305 192 374 q 266 187 231 236 q 351 111 301 138 q 461 85 400 85 m 606 1096 q 650 1113 632 1103 q 668 1146 668 1124 q 645 1185 668 1174 q 569 1200 622 1197 l 582 1258 q 706 1231 664 1256 q 749 1157 749 1206 q 710 1080 749 1104 q 621 1047 671 1056 l 606 1096 m 411 1128 l 511 1128 l 639 981 l 551 981 l 464 1067 l 458 1067 l 371 981 l 283 981 l 411 1128 z "},"Ỗ":{"ha":922,"x_min":72,"x_max":851,"o":"m 461 -17 q 303 17 375 -17 q 181 112 232 50 q 101 262 129 174 q 72 460 72 350 q 101 656 72 569 q 181 803 129 743 q 303 896 232 864 q 461 928 375 928 q 619 895 547 928 q 742 802 690 863 q 823 655 794 742 q 851 460 851 568 q 823 262 851 350 q 742 112 794 174 q 619 17 690 50 q 461 -17 547 -17 m 461 85 q 572 111 522 85 q 656 187 621 138 q 711 305 692 236 q 731 460 731 374 q 711 613 731 544 q 656 728 692 681 q 572 801 621 775 q 461 826 522 826 q 351 801 400 826 q 266 728 301 775 q 211 613 231 681 q 192 460 192 544 q 211 305 192 374 q 266 187 231 236 q 351 111 301 138 q 461 85 400 85 m 411 1128 l 511 1128 l 639 981 l 551 981 l 464 1067 l 458 1067 l 371 981 l 283 981 l 411 1128 m 278 1175 q 311 1267 283 1231 q 388 1304 339 1304 q 432 1294 413 1304 q 467 1273 451 1285 q 499 1251 483 1261 q 531 1242 514 1242 q 566 1258 551 1242 q 586 1304 581 1275 l 644 1304 q 611 1213 639 1250 q 535 1175 583 1175 q 490 1185 510 1175 q 455 1206 471 1194 q 424 1228 439 1218 q 392 1238 408 1238 q 336 1175 347 1238 l 278 1175 z "},"Ộ":{"ha":922,"x_min":72,"x_max":851,"o":"m 461 -17 q 303 17 375 -17 q 181 112 232 50 q 101 262 129 174 q 72 460 72 350 q 101 656 72 569 q 181 803 129 743 q 303 896 232 864 q 461 928 375 928 q 619 895 547 928 q 742 802 690 863 q 823 655 794 742 q 851 460 851 568 q 823 262 851 350 q 742 112 794 174 q 619 17 690 50 q 461 -17 547 -17 m 461 85 q 572 111 522 85 q 656 187 621 138 q 711 305 692 236 q 731 460 731 374 q 711 613 731 544 q 656 728 692 681 q 572 801 621 775 q 461 826 522 826 q 351 801 400 826 q 266 728 301 775 q 211 613 231 681 q 192 460 192 544 q 211 305 192 374 q 266 187 231 236 q 351 111 301 138 q 461 85 400 85 m 272 981 l 406 1136 l 517 1136 l 650 981 l 557 981 l 464 1075 l 458 1075 l 365 981 l 272 981 m 461 -286 q 408 -265 429 -286 q 386 -211 386 -244 q 408 -158 386 -179 q 461 -137 429 -137 q 515 -158 493 -137 q 536 -211 536 -179 q 515 -265 536 -244 q 461 -286 493 -286 z "},"Ø":{"ha":922,"x_min":69,"x_max":860,"o":"m 289 161 q 368 105 324 125 q 465 85 413 85 q 576 111 526 85 q 660 187 625 138 q 715 305 696 236 q 735 460 735 374 q 723 582 735 526 q 689 682 711 638 l 289 161 m 642 751 q 465 826 571 826 q 354 801 404 826 q 269 728 304 775 q 214 613 233 681 q 194 460 194 544 q 242 232 194 326 l 642 751 m 764 779 q 831 640 807 719 q 854 460 854 560 q 826 262 854 350 q 745 112 797 174 q 622 17 693 50 q 465 -17 550 -17 q 331 6 393 -17 q 221 74 269 29 l 133 -42 l 69 8 l 167 135 q 99 278 122 196 q 75 460 75 360 q 103 656 75 569 q 184 803 132 743 q 308 896 236 864 q 465 928 379 928 q 708 840 610 928 l 796 953 l 860 904 l 764 779 z "},"Œ":{"ha":1176,"x_min":72,"x_max":1108,"o":"m 72 460 q 189 794 72 678 q 518 911 306 911 l 1094 911 l 1094 814 l 708 814 l 708 528 l 1031 528 l 1031 429 l 708 429 l 708 99 l 1108 99 l 1108 0 l 513 0 q 327 31 408 0 q 189 122 246 63 q 102 266 132 181 q 72 460 72 351 m 192 460 q 276 190 192 285 q 526 94 361 94 l 593 94 l 593 817 l 526 817 q 276 725 361 817 q 192 460 192 633 z "},"Ơ":{"ha":922,"x_min":75,"x_max":854,"o":"m 465 85 q 576 111 526 85 q 660 187 625 138 q 715 305 696 236 q 735 460 735 374 q 715 613 735 544 q 660 728 696 681 q 576 801 625 775 q 465 826 526 826 q 354 801 404 826 q 269 728 304 775 q 214 613 233 681 q 194 460 194 544 q 214 305 194 374 q 269 187 233 236 q 354 111 304 138 q 465 85 404 85 m 821 1074 q 844 1032 835 1054 q 853 983 853 1010 q 815 888 853 924 q 711 838 776 853 q 816 681 778 776 q 854 460 854 586 q 826 262 854 350 q 745 112 797 174 q 622 17 693 50 q 465 -17 550 -17 q 308 17 379 -17 q 184 112 236 50 q 103 262 132 174 q 75 460 75 350 q 103 656 75 569 q 184 803 132 743 q 308 896 236 864 q 465 928 379 928 q 646 883 565 928 q 731 916 704 894 q 758 976 758 938 q 753 1006 758 992 q 739 1033 747 1019 l 821 1074 z "},"Ớ":{"ha":922,"x_min":75,"x_max":854,"o":"m 465 85 q 576 111 526 85 q 660 187 625 138 q 715 305 696 236 q 735 460 735 374 q 715 613 735 544 q 660 728 696 681 q 576 801 625 775 q 465 826 526 826 q 354 801 404 826 q 269 728 304 775 q 214 613 233 681 q 194 460 194 544 q 214 305 194 374 q 269 187 233 236 q 354 111 304 138 q 465 85 404 85 m 821 1074 q 844 1032 835 1054 q 853 983 853 1010 q 815 888 853 924 q 711 838 776 853 q 816 681 778 776 q 854 460 854 586 q 826 262 854 350 q 745 112 797 174 q 622 17 693 50 q 465 -17 550 -17 q 308 17 379 -17 q 184 112 236 50 q 103 262 132 174 q 75 460 75 350 q 103 656 75 569 q 184 803 132 743 q 308 896 236 864 q 465 928 379 928 q 646 883 565 928 q 731 916 704 894 q 758 976 758 938 q 753 1006 758 992 q 739 1033 747 1019 l 821 1074 m 486 981 l 390 981 l 513 1136 l 643 1136 l 486 981 z "},"Ờ":{"ha":922,"x_min":75,"x_max":854,"o":"m 465 85 q 576 111 526 85 q 660 187 625 138 q 715 305 696 236 q 735 460 735 374 q 715 613 735 544 q 660 728 696 681 q 576 801 625 775 q 465 826 526 826 q 354 801 404 826 q 269 728 304 775 q 214 613 233 681 q 194 460 194 544 q 214 305 194 374 q 269 187 233 236 q 354 111 304 138 q 465 85 404 85 m 821 1074 q 844 1032 835 1054 q 853 983 853 1010 q 815 888 853 924 q 711 838 776 853 q 816 681 778 776 q 854 460 854 586 q 826 262 854 350 q 745 112 797 174 q 622 17 693 50 q 465 -17 550 -17 q 308 17 379 -17 q 184 112 236 50 q 103 262 132 174 q 75 460 75 350 q 103 656 75 569 q 184 803 132 743 q 308 896 236 864 q 465 928 379 928 q 646 883 565 928 q 731 916 704 894 q 758 976 758 938 q 753 1006 758 992 q 739 1033 747 1019 l 821 1074 m 279 1136 l 410 1136 l 532 981 l 436 981 l 279 1136 z "},"Ở":{"ha":922,"x_min":75,"x_max":854,"o":"m 465 85 q 576 111 526 85 q 660 187 625 138 q 715 305 696 236 q 735 460 735 374 q 715 613 735 544 q 660 728 696 681 q 576 801 625 775 q 465 826 526 826 q 354 801 404 826 q 269 728 304 775 q 214 613 233 681 q 194 460 194 544 q 214 305 194 374 q 269 187 233 236 q 354 111 304 138 q 465 85 404 85 m 821 1074 q 844 1032 835 1054 q 853 983 853 1010 q 815 888 853 924 q 711 838 776 853 q 816 681 778 776 q 854 460 854 586 q 826 262 854 350 q 745 112 797 174 q 622 17 693 50 q 465 -17 550 -17 q 308 17 379 -17 q 184 112 236 50 q 103 262 132 174 q 75 460 75 350 q 103 656 75 569 q 184 803 132 743 q 308 896 236 864 q 465 928 379 928 q 646 883 565 928 q 731 916 704 894 q 758 976 758 938 q 753 1006 758 992 q 739 1033 747 1019 l 821 1074 m 410 1022 q 465 1046 443 1032 q 488 1086 488 1060 q 372 1144 488 1140 l 385 1211 q 526 1180 476 1208 q 576 1099 576 1151 q 564 1047 576 1068 q 530 1009 551 1025 q 481 984 508 993 q 422 969 453 975 l 410 1022 z "},"Ỡ":{"ha":922,"x_min":75,"x_max":854,"o":"m 465 85 q 576 111 526 85 q 660 187 625 138 q 715 305 696 236 q 735 460 735 374 q 715 613 735 544 q 660 728 696 681 q 576 801 625 775 q 465 826 526 826 q 354 801 404 826 q 269 728 304 775 q 214 613 233 681 q 194 460 194 544 q 214 305 194 374 q 269 187 233 236 q 354 111 304 138 q 465 85 404 85 m 821 1074 q 844 1032 835 1054 q 853 983 853 1010 q 815 888 853 924 q 711 838 776 853 q 816 681 778 776 q 854 460 854 586 q 826 262 854 350 q 745 112 797 174 q 622 17 693 50 q 465 -17 550 -17 q 308 17 379 -17 q 184 112 236 50 q 103 262 132 174 q 75 460 75 350 q 103 656 75 569 q 184 803 132 743 q 308 896 236 864 q 465 928 379 928 q 646 883 565 928 q 731 916 704 894 q 758 976 758 938 q 753 1006 758 992 q 739 1033 747 1019 l 821 1074 m 544 988 q 494 999 517 988 q 453 1024 472 1010 q 417 1049 435 1038 q 379 1060 399 1060 q 344 1042 360 1060 q 324 988 329 1024 l 260 988 q 297 1095 267 1053 q 378 1138 328 1138 q 428 1126 406 1138 q 469 1101 450 1115 q 506 1076 488 1088 q 543 1065 524 1065 q 578 1084 563 1065 q 599 1138 593 1103 l 663 1138 q 625 1031 656 1074 q 544 988 594 988 z "},"Ợ":{"ha":922,"x_min":75,"x_max":854,"o":"m 465 85 q 576 111 526 85 q 660 187 625 138 q 715 305 696 236 q 735 460 735 374 q 715 613 735 544 q 660 728 696 681 q 576 801 625 775 q 465 826 526 826 q 354 801 404 826 q 269 728 304 775 q 214 613 233 681 q 194 460 194 544 q 214 305 194 374 q 269 187 233 236 q 354 111 304 138 q 465 85 404 85 m 821 1074 q 844 1032 835 1054 q 853 983 853 1010 q 815 888 853 924 q 711 838 776 853 q 816 681 778 776 q 854 460 854 586 q 826 262 854 350 q 745 112 797 174 q 622 17 693 50 q 465 -17 550 -17 q 308 17 379 -17 q 184 112 236 50 q 103 262 132 174 q 75 460 75 350 q 103 656 75 569 q 184 803 132 743 q 308 896 236 864 q 465 928 379 928 q 646 883 565 928 q 731 916 704 894 q 758 976 758 938 q 753 1006 758 992 q 739 1033 747 1019 l 821 1074 m 461 -286 q 408 -265 429 -286 q 386 -211 386 -244 q 408 -158 386 -179 q 461 -137 429 -137 q 515 -158 493 -137 q 536 -211 536 -179 q 515 -265 536 -244 q 461 -286 493 -286 z "},"Ǫ":{"ha":922,"x_min":72,"x_max":851,"o":"m 369 -174 q 394 -87 369 -128 q 454 -15 418 -46 q 296 21 367 -14 q 175 117 225 56 q 99 266 125 179 q 72 460 72 353 q 101 656 72 569 q 181 803 129 743 q 303 896 232 864 q 461 928 375 928 q 619 895 547 928 q 742 802 690 863 q 823 655 794 742 q 851 460 851 568 q 833 293 851 367 q 777 163 814 219 q 688 63 740 106 q 567 -10 635 21 q 484 -74 510 -35 q 458 -149 458 -112 q 479 -197 458 -181 q 525 -212 500 -212 q 555 -208 542 -212 q 581 -193 568 -203 l 613 -256 q 561 -283 593 -271 q 501 -294 529 -294 q 408 -264 446 -294 q 369 -174 369 -233 m 461 85 q 572 111 522 85 q 656 187 621 138 q 711 305 692 236 q 731 460 731 374 q 711 613 731 544 q 656 728 692 681 q 572 801 621 775 q 461 826 522 826 q 351 801 400 826 q 266 728 301 775 q 211 613 231 681 q 192 460 192 544 q 211 305 192 374 q 266 187 231 236 q 351 111 301 138 q 461 85 400 85 z "},"Ŕ":{"ha":807,"x_min":125,"x_max":756,"o":"m 240 479 l 393 479 q 557 523 500 479 q 614 656 614 567 q 557 782 614 746 q 393 818 500 818 l 240 818 l 240 479 m 625 0 l 406 385 l 240 385 l 240 0 l 125 0 l 125 911 l 410 911 q 538 898 479 911 q 640 854 597 885 q 706 775 682 824 q 729 656 729 726 q 674 485 729 549 q 525 397 618 421 l 756 0 l 625 0 m 433 981 l 338 981 l 460 1136 l 590 1136 l 433 981 z "},"Ř":{"ha":807,"x_min":125,"x_max":756,"o":"m 240 479 l 393 479 q 557 523 500 479 q 614 656 614 567 q 557 782 614 746 q 393 818 500 818 l 240 818 l 240 479 m 625 0 l 406 385 l 240 385 l 240 0 l 125 0 l 125 911 l 410 911 q 538 898 479 911 q 640 854 597 885 q 706 775 682 824 q 729 656 729 726 q 674 485 729 549 q 525 397 618 421 l 756 0 l 625 0 m 597 1136 l 464 981 l 353 981 l 219 1136 l 313 1136 l 406 1042 l 411 1042 l 504 1136 l 597 1136 z "},"Ŗ":{"ha":807,"x_min":125,"x_max":756,"o":"m 240 479 l 393 479 q 557 523 500 479 q 614 656 614 567 q 557 782 614 746 q 393 818 500 818 l 240 818 l 240 479 m 625 0 l 406 385 l 240 385 l 240 0 l 125 0 l 125 911 l 410 911 q 538 898 479 911 q 640 854 597 885 q 706 775 682 824 q 729 656 729 726 q 674 485 729 549 q 525 397 618 421 l 756 0 l 625 0 m 389 -67 q 492 -102 460 -78 q 524 -174 524 -126 q 507 -226 524 -204 q 463 -264 490 -249 q 398 -288 435 -279 q 322 -300 361 -297 l 311 -244 q 401 -223 367 -237 q 435 -181 435 -208 q 414 -140 435 -153 q 364 -119 393 -126 l 389 -67 l 389 -67 z "},"Ṛ":{"ha":807,"x_min":125,"x_max":756,"o":"m 240 479 l 393 479 q 557 523 500 479 q 614 656 614 567 q 557 782 614 746 q 393 818 500 818 l 240 818 l 240 479 m 625 0 l 406 385 l 240 385 l 240 0 l 125 0 l 125 911 l 410 911 q 538 898 479 911 q 640 854 597 885 q 706 775 682 824 q 729 656 729 726 q 674 485 729 549 q 525 397 618 421 l 756 0 l 625 0 m 429 -286 q 376 -265 397 -286 q 354 -211 354 -244 q 376 -158 354 -179 q 429 -137 397 -137 q 483 -158 461 -137 q 504 -211 504 -179 q 483 -265 504 -244 q 429 -286 461 -286 z "},"Ṝ":{"ha":807,"x_min":125,"x_max":756,"o":"m 240 479 l 393 479 q 557 523 500 479 q 614 656 614 567 q 557 782 614 746 q 393 818 500 818 l 240 818 l 240 479 m 625 0 l 406 385 l 240 385 l 240 0 l 125 0 l 125 911 l 410 911 q 538 898 479 911 q 640 854 597 885 q 706 775 682 824 q 729 656 729 726 q 674 485 729 549 q 525 397 618 421 l 756 0 l 625 0 m 236 1092 l 581 1092 l 581 1013 l 236 1013 l 236 1092 m 429 -286 q 376 -265 397 -286 q 354 -211 354 -244 q 376 -158 354 -179 q 429 -137 397 -137 q 483 -158 461 -137 q 504 -211 504 -179 q 483 -265 504 -244 q 429 -286 461 -286 z "},"Ṟ":{"ha":807,"x_min":125,"x_max":756,"o":"m 240 479 l 393 479 q 557 523 500 479 q 614 656 614 567 q 557 782 614 746 q 393 818 500 818 l 240 818 l 240 479 m 625 0 l 406 385 l 240 385 l 240 0 l 125 0 l 125 911 l 410 911 q 538 898 479 911 q 640 854 597 885 q 706 775 682 824 q 729 656 729 726 q 674 485 729 549 q 525 397 618 421 l 756 0 l 625 0 m 600 -237 l 257 -237 l 257 -157 l 600 -157 l 600 -237 z "},"Ś":{"ha":742,"x_min":58,"x_max":688,"o":"m 128 199 q 242 116 176 147 q 379 85 308 85 q 519 126 469 85 q 569 233 569 167 q 558 292 569 268 q 526 334 546 317 q 478 365 506 351 q 418 394 450 379 l 288 451 q 222 485 256 465 q 163 532 189 504 q 119 598 136 560 q 103 686 103 636 q 124 782 103 738 q 184 859 146 826 q 274 910 222 892 q 389 928 326 928 q 540 897 471 928 q 658 815 610 865 l 596 740 q 503 803 554 781 q 389 826 453 826 q 266 791 313 826 q 219 693 219 756 q 233 637 219 660 q 268 597 246 614 q 317 566 290 579 q 371 542 343 553 l 500 486 q 574 448 539 469 q 633 398 608 426 q 673 331 658 369 q 688 243 688 293 q 666 142 688 189 q 604 59 644 94 q 507 3 564 24 q 378 -17 450 -17 q 200 19 282 -17 q 58 118 118 56 l 128 199 m 413 981 l 317 981 l 439 1136 l 569 1136 l 413 981 z "},"Ŝ":{"ha":742,"x_min":58,"x_max":688,"o":"m 128 199 q 242 116 176 147 q 379 85 308 85 q 519 126 469 85 q 569 233 569 167 q 558 292 569 268 q 526 334 546 317 q 478 365 506 351 q 418 394 450 379 l 288 451 q 222 485 256 465 q 163 532 189 504 q 119 598 136 560 q 103 686 103 636 q 124 782 103 738 q 184 859 146 826 q 274 910 222 892 q 389 928 326 928 q 540 897 471 928 q 658 815 610 865 l 596 740 q 503 803 554 781 q 389 826 453 826 q 266 791 313 826 q 219 693 219 756 q 233 637 219 660 q 268 597 246 614 q 317 566 290 579 q 371 542 343 553 l 500 486 q 574 448 539 469 q 633 398 608 426 q 673 331 658 369 q 688 243 688 293 q 666 142 688 189 q 604 59 644 94 q 507 3 564 24 q 378 -17 450 -17 q 200 19 282 -17 q 58 118 118 56 l 128 199 m 199 981 l 332 1136 l 443 1136 l 576 981 l 483 981 l 390 1075 l 385 1075 l 292 981 l 199 981 z "},"Š":{"ha":742,"x_min":58,"x_max":688,"o":"m 128 199 q 242 116 176 147 q 379 85 308 85 q 519 126 469 85 q 569 233 569 167 q 558 292 569 268 q 526 334 546 317 q 478 365 506 351 q 418 394 450 379 l 288 451 q 222 485 256 465 q 163 532 189 504 q 119 598 136 560 q 103 686 103 636 q 124 782 103 738 q 184 859 146 826 q 274 910 222 892 q 389 928 326 928 q 540 897 471 928 q 658 815 610 865 l 596 740 q 503 803 554 781 q 389 826 453 826 q 266 791 313 826 q 219 693 219 756 q 233 637 219 660 q 268 597 246 614 q 317 566 290 579 q 371 542 343 553 l 500 486 q 574 448 539 469 q 633 398 608 426 q 673 331 658 369 q 688 243 688 293 q 666 142 688 189 q 604 59 644 94 q 507 3 564 24 q 378 -17 450 -17 q 200 19 282 -17 q 58 118 118 56 l 128 199 m 576 1136 l 443 981 l 332 981 l 199 1136 l 292 1136 l 385 1042 l 390 1042 l 483 1136 l 576 1136 z "},"Ş":{"ha":742,"x_min":58,"x_max":688,"o":"m 128 199 q 242 116 176 147 q 379 85 308 85 q 519 126 469 85 q 569 233 569 167 q 558 292 569 268 q 526 334 546 317 q 478 365 506 351 q 418 394 450 379 l 288 451 q 222 485 256 465 q 163 532 189 504 q 119 598 136 560 q 103 686 103 636 q 124 782 103 738 q 184 859 146 826 q 274 910 222 892 q 389 928 326 928 q 540 897 471 928 q 658 815 610 865 l 596 740 q 503 803 554 781 q 389 826 453 826 q 266 791 313 826 q 219 693 219 756 q 233 637 219 660 q 268 597 246 614 q 317 566 290 579 q 371 542 343 553 l 500 486 q 574 448 539 469 q 633 398 608 426 q 673 331 658 369 q 688 243 688 293 q 666 142 688 189 q 604 59 644 94 q 507 3 564 24 q 378 -17 450 -17 q 200 19 282 -17 q 58 118 118 56 l 128 199 m 353 4 l 426 4 l 392 -69 q 449 -103 425 -81 q 474 -168 474 -125 q 457 -221 474 -199 q 413 -258 440 -243 q 348 -283 385 -274 q 272 -296 311 -292 l 261 -239 q 351 -216 317 -232 q 385 -172 385 -200 q 362 -130 385 -144 q 297 -104 339 -115 l 353 4 z "},"Ș":{"ha":742,"x_min":58,"x_max":688,"o":"m 128 199 q 242 116 176 147 q 379 85 308 85 q 519 126 469 85 q 569 233 569 167 q 558 292 569 268 q 526 334 546 317 q 478 365 506 351 q 418 394 450 379 l 288 451 q 222 485 256 465 q 163 532 189 504 q 119 598 136 560 q 103 686 103 636 q 124 782 103 738 q 184 859 146 826 q 274 910 222 892 q 389 928 326 928 q 540 897 471 928 q 658 815 610 865 l 596 740 q 503 803 554 781 q 389 826 453 826 q 266 791 313 826 q 219 693 219 756 q 233 637 219 660 q 268 597 246 614 q 317 566 290 579 q 371 542 343 553 l 500 486 q 574 448 539 469 q 633 398 608 426 q 673 331 658 369 q 688 243 688 293 q 666 142 688 189 q 604 59 644 94 q 507 3 564 24 q 378 -17 450 -17 q 200 19 282 -17 q 58 118 118 56 l 128 199 m 339 -67 q 442 -102 410 -78 q 474 -174 474 -126 q 457 -226 474 -204 q 413 -264 440 -249 q 348 -288 385 -279 q 272 -300 311 -297 l 261 -244 q 351 -223 317 -237 q 385 -181 385 -208 q 364 -140 385 -153 q 314 -119 343 -126 l 339 -67 l 339 -67 z "},"Ṡ":{"ha":742,"x_min":58,"x_max":688,"o":"m 128 199 q 242 116 176 147 q 379 85 308 85 q 519 126 469 85 q 569 233 569 167 q 558 292 569 268 q 526 334 546 317 q 478 365 506 351 q 418 394 450 379 l 288 451 q 222 485 256 465 q 163 532 189 504 q 119 598 136 560 q 103 686 103 636 q 124 782 103 738 q 184 859 146 826 q 274 910 222 892 q 389 928 326 928 q 540 897 471 928 q 658 815 610 865 l 596 740 q 503 803 554 781 q 389 826 453 826 q 266 791 313 826 q 219 693 219 756 q 233 637 219 660 q 268 597 246 614 q 317 566 290 579 q 371 542 343 553 l 500 486 q 574 448 539 469 q 633 398 608 426 q 673 331 658 369 q 688 243 688 293 q 666 142 688 189 q 604 59 644 94 q 507 3 564 24 q 378 -17 450 -17 q 200 19 282 -17 q 58 118 118 56 l 128 199 m 388 992 q 331 1013 354 992 q 308 1067 308 1033 q 331 1119 308 1099 q 388 1140 354 1140 q 444 1119 421 1140 q 467 1067 467 1099 q 444 1013 467 1033 q 388 992 421 992 z "},"Ṣ":{"ha":742,"x_min":58,"x_max":688,"o":"m 128 199 q 242 116 176 147 q 379 85 308 85 q 519 126 469 85 q 569 233 569 167 q 558 292 569 268 q 526 334 546 317 q 478 365 506 351 q 418 394 450 379 l 288 451 q 222 485 256 465 q 163 532 189 504 q 119 598 136 560 q 103 686 103 636 q 124 782 103 738 q 184 859 146 826 q 274 910 222 892 q 389 928 326 928 q 540 897 471 928 q 658 815 610 865 l 596 740 q 503 803 554 781 q 389 826 453 826 q 266 791 313 826 q 219 693 219 756 q 233 637 219 660 q 268 597 246 614 q 317 566 290 579 q 371 542 343 553 l 500 486 q 574 448 539 469 q 633 398 608 426 q 673 331 658 369 q 688 243 688 293 q 666 142 688 189 q 604 59 644 94 q 507 3 564 24 q 378 -17 450 -17 q 200 19 282 -17 q 58 118 118 56 l 128 199 m 379 -286 q 326 -265 347 -286 q 304 -211 304 -244 q 326 -158 304 -179 q 379 -137 347 -137 q 433 -158 411 -137 q 454 -211 454 -179 q 433 -265 454 -244 q 379 -286 411 -286 z "},"ẞ":{"ha":926,"x_min":126,"x_max":867,"o":"m 126 579 q 219 835 126 743 q 482 928 313 928 q 672 869 599 928 q 783 714 746 811 l 592 503 q 802 406 738 474 q 867 238 867 338 q 848 137 867 183 q 794 56 829 90 q 711 3 760 22 q 603 -17 663 -17 q 458 13 522 -17 q 351 89 394 42 l 418 164 q 500 100 458 119 q 593 81 542 81 q 707 124 667 81 q 747 238 747 168 q 735 299 747 269 q 693 353 724 328 q 610 397 663 378 q 479 431 558 417 l 472 506 l 663 718 q 594 799 639 765 q 478 832 549 832 q 305 766 367 832 q 243 558 243 700 l 243 0 l 126 0 l 126 579 z "},"Ť":{"ha":744,"x_min":39,"x_max":706,"o":"m 314 814 l 39 814 l 39 911 l 706 911 l 706 814 l 431 814 l 431 0 l 314 0 l 314 814 m 560 1136 l 426 981 l 315 981 l 182 1136 l 275 1136 l 368 1042 l 374 1042 l 467 1136 l 560 1136 z "},"Ţ":{"ha":744,"x_min":39,"x_max":706,"o":"m 314 814 l 39 814 l 39 911 l 706 911 l 706 814 l 431 814 l 431 0 l 314 0 l 314 814 m 340 4 l 414 4 l 379 -69 q 437 -103 413 -81 q 461 -168 461 -125 q 444 -221 461 -199 q 400 -258 428 -243 q 335 -283 372 -274 q 260 -296 299 -292 l 249 -239 q 338 -216 304 -232 q 372 -172 372 -200 q 349 -130 372 -144 q 285 -104 326 -115 l 340 4 z "},"Ț":{"ha":744,"x_min":39,"x_max":706,"o":"m 314 814 l 39 814 l 39 911 l 706 911 l 706 814 l 431 814 l 431 0 l 314 0 l 314 814 m 333 -67 q 436 -102 404 -78 q 468 -174 468 -126 q 451 -226 468 -204 q 407 -264 435 -249 q 342 -288 379 -279 q 267 -300 306 -297 l 256 -244 q 345 -223 311 -237 q 379 -181 379 -208 q 358 -140 379 -153 q 308 -119 338 -126 l 333 -67 l 333 -67 z "},"Ṭ":{"ha":744,"x_min":39,"x_max":706,"o":"m 314 814 l 39 814 l 39 911 l 706 911 l 706 814 l 431 814 l 431 0 l 314 0 l 314 814 m 374 -286 q 320 -265 342 -286 q 299 -211 299 -244 q 320 -158 299 -179 q 374 -137 342 -137 q 427 -158 406 -137 q 449 -211 449 -179 q 427 -265 449 -244 q 374 -286 406 -286 z "},"Ṯ":{"ha":744,"x_min":39,"x_max":706,"o":"m 314 814 l 39 814 l 39 911 l 706 911 l 706 814 l 431 814 l 431 0 l 314 0 l 314 814 m 544 -237 l 201 -237 l 201 -157 l 544 -157 l 544 -237 z "},"Ù":{"ha":896,"x_min":121,"x_max":775,"o":"m 121 911 l 236 911 l 236 374 q 253 236 236 292 q 298 147 269 181 q 365 99 326 114 q 449 85 404 85 q 533 99 494 85 q 601 147 572 114 q 647 236 631 181 q 664 374 664 292 l 664 911 l 775 911 l 775 376 q 750 192 775 267 q 681 70 725 117 q 578 3 638 24 q 449 -17 518 -17 q 319 3 379 -17 q 215 70 258 24 q 146 192 171 117 q 121 376 121 267 l 121 911 m 265 1136 l 396 1136 l 518 981 l 422 981 l 265 1136 z "},"Ú":{"ha":896,"x_min":121,"x_max":775,"o":"m 121 911 l 236 911 l 236 374 q 253 236 236 292 q 298 147 269 181 q 365 99 326 114 q 449 85 404 85 q 533 99 494 85 q 601 147 572 114 q 647 236 631 181 q 664 374 664 292 l 664 911 l 775 911 l 775 376 q 750 192 775 267 q 681 70 725 117 q 578 3 638 24 q 449 -17 518 -17 q 319 3 379 -17 q 215 70 258 24 q 146 192 171 117 q 121 376 121 267 l 121 911 m 472 981 l 376 981 l 499 1136 l 629 1136 l 472 981 z "},"Û":{"ha":896,"x_min":121,"x_max":775,"o":"m 121 911 l 236 911 l 236 374 q 253 236 236 292 q 298 147 269 181 q 365 99 326 114 q 449 85 404 85 q 533 99 494 85 q 601 147 572 114 q 647 236 631 181 q 664 374 664 292 l 664 911 l 775 911 l 775 376 q 750 192 775 267 q 681 70 725 117 q 578 3 638 24 q 449 -17 518 -17 q 319 3 379 -17 q 215 70 258 24 q 146 192 171 117 q 121 376 121 267 l 121 911 m 258 981 l 392 1136 l 503 1136 l 636 981 l 543 981 l 450 1075 l 444 1075 l 351 981 l 258 981 z "},"Ũ":{"ha":896,"x_min":121,"x_max":775,"o":"m 121 911 l 236 911 l 236 374 q 253 236 236 292 q 298 147 269 181 q 365 99 326 114 q 449 85 404 85 q 533 99 494 85 q 601 147 572 114 q 647 236 631 181 q 664 374 664 292 l 664 911 l 775 911 l 775 376 q 750 192 775 267 q 681 70 725 117 q 578 3 638 24 q 449 -17 518 -17 q 319 3 379 -17 q 215 70 258 24 q 146 192 171 117 q 121 376 121 267 l 121 911 m 531 988 q 481 999 503 988 q 440 1024 458 1010 q 403 1049 421 1038 q 365 1060 385 1060 q 331 1042 346 1060 q 310 988 315 1024 l 246 988 q 283 1095 253 1053 q 364 1138 314 1138 q 414 1126 392 1138 q 455 1101 436 1115 q 492 1076 474 1088 q 529 1065 510 1065 q 564 1084 549 1065 q 585 1138 579 1103 l 649 1138 q 611 1031 642 1074 q 531 988 581 988 z "},"Ü":{"ha":896,"x_min":121,"x_max":775,"o":"m 121 911 l 236 911 l 236 374 q 253 236 236 292 q 298 147 269 181 q 365 99 326 114 q 449 85 404 85 q 533 99 494 85 q 601 147 572 114 q 647 236 631 181 q 664 374 664 292 l 664 911 l 775 911 l 775 376 q 750 192 775 267 q 681 70 725 117 q 578 3 638 24 q 449 -17 518 -17 q 319 3 379 -17 q 215 70 258 24 q 146 192 171 117 q 121 376 121 267 l 121 911 m 328 993 q 278 1013 297 993 q 260 1061 260 1032 q 278 1110 260 1092 q 328 1129 297 1129 q 376 1110 357 1129 q 396 1061 396 1092 q 376 1013 396 1032 q 328 993 357 993 m 567 993 q 518 1013 538 993 q 499 1061 499 1032 q 518 1110 499 1092 q 567 1129 538 1129 q 616 1110 597 1129 q 635 1061 635 1092 q 616 1013 635 1032 q 567 993 597 993 z "},"Ū":{"ha":896,"x_min":121,"x_max":775,"o":"m 121 911 l 236 911 l 236 374 q 253 236 236 292 q 298 147 269 181 q 365 99 326 114 q 449 85 404 85 q 533 99 494 85 q 601 147 572 114 q 647 236 631 181 q 664 374 664 292 l 664 911 l 775 911 l 775 376 q 750 192 775 267 q 681 70 725 117 q 578 3 638 24 q 449 -17 518 -17 q 319 3 379 -17 q 215 70 258 24 q 146 192 171 117 q 121 376 121 267 l 121 911 m 275 1092 l 619 1092 l 619 1013 l 275 1013 l 275 1092 z "},"Ŭ":{"ha":896,"x_min":121,"x_max":775,"o":"m 121 911 l 236 911 l 236 374 q 253 236 236 292 q 298 147 269 181 q 365 99 326 114 q 449 85 404 85 q 533 99 494 85 q 601 147 572 114 q 647 236 631 181 q 664 374 664 292 l 664 911 l 775 911 l 775 376 q 750 192 775 267 q 681 70 725 117 q 578 3 638 24 q 449 -17 518 -17 q 319 3 379 -17 q 215 70 258 24 q 146 192 171 117 q 121 376 121 267 l 121 911 m 447 983 q 375 997 406 983 q 324 1031 344 1010 q 292 1079 303 1051 q 276 1136 281 1107 l 346 1136 q 376 1076 353 1103 q 447 1049 400 1049 q 518 1076 494 1049 q 549 1136 542 1103 l 618 1136 q 603 1079 614 1107 q 571 1031 592 1051 q 519 997 550 1010 q 447 983 489 983 z "},"Ů":{"ha":896,"x_min":121,"x_max":775,"o":"m 121 911 l 236 911 l 236 374 q 253 236 236 292 q 298 147 269 181 q 365 99 326 114 q 449 85 404 85 q 533 99 494 85 q 601 147 572 114 q 647 236 631 181 q 664 374 664 292 l 664 911 l 775 911 l 775 376 q 750 192 775 267 q 681 70 725 117 q 578 3 638 24 q 449 -17 518 -17 q 319 3 379 -17 q 215 70 258 24 q 146 192 171 117 q 121 376 121 267 l 121 911 m 447 971 q 354 1003 390 971 q 318 1093 318 1036 q 354 1182 318 1149 q 447 1215 390 1215 q 540 1182 503 1215 q 576 1093 576 1149 q 540 1003 576 1036 q 447 971 503 971 m 447 1021 q 493 1040 474 1021 q 513 1093 513 1058 q 493 1144 513 1125 q 447 1164 474 1164 q 400 1144 419 1164 q 381 1093 381 1125 q 400 1040 381 1058 q 447 1021 419 1021 z "},"Ű":{"ha":896,"x_min":121,"x_max":775,"o":"m 121 911 l 236 911 l 236 374 q 253 236 236 292 q 298 147 269 181 q 365 99 326 114 q 449 85 404 85 q 533 99 494 85 q 601 147 572 114 q 647 236 631 181 q 664 374 664 292 l 664 911 l 775 911 l 775 376 q 750 192 775 267 q 681 70 725 117 q 578 3 638 24 q 449 -17 518 -17 q 319 3 379 -17 q 215 70 258 24 q 146 192 171 117 q 121 376 121 267 l 121 911 m 296 981 l 388 1136 l 494 1136 l 379 981 l 296 981 m 607 1136 l 714 1136 l 597 981 l 515 981 l 607 1136 z "},"Ǔ":{"ha":896,"x_min":121,"x_max":775,"o":"m 121 911 l 236 911 l 236 374 q 253 236 236 292 q 298 147 269 181 q 365 99 326 114 q 449 85 404 85 q 533 99 494 85 q 601 147 572 114 q 647 236 631 181 q 664 374 664 292 l 664 911 l 775 911 l 775 376 q 750 192 775 267 q 681 70 725 117 q 578 3 638 24 q 449 -17 518 -17 q 319 3 379 -17 q 215 70 258 24 q 146 192 171 117 q 121 376 121 267 l 121 911 m 636 1136 l 503 981 l 392 981 l 258 1136 l 351 1136 l 444 1042 l 450 1042 l 543 1136 l 636 1136 z "},"Ǖ":{"ha":896,"x_min":121,"x_max":775,"o":"m 121 911 l 236 911 l 236 374 q 253 236 236 292 q 298 147 269 181 q 365 99 326 114 q 449 85 404 85 q 533 99 494 85 q 601 147 572 114 q 647 236 631 181 q 664 374 664 292 l 664 911 l 775 911 l 775 376 q 750 192 775 267 q 681 70 725 117 q 578 3 638 24 q 449 -17 518 -17 q 319 3 379 -17 q 215 70 258 24 q 146 192 171 117 q 121 376 121 267 l 121 911 m 275 1260 l 619 1260 l 619 1196 l 275 1196 l 275 1260 m 328 993 q 282 1011 300 993 q 264 1057 264 1029 q 282 1102 264 1085 q 328 1119 300 1119 q 373 1102 356 1119 q 390 1057 390 1085 q 373 1011 390 1029 q 328 993 356 993 m 567 993 q 522 1011 539 993 q 504 1057 504 1029 q 522 1102 504 1085 q 567 1119 539 1119 q 613 1102 594 1119 q 631 1057 631 1085 q 613 1011 631 1029 q 567 993 594 993 z "},"Ǘ":{"ha":896,"x_min":121,"x_max":775,"o":"m 121 911 l 236 911 l 236 374 q 253 236 236 292 q 298 147 269 181 q 365 99 326 114 q 449 85 404 85 q 533 99 494 85 q 601 147 572 114 q 647 236 631 181 q 664 374 664 292 l 664 911 l 775 911 l 775 376 q 750 192 775 267 q 681 70 725 117 q 578 3 638 24 q 449 -17 518 -17 q 319 3 379 -17 q 215 70 258 24 q 146 192 171 117 q 121 376 121 267 l 121 911 m 500 1319 l 626 1319 l 471 1165 l 376 1165 l 500 1319 m 328 993 q 282 1011 300 993 q 264 1057 264 1029 q 282 1102 264 1085 q 328 1119 300 1119 q 373 1102 356 1119 q 390 1057 390 1085 q 373 1011 390 1029 q 328 993 356 993 m 567 993 q 522 1011 539 993 q 504 1057 504 1029 q 522 1102 504 1085 q 567 1119 539 1119 q 613 1102 594 1119 q 631 1057 631 1085 q 613 1011 631 1029 q 567 993 594 993 z "},"Ǚ":{"ha":896,"x_min":121,"x_max":775,"o":"m 121 911 l 236 911 l 236 374 q 253 236 236 292 q 298 147 269 181 q 365 99 326 114 q 449 85 404 85 q 533 99 494 85 q 601 147 572 114 q 647 236 631 181 q 664 374 664 292 l 664 911 l 775 911 l 775 376 q 750 192 775 267 q 681 70 725 117 q 578 3 638 24 q 449 -17 518 -17 q 319 3 379 -17 q 215 70 258 24 q 146 192 171 117 q 121 376 121 267 l 121 911 m 328 993 q 282 1011 300 993 q 264 1057 264 1029 q 282 1102 264 1085 q 328 1119 300 1119 q 373 1102 356 1119 q 390 1057 390 1085 q 373 1011 390 1029 q 328 993 356 993 m 567 993 q 522 1011 539 993 q 504 1057 504 1029 q 522 1102 504 1085 q 567 1119 539 1119 q 613 1102 594 1119 q 631 1057 631 1085 q 613 1011 631 1029 q 567 993 594 993 m 636 1319 l 503 1165 l 392 1165 l 258 1319 l 351 1319 l 444 1225 l 450 1225 l 543 1319 l 636 1319 z "},"Ǜ":{"ha":896,"x_min":121,"x_max":775,"o":"m 121 911 l 236 911 l 236 374 q 253 236 236 292 q 298 147 269 181 q 365 99 326 114 q 449 85 404 85 q 533 99 494 85 q 601 147 572 114 q 647 236 631 181 q 664 374 664 292 l 664 911 l 775 911 l 775 376 q 750 192 775 267 q 681 70 725 117 q 578 3 638 24 q 449 -17 518 -17 q 319 3 379 -17 q 215 70 258 24 q 146 192 171 117 q 121 376 121 267 l 121 911 m 518 1165 l 424 1165 l 268 1319 l 394 1319 l 518 1165 m 567 993 q 522 1011 539 993 q 504 1057 504 1029 q 522 1102 504 1085 q 567 1119 539 1119 q 613 1102 594 1119 q 631 1057 631 1085 q 613 1011 631 1029 q 567 993 594 993 m 328 993 q 282 1011 300 993 q 264 1057 264 1029 q 282 1102 264 1085 q 328 1119 300 1119 q 373 1102 356 1119 q 390 1057 390 1085 q 373 1011 390 1029 q 328 993 356 993 z "},"Ụ":{"ha":896,"x_min":121,"x_max":775,"o":"m 121 911 l 236 911 l 236 374 q 253 236 236 292 q 298 147 269 181 q 365 99 326 114 q 449 85 404 85 q 533 99 494 85 q 601 147 572 114 q 647 236 631 181 q 664 374 664 292 l 664 911 l 775 911 l 775 376 q 750 192 775 267 q 681 70 725 117 q 578 3 638 24 q 449 -17 518 -17 q 319 3 379 -17 q 215 70 258 24 q 146 192 171 117 q 121 376 121 267 l 121 911 m 447 -286 q 394 -265 415 -286 q 372 -211 372 -244 q 394 -158 372 -179 q 447 -137 415 -137 q 501 -158 479 -137 q 522 -211 522 -179 q 501 -265 522 -244 q 447 -286 479 -286 z "},"Ủ":{"ha":896,"x_min":121,"x_max":775,"o":"m 121 911 l 236 911 l 236 374 q 253 236 236 292 q 298 147 269 181 q 365 99 326 114 q 449 85 404 85 q 533 99 494 85 q 601 147 572 114 q 647 236 631 181 q 664 374 664 292 l 664 911 l 775 911 l 775 376 q 750 192 775 267 q 681 70 725 117 q 578 3 638 24 q 449 -17 518 -17 q 319 3 379 -17 q 215 70 258 24 q 146 192 171 117 q 121 376 121 267 l 121 911 m 396 1022 q 451 1046 429 1032 q 474 1086 474 1060 q 358 1144 474 1140 l 371 1211 q 513 1180 463 1208 q 563 1099 563 1151 q 550 1047 563 1068 q 516 1009 538 1025 q 467 984 494 993 q 408 969 439 975 l 396 1022 z "},"Ų":{"ha":896,"x_min":121,"x_max":775,"o":"m 121 911 l 236 911 l 236 374 q 253 236 236 292 q 298 147 269 181 q 365 99 326 114 q 449 85 404 85 q 533 99 494 85 q 601 147 572 114 q 647 236 631 181 q 664 374 664 292 l 664 911 l 775 911 l 775 376 q 759 222 775 285 q 714 115 743 158 q 644 42 685 71 q 553 -10 603 14 q 471 -75 499 -36 q 443 -149 443 -114 q 464 -197 443 -181 q 510 -212 485 -212 q 565 -193 539 -212 l 597 -256 q 546 -283 578 -271 q 486 -294 514 -294 q 392 -264 431 -294 q 353 -174 353 -233 q 362 -122 353 -144 q 384 -79 371 -99 q 413 -44 397 -60 q 442 -15 429 -28 q 312 8 371 -14 q 210 77 253 31 q 144 197 168 124 q 121 376 121 271 l 121 911 z "},"Ư":{"ha":915,"x_min":121,"x_max":928,"o":"m 896 1101 q 919 1060 911 1082 q 928 1011 928 1038 q 915 951 928 976 q 882 908 903 926 q 833 879 861 890 q 775 861 806 868 l 775 376 q 750 192 775 267 q 681 70 725 117 q 578 3 638 24 q 449 -17 518 -17 q 319 3 379 -17 q 215 70 258 24 q 146 192 171 117 q 121 376 121 267 l 121 911 l 236 911 l 236 374 q 253 236 236 292 q 298 147 269 181 q 365 99 326 114 q 449 85 404 85 q 533 99 494 85 q 601 147 572 114 q 647 236 631 181 q 664 374 664 292 l 664 911 l 710 911 q 801 936 768 917 q 835 1004 835 956 q 829 1033 835 1019 q 814 1061 824 1047 l 896 1101 z "},"Ứ":{"ha":915,"x_min":121,"x_max":928,"o":"m 896 1101 q 919 1060 911 1082 q 928 1011 928 1038 q 915 951 928 976 q 882 908 903 926 q 833 879 861 890 q 775 861 806 868 l 775 376 q 750 192 775 267 q 681 70 725 117 q 578 3 638 24 q 449 -17 518 -17 q 319 3 379 -17 q 215 70 258 24 q 146 192 171 117 q 121 376 121 267 l 121 911 l 236 911 l 236 374 q 253 236 236 292 q 298 147 269 181 q 365 99 326 114 q 449 85 404 85 q 533 99 494 85 q 601 147 572 114 q 647 236 631 181 q 664 374 664 292 l 664 911 l 710 911 q 801 936 768 917 q 835 1004 835 956 q 829 1033 835 1019 q 814 1061 824 1047 l 896 1101 m 472 981 l 376 981 l 499 1136 l 629 1136 l 472 981 z "},"Ừ":{"ha":915,"x_min":121,"x_max":928,"o":"m 896 1101 q 919 1060 911 1082 q 928 1011 928 1038 q 915 951 928 976 q 882 908 903 926 q 833 879 861 890 q 775 861 806 868 l 775 376 q 750 192 775 267 q 681 70 725 117 q 578 3 638 24 q 449 -17 518 -17 q 319 3 379 -17 q 215 70 258 24 q 146 192 171 117 q 121 376 121 267 l 121 911 l 236 911 l 236 374 q 253 236 236 292 q 298 147 269 181 q 365 99 326 114 q 449 85 404 85 q 533 99 494 85 q 601 147 572 114 q 647 236 631 181 q 664 374 664 292 l 664 911 l 710 911 q 801 936 768 917 q 835 1004 835 956 q 829 1033 835 1019 q 814 1061 824 1047 l 896 1101 m 265 1136 l 396 1136 l 518 981 l 422 981 l 265 1136 z "},"Ử":{"ha":915,"x_min":121,"x_max":928,"o":"m 896 1101 q 919 1060 911 1082 q 928 1011 928 1038 q 915 951 928 976 q 882 908 903 926 q 833 879 861 890 q 775 861 806 868 l 775 376 q 750 192 775 267 q 681 70 725 117 q 578 3 638 24 q 449 -17 518 -17 q 319 3 379 -17 q 215 70 258 24 q 146 192 171 117 q 121 376 121 267 l 121 911 l 236 911 l 236 374 q 253 236 236 292 q 298 147 269 181 q 365 99 326 114 q 449 85 404 85 q 533 99 494 85 q 601 147 572 114 q 647 236 631 181 q 664 374 664 292 l 664 911 l 710 911 q 801 936 768 917 q 835 1004 835 956 q 829 1033 835 1019 q 814 1061 824 1047 l 896 1101 m 396 1022 q 451 1046 429 1032 q 474 1086 474 1060 q 358 1144 474 1140 l 371 1211 q 513 1180 463 1208 q 563 1099 563 1151 q 550 1047 563 1068 q 516 1009 538 1025 q 467 984 494 993 q 408 969 439 975 l 396 1022 z "},"Ữ":{"ha":915,"x_min":121,"x_max":928,"o":"m 896 1101 q 919 1060 911 1082 q 928 1011 928 1038 q 915 951 928 976 q 882 908 903 926 q 833 879 861 890 q 775 861 806 868 l 775 376 q 750 192 775 267 q 681 70 725 117 q 578 3 638 24 q 449 -17 518 -17 q 319 3 379 -17 q 215 70 258 24 q 146 192 171 117 q 121 376 121 267 l 121 911 l 236 911 l 236 374 q 253 236 236 292 q 298 147 269 181 q 365 99 326 114 q 449 85 404 85 q 533 99 494 85 q 601 147 572 114 q 647 236 631 181 q 664 374 664 292 l 664 911 l 710 911 q 801 936 768 917 q 835 1004 835 956 q 829 1033 835 1019 q 814 1061 824 1047 l 896 1101 m 531 988 q 481 999 503 988 q 440 1024 458 1010 q 403 1049 421 1038 q 365 1060 385 1060 q 331 1042 346 1060 q 310 988 315 1024 l 246 988 q 283 1095 253 1053 q 364 1138 314 1138 q 414 1126 392 1138 q 455 1101 436 1115 q 492 1076 474 1088 q 529 1065 510 1065 q 564 1084 549 1065 q 585 1138 579 1103 l 649 1138 q 611 1031 642 1074 q 531 988 581 988 z "},"Ự":{"ha":915,"x_min":121,"x_max":928,"o":"m 896 1101 q 919 1060 911 1082 q 928 1011 928 1038 q 915 951 928 976 q 882 908 903 926 q 833 879 861 890 q 775 861 806 868 l 775 376 q 750 192 775 267 q 681 70 725 117 q 578 3 638 24 q 449 -17 518 -17 q 319 3 379 -17 q 215 70 258 24 q 146 192 171 117 q 121 376 121 267 l 121 911 l 236 911 l 236 374 q 253 236 236 292 q 298 147 269 181 q 365 99 326 114 q 449 85 404 85 q 533 99 494 85 q 601 147 572 114 q 647 236 631 181 q 664 374 664 292 l 664 911 l 710 911 q 801 936 768 917 q 835 1004 835 956 q 829 1033 835 1019 q 814 1061 824 1047 l 896 1101 m 447 -286 q 394 -265 415 -286 q 372 -211 372 -244 q 394 -158 372 -179 q 447 -137 415 -137 q 501 -158 479 -137 q 522 -211 522 -179 q 501 -265 522 -244 q 447 -286 479 -286 z "},"Ẁ":{"ha":1092,"x_min":32,"x_max":1058,"o":"m 32 911 l 151 911 l 247 415 q 274 268 260 340 q 300 121 288 196 l 306 121 q 338 269 321 196 q 369 415 354 342 l 496 911 l 601 911 l 728 415 q 761 269 744 343 q 794 121 778 196 l 800 121 q 825 269 813 196 q 851 415 838 342 l 947 911 l 1058 911 l 869 0 l 731 0 l 593 549 q 570 652 581 601 q 549 756 560 703 l 543 756 q 520 652 532 703 q 497 549 508 601 l 363 0 l 225 0 l 32 911 m 364 1136 l 494 1136 l 617 981 l 521 981 l 364 1136 z "},"Ẃ":{"ha":1092,"x_min":32,"x_max":1058,"o":"m 32 911 l 151 911 l 247 415 q 274 268 260 340 q 300 121 288 196 l 306 121 q 338 269 321 196 q 369 415 354 342 l 496 911 l 601 911 l 728 415 q 761 269 744 343 q 794 121 778 196 l 800 121 q 825 269 813 196 q 851 415 838 342 l 947 911 l 1058 911 l 869 0 l 731 0 l 593 549 q 570 652 581 601 q 549 756 560 703 l 543 756 q 520 652 532 703 q 497 549 508 601 l 363 0 l 225 0 l 32 911 m 571 981 l 475 981 l 597 1136 l 728 1136 l 571 981 z "},"Ŵ":{"ha":1092,"x_min":32,"x_max":1058,"o":"m 32 911 l 151 911 l 247 415 q 274 268 260 340 q 300 121 288 196 l 306 121 q 338 269 321 196 q 369 415 354 342 l 496 911 l 601 911 l 728 415 q 761 269 744 343 q 794 121 778 196 l 800 121 q 825 269 813 196 q 851 415 838 342 l 947 911 l 1058 911 l 869 0 l 731 0 l 593 549 q 570 652 581 601 q 549 756 560 703 l 543 756 q 520 652 532 703 q 497 549 508 601 l 363 0 l 225 0 l 32 911 m 357 981 l 490 1136 l 601 1136 l 735 981 l 642 981 l 549 1075 l 543 1075 l 450 981 l 357 981 z "},"Ẅ":{"ha":1092,"x_min":32,"x_max":1058,"o":"m 32 911 l 151 911 l 247 415 q 274 268 260 340 q 300 121 288 196 l 306 121 q 338 269 321 196 q 369 415 354 342 l 496 911 l 601 911 l 728 415 q 761 269 744 343 q 794 121 778 196 l 800 121 q 825 269 813 196 q 851 415 838 342 l 947 911 l 1058 911 l 869 0 l 731 0 l 593 549 q 570 652 581 601 q 549 756 560 703 l 543 756 q 520 652 532 703 q 497 549 508 601 l 363 0 l 225 0 l 32 911 m 426 993 q 377 1013 396 993 q 358 1061 358 1032 q 377 1110 358 1092 q 426 1129 396 1129 q 475 1110 456 1129 q 494 1061 494 1092 q 475 1013 494 1032 q 426 993 456 993 m 665 993 q 617 1013 636 993 q 597 1061 597 1032 q 617 1110 597 1092 q 665 1129 636 1129 q 715 1110 696 1129 q 733 1061 733 1092 q 715 1013 733 1032 q 665 993 696 993 z "},"Ỳ":{"ha":661,"x_min":-1,"x_max":663,"o":"m 272 353 l -1 911 l 122 911 l 240 654 q 283 556 263 604 q 328 456 304 507 l 333 456 q 381 556 357 507 q 425 654 404 604 l 542 911 l 663 911 l 389 353 l 389 0 l 272 0 l 272 353 m 149 1136 l 279 1136 l 401 981 l 306 981 l 149 1136 z "},"Ý":{"ha":661,"x_min":-1,"x_max":663,"o":"m 272 353 l -1 911 l 122 911 l 240 654 q 283 556 263 604 q 328 456 304 507 l 333 456 q 381 556 357 507 q 425 654 404 604 l 542 911 l 663 911 l 389 353 l 389 0 l 272 0 l 272 353 m 356 981 l 260 981 l 382 1136 l 513 1136 l 356 981 z "},"Ŷ":{"ha":661,"x_min":-1,"x_max":663,"o":"m 272 353 l -1 911 l 122 911 l 240 654 q 283 556 263 604 q 328 456 304 507 l 333 456 q 381 556 357 507 q 425 654 404 604 l 542 911 l 663 911 l 389 353 l 389 0 l 272 0 l 272 353 m 142 981 l 275 1136 l 386 1136 l 519 981 l 426 981 l 333 1075 l 328 1075 l 235 981 l 142 981 z "},"Ÿ":{"ha":661,"x_min":-1,"x_max":663,"o":"m 272 353 l -1 911 l 122 911 l 240 654 q 283 556 263 604 q 328 456 304 507 l 333 456 q 381 556 357 507 q 425 654 404 604 l 542 911 l 663 911 l 389 353 l 389 0 l 272 0 l 272 353 m 211 993 q 162 1013 181 993 q 143 1061 143 1032 q 162 1110 143 1092 q 211 1129 181 1129 q 260 1110 240 1129 q 279 1061 279 1092 q 260 1013 279 1032 q 211 993 240 993 m 450 993 q 401 1013 421 993 q 382 1061 382 1032 q 401 1110 382 1092 q 450 1129 421 1129 q 499 1110 481 1129 q 518 1061 518 1092 q 499 1013 518 1032 q 450 993 481 993 z "},"Ẏ":{"ha":661,"x_min":-1,"x_max":663,"o":"m 272 353 l -1 911 l 122 911 l 240 654 q 283 556 263 604 q 328 456 304 507 l 333 456 q 381 556 357 507 q 425 654 404 604 l 542 911 l 663 911 l 389 353 l 389 0 l 272 0 l 272 353 m 331 992 q 274 1013 297 992 q 251 1067 251 1033 q 274 1119 251 1099 q 331 1140 297 1140 q 387 1119 364 1140 q 410 1067 410 1099 q 387 1013 410 1033 q 331 992 364 992 z "},"Ỵ":{"ha":661,"x_min":-1,"x_max":663,"o":"m 272 353 l -1 911 l 122 911 l 240 654 q 283 556 263 604 q 328 456 304 507 l 333 456 q 381 556 357 507 q 425 654 404 604 l 542 911 l 663 911 l 389 353 l 389 0 l 272 0 l 272 353 m 333 -286 q 280 -265 301 -286 q 258 -211 258 -244 q 280 -158 258 -179 q 333 -137 301 -137 q 387 -158 365 -137 q 408 -211 408 -179 q 387 -265 408 -244 q 333 -286 365 -286 z "},"Ỷ":{"ha":661,"x_min":-1,"x_max":663,"o":"m 272 353 l -1 911 l 122 911 l 240 654 q 283 556 263 604 q 328 456 304 507 l 333 456 q 381 556 357 507 q 425 654 404 604 l 542 911 l 663 911 l 389 353 l 389 0 l 272 0 l 272 353 m 279 1022 q 335 1046 313 1032 q 357 1086 357 1060 q 242 1144 357 1140 l 254 1211 q 396 1180 346 1208 q 446 1099 446 1151 q 433 1047 446 1068 q 399 1009 421 1025 q 350 984 378 993 q 292 969 322 975 l 279 1022 z "},"Ỹ":{"ha":661,"x_min":-1,"x_max":663,"o":"m 272 353 l -1 911 l 122 911 l 240 654 q 283 556 263 604 q 328 456 304 507 l 333 456 q 381 556 357 507 q 425 654 404 604 l 542 911 l 663 911 l 389 353 l 389 0 l 272 0 l 272 353 m 414 988 q 364 999 386 988 q 323 1024 342 1010 q 286 1049 304 1038 q 249 1060 268 1060 q 214 1042 229 1060 q 193 988 199 1024 l 129 988 q 167 1095 136 1053 q 247 1138 197 1138 q 297 1126 275 1138 q 338 1101 319 1115 q 375 1076 357 1088 q 413 1065 393 1065 q 447 1084 432 1065 q 468 1138 463 1103 l 532 1138 q 494 1031 525 1074 q 414 988 464 988 z "},"Ź":{"ha":749,"x_min":63,"x_max":690,"o":"m 63 69 l 542 814 l 106 814 l 106 911 l 686 911 l 686 843 l 206 99 l 690 99 l 690 0 l 63 0 l 63 69 m 414 981 l 318 981 l 440 1136 l 571 1136 l 414 981 z "},"Ž":{"ha":749,"x_min":63,"x_max":690,"o":"m 63 69 l 542 814 l 106 814 l 106 911 l 686 911 l 686 843 l 206 99 l 690 99 l 690 0 l 63 0 l 63 69 m 578 1136 l 444 981 l 333 981 l 200 1136 l 293 1136 l 386 1042 l 392 1042 l 485 1136 l 578 1136 z "},"Ż":{"ha":749,"x_min":63,"x_max":690,"o":"m 63 69 l 542 814 l 106 814 l 106 911 l 686 911 l 686 843 l 206 99 l 690 99 l 690 0 l 63 0 l 63 69 m 389 992 q 333 1013 356 992 q 310 1067 310 1033 q 333 1119 310 1099 q 389 1140 356 1140 q 445 1119 422 1140 q 468 1067 468 1099 q 445 1013 468 1033 q 389 992 422 992 z "},"Ẓ":{"ha":749,"x_min":63,"x_max":690,"o":"m 63 69 l 542 814 l 106 814 l 106 911 l 686 911 l 686 843 l 206 99 l 690 99 l 690 0 l 63 0 l 63 69 m 390 -286 q 337 -265 358 -286 q 315 -211 315 -244 q 337 -158 315 -179 q 390 -137 358 -137 q 444 -158 422 -137 q 465 -211 465 -179 q 444 -265 465 -244 q 390 -286 422 -286 z "},"Ð":{"ha":886,"x_min":46,"x_max":814,"o":"m 375 94 q 615 190 535 94 q 694 460 694 286 q 615 725 694 633 q 375 817 535 817 l 271 817 l 271 511 l 478 511 l 478 446 l 271 446 l 271 94 l 375 94 m 383 911 q 704 794 594 911 q 814 460 814 678 q 786 266 814 351 q 704 122 758 181 q 571 31 650 63 q 389 0 492 0 l 156 0 l 156 446 l 46 446 l 46 506 l 156 511 l 156 911 l 383 911 z "},"Þ":{"ha":810,"x_min":125,"x_max":740,"o":"m 125 911 l 240 911 l 240 758 l 404 758 q 542 744 479 758 q 648 699 604 731 q 716 616 692 667 q 740 490 740 565 q 716 365 740 418 q 647 276 692 311 q 541 225 603 242 q 404 208 479 208 l 240 208 l 240 0 l 125 0 l 125 911 m 390 303 q 567 347 510 303 q 625 490 625 392 q 567 626 625 589 q 390 664 508 664 l 240 664 l 240 303 l 390 303 z "},"Ə":{"ha":915,"x_min":81,"x_max":843,"o":"m 199 397 q 223 263 203 322 q 277 163 243 204 q 356 101 311 122 q 456 79 401 79 q 639 164 567 79 q 725 397 711 249 l 199 397 m 174 821 q 295 898 222 868 q 461 928 368 928 q 619 895 549 928 q 740 802 690 863 q 816 655 789 742 q 843 458 843 568 q 815 261 843 349 q 735 112 786 174 q 612 17 683 50 q 456 -17 540 -17 q 301 17 369 -17 q 183 112 232 50 q 107 260 133 174 q 81 451 81 346 q 81 467 81 458 q 83 486 82 476 l 728 486 q 651 740 721 647 q 451 832 581 832 q 326 807 383 832 q 229 742 269 782 l 174 821 z "},"à":{"ha":711,"x_min":81,"x_max":610,"o":"m 81 175 q 180 345 81 286 q 496 428 279 404 q 490 490 496 460 q 467 544 483 521 q 425 583 451 568 q 357 597 399 597 q 247 575 297 597 q 156 525 196 553 l 110 604 q 225 663 157 635 q 375 692 293 692 q 554 616 499 692 q 610 414 610 540 l 610 0 l 515 0 l 506 81 l 503 81 q 398 12 454 40 q 279 -17 342 -17 q 137 33 193 -17 q 81 175 81 83 m 193 183 q 227 100 193 125 q 311 75 261 75 q 403 98 360 75 q 496 165 447 121 l 496 353 q 353 326 411 342 q 259 290 294 311 q 208 242 224 269 q 193 183 193 215 m 219 992 l 339 992 l 464 796 l 376 796 l 219 992 z "},"á":{"ha":711,"x_min":81,"x_max":610,"o":"m 81 175 q 180 345 81 286 q 496 428 279 404 q 490 490 496 460 q 467 544 483 521 q 425 583 451 568 q 357 597 399 597 q 247 575 297 597 q 156 525 196 553 l 110 604 q 225 663 157 635 q 375 692 293 692 q 554 616 499 692 q 610 414 610 540 l 610 0 l 515 0 l 506 81 l 503 81 q 398 12 454 40 q 279 -17 342 -17 q 137 33 193 -17 q 81 175 81 83 m 193 183 q 227 100 193 125 q 311 75 261 75 q 403 98 360 75 q 496 165 447 121 l 496 353 q 353 326 411 342 q 259 290 294 311 q 208 242 224 269 q 193 183 193 215 m 371 796 l 283 796 l 408 992 l 528 992 l 371 796 z "},"â":{"ha":711,"x_min":81,"x_max":610,"o":"m 81 175 q 180 345 81 286 q 496 428 279 404 q 490 490 496 460 q 467 544 483 521 q 425 583 451 568 q 357 597 399 597 q 247 575 297 597 q 156 525 196 553 l 110 604 q 225 663 157 635 q 375 692 293 692 q 554 616 499 692 q 610 414 610 540 l 610 0 l 515 0 l 506 81 l 503 81 q 398 12 454 40 q 279 -17 342 -17 q 137 33 193 -17 q 81 175 81 83 m 193 183 q 227 100 193 125 q 311 75 261 75 q 403 98 360 75 q 496 165 447 121 l 496 353 q 353 326 411 342 q 259 290 294 311 q 208 242 224 269 q 193 183 193 215 m 326 992 l 421 992 l 553 796 l 469 796 l 376 922 l 371 922 l 278 796 l 194 796 l 326 992 z "},"ã":{"ha":711,"x_min":81,"x_max":610,"o":"m 81 175 q 180 345 81 286 q 496 428 279 404 q 490 490 496 460 q 467 544 483 521 q 425 583 451 568 q 357 597 399 597 q 247 575 297 597 q 156 525 196 553 l 110 604 q 225 663 157 635 q 375 692 293 692 q 554 616 499 692 q 610 414 610 540 l 610 0 l 515 0 l 506 81 l 503 81 q 398 12 454 40 q 279 -17 342 -17 q 137 33 193 -17 q 81 175 81 83 m 193 183 q 227 100 193 125 q 311 75 261 75 q 403 98 360 75 q 496 165 447 121 l 496 353 q 353 326 411 342 q 259 290 294 311 q 208 242 224 269 q 193 183 193 215 m 181 804 q 214 909 186 867 q 293 951 242 951 q 342 940 319 951 q 383 916 364 929 q 418 892 401 903 q 451 881 435 881 q 503 951 490 881 l 567 951 q 533 847 561 889 q 454 804 506 804 q 406 815 428 804 q 366 840 385 826 q 331 864 347 853 q 296 875 314 875 q 244 804 257 875 l 181 804 l 181 804 z "},"ä":{"ha":711,"x_min":81,"x_max":610,"o":"m 81 175 q 180 345 81 286 q 496 428 279 404 q 490 490 496 460 q 467 544 483 521 q 425 583 451 568 q 357 597 399 597 q 247 575 297 597 q 156 525 196 553 l 110 604 q 225 663 157 635 q 375 692 293 692 q 554 616 499 692 q 610 414 610 540 l 610 0 l 515 0 l 506 81 l 503 81 q 398 12 454 40 q 279 -17 342 -17 q 137 33 193 -17 q 81 175 81 83 m 193 183 q 227 100 193 125 q 311 75 261 75 q 403 98 360 75 q 496 165 447 121 l 496 353 q 353 326 411 342 q 259 290 294 311 q 208 242 224 269 q 193 183 193 215 m 254 817 q 205 836 224 817 q 186 885 186 856 q 205 933 186 914 q 254 953 224 953 q 303 933 283 953 q 322 885 322 914 q 303 836 322 856 q 254 817 283 817 m 493 817 q 444 836 464 817 q 425 885 425 856 q 444 933 425 914 q 493 953 464 953 q 542 933 524 953 q 561 885 561 914 q 542 836 561 856 q 493 817 524 817 z "},"ā":{"ha":711,"x_min":81,"x_max":610,"o":"m 81 175 q 180 345 81 286 q 496 428 279 404 q 490 490 496 460 q 467 544 483 521 q 425 583 451 568 q 357 597 399 597 q 247 575 297 597 q 156 525 196 553 l 110 604 q 225 663 157 635 q 375 692 293 692 q 554 616 499 692 q 610 414 610 540 l 610 0 l 515 0 l 506 81 l 503 81 q 398 12 454 40 q 279 -17 342 -17 q 137 33 193 -17 q 81 175 81 83 m 193 183 q 227 100 193 125 q 311 75 261 75 q 403 98 360 75 q 496 165 447 121 l 496 353 q 353 326 411 342 q 259 290 294 311 q 208 242 224 269 q 193 183 193 215 m 203 914 l 544 914 l 544 835 l 203 835 l 203 914 z "},"ă":{"ha":711,"x_min":81,"x_max":610,"o":"m 81 175 q 180 345 81 286 q 496 428 279 404 q 490 490 496 460 q 467 544 483 521 q 425 583 451 568 q 357 597 399 597 q 247 575 297 597 q 156 525 196 553 l 110 604 q 225 663 157 635 q 375 692 293 692 q 554 616 499 692 q 610 414 610 540 l 610 0 l 515 0 l 506 81 l 503 81 q 398 12 454 40 q 279 -17 342 -17 q 137 33 193 -17 q 81 175 81 83 m 193 183 q 227 100 193 125 q 311 75 261 75 q 403 98 360 75 q 496 165 447 121 l 496 353 q 353 326 411 342 q 259 290 294 311 q 208 242 224 269 q 193 183 193 215 m 374 799 q 297 815 329 799 q 243 856 264 831 q 211 913 222 882 q 199 975 200 944 l 269 975 q 300 902 275 935 q 374 869 325 869 q 447 902 422 869 q 478 975 472 935 l 549 975 q 535 913 546 944 q 504 856 525 882 q 451 815 483 831 q 374 799 418 799 z "},"å":{"ha":711,"x_min":81,"x_max":610,"o":"m 81 175 q 180 345 81 286 q 496 428 279 404 q 490 490 496 460 q 467 544 483 521 q 425 583 451 568 q 357 597 399 597 q 247 575 297 597 q 156 525 196 553 l 110 604 q 225 663 157 635 q 375 692 293 692 q 554 616 499 692 q 610 414 610 540 l 610 0 l 515 0 l 506 81 l 503 81 q 398 12 454 40 q 279 -17 342 -17 q 137 33 193 -17 q 81 175 81 83 m 193 183 q 227 100 193 125 q 311 75 261 75 q 403 98 360 75 q 496 165 447 121 l 496 353 q 353 326 411 342 q 259 290 294 311 q 208 242 224 269 q 193 183 193 215 m 374 753 q 281 788 317 753 q 244 882 244 824 q 281 975 244 940 q 374 1010 317 1010 q 467 975 431 1010 q 503 882 503 940 q 467 788 503 824 q 374 753 431 753 m 374 804 q 421 825 401 804 q 440 882 440 846 q 421 938 440 917 q 374 958 401 958 q 326 938 346 958 q 307 882 307 917 q 326 825 307 846 q 374 804 346 804 z "},"ǎ":{"ha":711,"x_min":81,"x_max":610,"o":"m 81 175 q 180 345 81 286 q 496 428 279 404 q 490 490 496 460 q 467 544 483 521 q 425 583 451 568 q 357 597 399 597 q 247 575 297 597 q 156 525 196 553 l 110 604 q 225 663 157 635 q 375 692 293 692 q 554 616 499 692 q 610 414 610 540 l 610 0 l 515 0 l 506 81 l 503 81 q 398 12 454 40 q 279 -17 342 -17 q 137 33 193 -17 q 81 175 81 83 m 193 183 q 227 100 193 125 q 311 75 261 75 q 403 98 360 75 q 496 165 447 121 l 496 353 q 353 326 411 342 q 259 290 294 311 q 208 242 224 269 q 193 183 193 215 m 194 992 l 278 992 l 371 864 l 376 864 l 469 992 l 553 992 l 421 796 l 326 796 l 194 992 z "},"ạ":{"ha":711,"x_min":81,"x_max":610,"o":"m 81 175 q 180 345 81 286 q 496 428 279 404 q 490 490 496 460 q 467 544 483 521 q 425 583 451 568 q 357 597 399 597 q 247 575 297 597 q 156 525 196 553 l 110 604 q 225 663 157 635 q 375 692 293 692 q 554 616 499 692 q 610 414 610 540 l 610 0 l 515 0 l 506 81 l 503 81 q 398 12 454 40 q 279 -17 342 -17 q 137 33 193 -17 q 81 175 81 83 m 193 183 q 227 100 193 125 q 311 75 261 75 q 403 98 360 75 q 496 165 447 121 l 496 353 q 353 326 411 342 q 259 290 294 311 q 208 242 224 269 q 193 183 193 215 m 351 -286 q 298 -265 319 -286 q 276 -211 276 -244 q 298 -158 276 -179 q 351 -137 319 -137 q 405 -158 383 -137 q 426 -211 426 -179 q 405 -265 426 -244 q 351 -286 383 -286 z "},"ả":{"ha":711,"x_min":81,"x_max":610,"o":"m 81 175 q 180 345 81 286 q 496 428 279 404 q 490 490 496 460 q 467 544 483 521 q 425 583 451 568 q 357 597 399 597 q 247 575 297 597 q 156 525 196 553 l 110 604 q 225 663 157 635 q 375 692 293 692 q 554 616 499 692 q 610 414 610 540 l 610 0 l 515 0 l 506 81 l 503 81 q 398 12 454 40 q 279 -17 342 -17 q 137 33 193 -17 q 81 175 81 83 m 193 183 q 227 100 193 125 q 311 75 261 75 q 403 98 360 75 q 496 165 447 121 l 496 353 q 353 326 411 342 q 259 290 294 311 q 208 242 224 269 q 193 183 193 215 m 322 821 q 378 844 356 831 q 400 885 400 858 q 285 943 400 939 l 297 1010 q 439 978 389 1007 q 489 897 489 950 q 476 845 489 867 q 442 808 464 824 q 393 783 421 792 q 335 768 365 774 l 322 821 z "},"ấ":{"ha":711,"x_min":81,"x_max":696,"o":"m 81 175 q 180 345 81 286 q 496 428 279 404 q 490 490 496 460 q 467 544 483 521 q 425 583 451 568 q 357 597 399 597 q 247 575 297 597 q 156 525 196 553 l 110 604 q 225 663 157 635 q 375 692 293 692 q 554 616 499 692 q 610 414 610 540 l 610 0 l 515 0 l 506 81 l 503 81 q 398 12 454 40 q 279 -17 342 -17 q 137 33 193 -17 q 81 175 81 83 m 193 183 q 227 100 193 125 q 311 75 261 75 q 403 98 360 75 q 496 165 447 121 l 496 353 q 353 326 411 342 q 259 290 294 311 q 208 242 224 269 q 193 183 193 215 m 326 961 l 421 961 l 535 796 l 457 796 l 376 897 l 371 897 l 290 796 l 213 796 l 326 961 m 599 1047 l 696 1047 l 568 889 l 497 889 l 599 1047 z "},"ầ":{"ha":711,"x_min":81,"x_max":653,"o":"m 81 175 q 180 345 81 286 q 496 428 279 404 q 490 490 496 460 q 467 544 483 521 q 425 583 451 568 q 357 597 399 597 q 247 575 297 597 q 156 525 196 553 l 110 604 q 225 663 157 635 q 375 692 293 692 q 554 616 499 692 q 610 414 610 540 l 610 0 l 515 0 l 506 81 l 503 81 q 398 12 454 40 q 279 -17 342 -17 q 137 33 193 -17 q 81 175 81 83 m 193 183 q 227 100 193 125 q 311 75 261 75 q 403 98 360 75 q 496 165 447 121 l 496 353 q 353 326 411 342 q 259 290 294 311 q 208 242 224 269 q 193 183 193 215 m 326 961 l 421 961 l 535 796 l 457 796 l 376 897 l 371 897 l 290 796 l 213 796 l 326 961 m 653 889 l 582 889 l 454 1047 l 550 1047 l 653 889 z "},"ẩ":{"ha":711,"x_min":81,"x_max":664,"o":"m 81 175 q 180 345 81 286 q 496 428 279 404 q 490 490 496 460 q 467 544 483 521 q 425 583 451 568 q 357 597 399 597 q 247 575 297 597 q 156 525 196 553 l 110 604 q 225 663 157 635 q 375 692 293 692 q 554 616 499 692 q 610 414 610 540 l 610 0 l 515 0 l 506 81 l 503 81 q 398 12 454 40 q 279 -17 342 -17 q 137 33 193 -17 q 81 175 81 83 m 193 183 q 227 100 193 125 q 311 75 261 75 q 403 98 360 75 q 496 165 447 121 l 496 353 q 353 326 411 342 q 259 290 294 311 q 208 242 224 269 q 193 183 193 215 m 326 961 l 421 961 l 535 796 l 457 796 l 376 897 l 371 897 l 290 796 l 213 796 l 326 961 m 522 921 q 565 940 549 928 q 581 975 581 953 q 558 1016 581 1003 q 485 1032 536 1029 l 494 1089 q 620 1061 576 1086 q 664 988 664 1036 q 653 940 664 960 q 624 908 642 921 q 583 886 606 894 q 535 872 560 878 l 522 921 z "},"ẫ":{"ha":711,"x_min":81,"x_max":610,"o":"m 81 175 q 180 345 81 286 q 496 428 279 404 q 490 490 496 460 q 467 544 483 521 q 425 583 451 568 q 357 597 399 597 q 247 575 297 597 q 156 525 196 553 l 110 604 q 225 663 157 635 q 375 692 293 692 q 554 616 499 692 q 610 414 610 540 l 610 0 l 515 0 l 506 81 l 503 81 q 398 12 454 40 q 279 -17 342 -17 q 137 33 193 -17 q 81 175 81 83 m 193 183 q 227 100 193 125 q 311 75 261 75 q 403 98 360 75 q 496 165 447 121 l 496 353 q 353 326 411 342 q 259 290 294 311 q 208 242 224 269 q 193 183 193 215 m 321 938 l 426 938 l 546 793 l 465 793 l 376 883 l 371 883 l 282 793 l 201 793 l 321 938 m 192 988 q 225 1078 197 1043 q 301 1114 253 1114 q 347 1105 328 1114 q 381 1084 365 1096 q 412 1063 397 1072 q 443 1054 426 1054 q 497 1114 488 1054 l 556 1114 q 522 1023 550 1058 q 446 988 494 988 q 401 997 419 988 q 366 1017 382 1006 q 335 1038 350 1029 q 304 1047 321 1047 q 250 988 260 1047 l 192 988 z "},"ậ":{"ha":711,"x_min":81,"x_max":610,"o":"m 81 175 q 180 345 81 286 q 496 428 279 404 q 490 490 496 460 q 467 544 483 521 q 425 583 451 568 q 357 597 399 597 q 247 575 297 597 q 156 525 196 553 l 110 604 q 225 663 157 635 q 375 692 293 692 q 554 616 499 692 q 610 414 610 540 l 610 0 l 515 0 l 506 81 l 503 81 q 398 12 454 40 q 279 -17 342 -17 q 137 33 193 -17 q 81 175 81 83 m 193 183 q 227 100 193 125 q 311 75 261 75 q 403 98 360 75 q 496 165 447 121 l 496 353 q 353 326 411 342 q 259 290 294 311 q 208 242 224 269 q 193 183 193 215 m 326 992 l 421 992 l 553 796 l 469 796 l 376 922 l 371 922 l 278 796 l 194 796 l 326 992 m 351 -286 q 298 -265 319 -286 q 276 -211 276 -244 q 298 -158 276 -179 q 351 -137 319 -137 q 405 -158 383 -137 q 426 -211 426 -179 q 405 -265 426 -244 q 351 -286 383 -286 z "},"ắ":{"ha":711,"x_min":81,"x_max":610,"o":"m 81 175 q 180 345 81 286 q 496 428 279 404 q 490 490 496 460 q 467 544 483 521 q 425 583 451 568 q 357 597 399 597 q 247 575 297 597 q 156 525 196 553 l 110 604 q 225 663 157 635 q 375 692 293 692 q 554 616 499 692 q 610 414 610 540 l 610 0 l 515 0 l 506 81 l 503 81 q 398 12 454 40 q 279 -17 342 -17 q 137 33 193 -17 q 81 175 81 83 m 193 183 q 227 100 193 125 q 311 75 261 75 q 403 98 360 75 q 496 165 447 121 l 496 353 q 353 326 411 342 q 259 290 294 311 q 208 242 224 269 q 193 183 193 215 m 417 1096 l 511 1096 l 389 940 l 322 940 l 417 1096 m 374 799 q 297 815 329 799 q 243 856 264 831 q 211 913 222 882 q 199 975 200 944 l 258 975 q 293 898 265 932 q 374 864 321 864 q 454 898 426 864 q 489 975 482 932 l 549 975 q 535 913 546 944 q 504 856 525 882 q 451 815 483 831 q 374 799 418 799 z "},"ằ":{"ha":711,"x_min":81,"x_max":610,"o":"m 81 175 q 180 345 81 286 q 496 428 279 404 q 490 490 496 460 q 467 544 483 521 q 425 583 451 568 q 357 597 399 597 q 247 575 297 597 q 156 525 196 553 l 110 604 q 225 663 157 635 q 375 692 293 692 q 554 616 499 692 q 610 414 610 540 l 610 0 l 515 0 l 506 81 l 503 81 q 398 12 454 40 q 279 -17 342 -17 q 137 33 193 -17 q 81 175 81 83 m 193 183 q 227 100 193 125 q 311 75 261 75 q 403 98 360 75 q 496 165 447 121 l 496 353 q 353 326 411 342 q 259 290 294 311 q 208 242 224 269 q 193 183 193 215 m 425 940 l 358 940 l 236 1096 l 331 1096 l 425 940 m 374 799 q 297 815 329 799 q 243 856 264 831 q 211 913 222 882 q 199 975 200 944 l 258 975 q 293 898 265 932 q 374 864 321 864 q 454 898 426 864 q 489 975 482 932 l 549 975 q 535 913 546 944 q 504 856 525 882 q 451 815 483 831 q 374 799 418 799 z "},"ẳ":{"ha":711,"x_min":81,"x_max":610,"o":"m 81 175 q 180 345 81 286 q 496 428 279 404 q 490 490 496 460 q 467 544 483 521 q 425 583 451 568 q 357 597 399 597 q 247 575 297 597 q 156 525 196 553 l 110 604 q 225 663 157 635 q 375 692 293 692 q 554 616 499 692 q 610 414 610 540 l 610 0 l 515 0 l 506 81 l 503 81 q 398 12 454 40 q 279 -17 342 -17 q 137 33 193 -17 q 81 175 81 83 m 193 183 q 227 100 193 125 q 311 75 261 75 q 403 98 360 75 q 496 165 447 121 l 496 353 q 353 326 411 342 q 259 290 294 311 q 208 242 224 269 q 193 183 193 215 m 374 799 q 297 815 329 799 q 243 856 264 831 q 211 913 222 882 q 199 975 200 944 l 258 975 q 293 898 265 932 q 374 864 321 864 q 454 898 426 864 q 489 975 482 932 l 549 975 q 535 913 546 944 q 504 856 525 882 q 451 815 483 831 q 374 799 418 799 m 325 997 q 367 1017 350 1004 q 383 1051 383 1029 q 361 1092 383 1079 q 288 1108 339 1106 l 297 1165 q 423 1138 379 1163 q 467 1064 467 1114 q 456 1017 467 1036 q 426 984 444 997 q 385 963 408 971 q 336 949 361 954 l 325 997 z "},"ẵ":{"ha":711,"x_min":81,"x_max":610,"o":"m 81 175 q 180 345 81 286 q 496 428 279 404 q 490 490 496 460 q 467 544 483 521 q 425 583 451 568 q 357 597 399 597 q 247 575 297 597 q 156 525 196 553 l 110 604 q 225 663 157 635 q 375 692 293 692 q 554 616 499 692 q 610 414 610 540 l 610 0 l 515 0 l 506 81 l 503 81 q 398 12 454 40 q 279 -17 342 -17 q 137 33 193 -17 q 81 175 81 83 m 193 183 q 227 100 193 125 q 311 75 261 75 q 403 98 360 75 q 496 165 447 121 l 496 353 q 353 326 411 342 q 259 290 294 311 q 208 242 224 269 q 193 183 193 215 m 374 799 q 297 812 329 799 q 244 846 265 825 q 213 893 224 867 q 200 947 201 919 l 263 947 q 295 888 269 914 q 374 861 321 861 q 452 888 426 861 q 485 947 478 914 l 547 947 q 534 893 544 919 q 503 846 524 867 q 450 812 482 825 q 374 799 418 799 m 192 988 q 225 1078 197 1043 q 301 1114 253 1114 q 347 1105 328 1114 q 381 1084 365 1096 q 412 1063 397 1072 q 443 1054 426 1054 q 497 1114 488 1054 l 556 1114 q 522 1023 550 1058 q 446 988 494 988 q 401 997 419 988 q 366 1017 382 1006 q 335 1038 350 1029 q 304 1047 321 1047 q 250 988 260 1047 l 192 988 z "},"ặ":{"ha":711,"x_min":81,"x_max":610,"o":"m 81 175 q 180 345 81 286 q 496 428 279 404 q 490 490 496 460 q 467 544 483 521 q 425 583 451 568 q 357 597 399 597 q 247 575 297 597 q 156 525 196 553 l 110 604 q 225 663 157 635 q 375 692 293 692 q 554 616 499 692 q 610 414 610 540 l 610 0 l 515 0 l 506 81 l 503 81 q 398 12 454 40 q 279 -17 342 -17 q 137 33 193 -17 q 81 175 81 83 m 193 183 q 227 100 193 125 q 311 75 261 75 q 403 98 360 75 q 496 165 447 121 l 496 353 q 353 326 411 342 q 259 290 294 311 q 208 242 224 269 q 193 183 193 215 m 374 799 q 297 815 329 799 q 243 856 264 831 q 211 913 222 882 q 199 975 200 944 l 269 975 q 300 902 275 935 q 374 869 325 869 q 447 902 422 869 q 478 975 472 935 l 549 975 q 535 913 546 944 q 504 856 525 882 q 451 815 483 831 q 374 799 418 799 m 351 -286 q 298 -265 319 -286 q 276 -211 276 -244 q 298 -158 276 -179 q 351 -137 319 -137 q 405 -158 383 -137 q 426 -211 426 -179 q 405 -265 426 -244 q 351 -286 383 -286 z "},"ą":{"ha":711,"x_min":81,"x_max":639,"o":"m 193 183 q 227 100 193 125 q 311 75 261 75 q 403 98 360 75 q 496 165 447 121 l 496 353 q 353 326 411 342 q 259 290 294 311 q 208 242 224 269 q 193 183 193 215 m 81 175 q 180 345 81 286 q 496 428 279 404 q 490 490 496 460 q 467 544 483 521 q 425 583 451 568 q 357 597 399 597 q 247 575 297 597 q 156 525 196 553 l 110 604 q 225 663 157 635 q 375 692 293 692 q 554 616 499 692 q 610 414 610 540 l 610 0 q 520 -65 551 -24 q 489 -146 489 -106 q 509 -194 489 -178 q 554 -210 529 -210 q 584 -205 571 -210 q 610 -192 597 -200 l 639 -249 q 588 -275 619 -264 q 531 -286 557 -286 q 442 -256 478 -286 q 406 -168 406 -226 q 415 -115 406 -140 q 441 -67 425 -89 q 476 -26 457 -44 q 517 6 496 -7 l 506 81 l 503 81 q 398 12 454 40 q 279 -17 342 -17 q 137 33 193 -17 q 81 175 81 83 z "},"æ":{"ha":1090,"x_min":81,"x_max":1038,"o":"m 193 183 q 227 100 193 125 q 311 75 261 75 q 414 102 358 75 q 515 179 469 129 q 497 242 504 206 q 489 318 490 279 l 489 353 q 352 326 408 342 q 260 290 296 311 q 209 242 225 269 q 193 183 193 215 m 110 604 q 224 663 157 635 q 365 692 290 692 q 489 653 440 692 q 558 549 538 615 q 655 653 599 615 q 781 692 711 692 q 891 669 843 692 q 972 606 939 647 q 1021 505 1004 564 q 1038 374 1038 446 q 1033 310 1038 335 l 596 310 q 615 214 597 257 q 660 140 632 171 q 725 93 688 110 q 806 76 763 76 q 893 92 854 76 q 969 132 932 108 l 1011 53 q 914 4 967 25 q 792 -17 861 -17 q 650 22 707 -17 q 554 110 593 60 q 415 15 485 47 q 279 -17 344 -17 q 137 33 193 -17 q 81 175 81 83 q 179 345 81 286 q 489 428 278 404 q 483 490 489 460 q 462 544 478 521 q 419 583 446 568 q 351 597 393 597 q 246 575 296 597 q 156 525 196 553 l 110 604 m 938 386 q 897 546 938 490 q 778 601 856 601 q 656 544 707 601 q 596 386 606 486 l 938 386 z "},"ç":{"ha":633,"x_min":64,"x_max":600,"o":"m 64 336 q 90 487 64 421 q 161 599 117 553 q 265 668 206 644 q 389 692 324 692 q 503 667 456 692 q 586 611 551 643 l 529 538 q 466 581 499 564 q 393 597 433 597 q 308 578 347 597 q 242 525 269 560 q 198 442 214 490 q 182 336 182 394 q 197 231 182 278 q 240 149 213 183 q 306 97 267 115 q 390 78 344 78 q 478 98 439 78 q 549 146 518 118 l 600 71 q 498 7 554 31 q 381 -17 442 -17 q 256 7 314 -17 q 155 76 197 31 q 88 187 113 121 q 64 336 64 253 m 351 4 l 425 4 l 390 -69 q 448 -103 424 -81 q 472 -168 472 -125 q 456 -221 472 -199 q 411 -258 439 -243 q 347 -283 383 -274 q 271 -296 310 -292 l 260 -239 q 349 -216 315 -232 q 383 -172 383 -200 q 360 -130 383 -144 q 296 -104 338 -115 l 351 4 z "},"ć":{"ha":633,"x_min":64,"x_max":600,"o":"m 64 336 q 90 487 64 421 q 161 599 117 553 q 265 668 206 644 q 389 692 324 692 q 503 667 456 692 q 586 611 551 643 l 529 538 q 466 581 499 564 q 393 597 433 597 q 308 578 347 597 q 242 525 269 560 q 198 442 214 490 q 182 336 182 394 q 197 231 182 278 q 240 149 213 183 q 306 97 267 115 q 390 78 344 78 q 478 98 439 78 q 549 146 518 118 l 600 71 q 498 7 554 31 q 381 -17 442 -17 q 256 7 314 -17 q 155 76 197 31 q 88 187 113 121 q 64 336 64 253 m 385 796 l 297 796 l 422 992 l 542 992 l 385 796 z "},"ĉ":{"ha":633,"x_min":64,"x_max":600,"o":"m 64 336 q 90 487 64 421 q 161 599 117 553 q 265 668 206 644 q 389 692 324 692 q 503 667 456 692 q 586 611 551 643 l 529 538 q 466 581 499 564 q 393 597 433 597 q 308 578 347 597 q 242 525 269 560 q 198 442 214 490 q 182 336 182 394 q 197 231 182 278 q 240 149 213 183 q 306 97 267 115 q 390 78 344 78 q 478 98 439 78 q 549 146 518 118 l 600 71 q 498 7 554 31 q 381 -17 442 -17 q 256 7 314 -17 q 155 76 197 31 q 88 187 113 121 q 64 336 64 253 m 340 992 l 435 992 l 567 796 l 483 796 l 390 922 l 385 922 l 292 796 l 208 796 l 340 992 z "},"č":{"ha":633,"x_min":64,"x_max":600,"o":"m 64 336 q 90 487 64 421 q 161 599 117 553 q 265 668 206 644 q 389 692 324 692 q 503 667 456 692 q 586 611 551 643 l 529 538 q 466 581 499 564 q 393 597 433 597 q 308 578 347 597 q 242 525 269 560 q 198 442 214 490 q 182 336 182 394 q 197 231 182 278 q 240 149 213 183 q 306 97 267 115 q 390 78 344 78 q 478 98 439 78 q 549 146 518 118 l 600 71 q 498 7 554 31 q 381 -17 442 -17 q 256 7 314 -17 q 155 76 197 31 q 88 187 113 121 q 64 336 64 253 m 208 992 l 292 992 l 385 864 l 390 864 l 483 992 l 567 992 l 435 796 l 340 796 l 208 992 z "},"ċ":{"ha":633,"x_min":64,"x_max":600,"o":"m 64 336 q 90 487 64 421 q 161 599 117 553 q 265 668 206 644 q 389 692 324 692 q 503 667 456 692 q 586 611 551 643 l 529 538 q 466 581 499 564 q 393 597 433 597 q 308 578 347 597 q 242 525 269 560 q 198 442 214 490 q 182 336 182 394 q 197 231 182 278 q 240 149 213 183 q 306 97 267 115 q 390 78 344 78 q 478 98 439 78 q 549 146 518 118 l 600 71 q 498 7 554 31 q 381 -17 442 -17 q 256 7 314 -17 q 155 76 197 31 q 88 187 113 121 q 64 336 64 253 m 388 814 q 334 835 356 814 q 313 889 313 856 q 334 942 313 921 q 388 964 356 964 q 441 942 419 964 q 463 889 463 921 q 441 835 463 856 q 388 814 419 814 z "},"ď":{"ha":796,"x_min":65,"x_max":813,"o":"m 65 336 q 90 484 65 418 q 154 596 114 550 q 247 667 194 642 q 358 692 300 692 q 460 671 417 692 q 547 614 503 650 l 542 729 l 542 989 l 657 989 l 657 0 l 563 0 l 553 79 l 549 79 q 456 12 508 40 q 344 -17 404 -17 q 141 75 217 -17 q 65 336 65 167 m 183 338 q 232 147 183 215 q 369 79 281 79 q 458 102 417 79 q 542 172 500 125 l 542 525 q 459 580 499 564 q 378 596 419 596 q 302 577 338 596 q 240 524 267 558 q 199 443 214 490 q 183 338 183 396 m 736 761 l 731 1056 l 813 1056 l 811 976 l 792 761 l 736 761 z "},"ḍ":{"ha":771,"x_min":65,"x_max":657,"o":"m 65 336 q 90 484 65 418 q 154 596 114 550 q 247 667 194 642 q 358 692 300 692 q 460 671 417 692 q 547 614 503 650 l 542 729 l 542 989 l 657 989 l 657 0 l 563 0 l 553 79 l 549 79 q 456 12 508 40 q 344 -17 404 -17 q 141 75 217 -17 q 65 336 65 167 m 183 338 q 232 147 183 215 q 369 79 281 79 q 458 102 417 79 q 542 172 500 125 l 542 525 q 459 580 499 564 q 378 596 419 596 q 302 577 338 596 q 240 524 267 558 q 199 443 214 490 q 183 338 183 396 m 419 -286 q 366 -265 388 -286 q 344 -211 344 -244 q 366 -158 344 -179 q 419 -137 388 -137 q 473 -158 451 -137 q 494 -211 494 -179 q 473 -265 494 -244 q 419 -286 451 -286 z "},"ḏ":{"ha":771,"x_min":65,"x_max":657,"o":"m 65 336 q 90 484 65 418 q 154 596 114 550 q 247 667 194 642 q 358 692 300 692 q 460 671 417 692 q 547 614 503 650 l 542 729 l 542 989 l 657 989 l 657 0 l 563 0 l 553 79 l 549 79 q 456 12 508 40 q 344 -17 404 -17 q 141 75 217 -17 q 65 336 65 167 m 183 338 q 232 147 183 215 q 369 79 281 79 q 458 102 417 79 q 542 172 500 125 l 542 525 q 459 580 499 564 q 378 596 419 596 q 302 577 338 596 q 240 524 267 558 q 199 443 214 490 q 183 338 183 396 m 589 -237 l 246 -237 l 246 -157 l 589 -157 l 589 -237 z "},"đ":{"ha":771,"x_min":65,"x_max":757,"o":"m 542 497 q 459 552 499 536 q 378 568 419 568 q 302 551 338 568 q 240 501 267 533 q 199 423 214 468 q 183 324 183 378 q 232 143 183 207 q 369 79 281 79 q 458 102 417 79 q 542 172 500 125 l 542 497 m 757 800 l 657 793 l 657 0 l 560 0 l 551 76 l 547 76 q 457 10 508 38 q 344 -17 406 -17 q 141 71 217 -17 q 65 322 65 158 q 90 465 65 401 q 154 572 114 528 q 247 640 194 617 q 358 664 300 664 q 460 643 417 664 q 547 586 503 622 l 542 701 l 542 793 l 318 793 l 318 860 l 542 860 l 542 989 l 657 989 l 657 860 l 757 860 l 757 800 z "},"è":{"ha":689,"x_min":64,"x_max":636,"o":"m 64 336 q 90 485 64 419 q 158 597 115 551 q 254 667 200 643 q 367 692 308 692 q 481 669 431 692 q 566 606 532 647 q 618 506 600 564 q 636 375 636 447 q 632 313 636 338 l 176 313 q 244 139 183 203 q 401 75 304 75 q 491 90 450 75 q 569 128 532 104 l 610 53 q 511 4 565 25 q 388 -17 457 -17 q 260 8 319 -17 q 158 77 201 32 q 89 188 114 122 q 64 336 64 253 m 536 388 q 492 547 536 492 q 369 601 449 601 q 301 587 333 601 q 242 545 268 572 q 198 478 215 518 q 175 388 181 439 l 536 388 m 214 992 l 333 992 l 458 796 l 371 796 l 214 992 z "},"é":{"ha":689,"x_min":64,"x_max":636,"o":"m 64 336 q 90 485 64 419 q 158 597 115 551 q 254 667 200 643 q 367 692 308 692 q 481 669 431 692 q 566 606 532 647 q 618 506 600 564 q 636 375 636 447 q 632 313 636 338 l 176 313 q 244 139 183 203 q 401 75 304 75 q 491 90 450 75 q 569 128 532 104 l 610 53 q 511 4 565 25 q 388 -17 457 -17 q 260 8 319 -17 q 158 77 201 32 q 89 188 114 122 q 64 336 64 253 m 536 388 q 492 547 536 492 q 369 601 449 601 q 301 587 333 601 q 242 545 268 572 q 198 478 215 518 q 175 388 181 439 l 536 388 m 365 796 l 278 796 l 403 992 l 522 992 l 365 796 z "},"ê":{"ha":689,"x_min":64,"x_max":636,"o":"m 64 336 q 90 485 64 419 q 158 597 115 551 q 254 667 200 643 q 367 692 308 692 q 481 669 431 692 q 566 606 532 647 q 618 506 600 564 q 636 375 636 447 q 632 313 636 338 l 176 313 q 244 139 183 203 q 401 75 304 75 q 491 90 450 75 q 569 128 532 104 l 610 53 q 511 4 565 25 q 388 -17 457 -17 q 260 8 319 -17 q 158 77 201 32 q 89 188 114 122 q 64 336 64 253 m 536 388 q 492 547 536 492 q 369 601 449 601 q 301 587 333 601 q 242 545 268 572 q 198 478 215 518 q 175 388 181 439 l 536 388 m 321 992 l 415 992 l 547 796 l 464 796 l 371 922 l 365 922 l 272 796 l 189 796 l 321 992 z "},"ě":{"ha":689,"x_min":64,"x_max":636,"o":"m 64 336 q 90 485 64 419 q 158 597 115 551 q 254 667 200 643 q 367 692 308 692 q 481 669 431 692 q 566 606 532 647 q 618 506 600 564 q 636 375 636 447 q 632 313 636 338 l 176 313 q 244 139 183 203 q 401 75 304 75 q 491 90 450 75 q 569 128 532 104 l 610 53 q 511 4 565 25 q 388 -17 457 -17 q 260 8 319 -17 q 158 77 201 32 q 89 188 114 122 q 64 336 64 253 m 536 388 q 492 547 536 492 q 369 601 449 601 q 301 587 333 601 q 242 545 268 572 q 198 478 215 518 q 175 388 181 439 l 536 388 m 189 992 l 272 992 l 365 864 l 371 864 l 464 992 l 547 992 l 415 796 l 321 796 l 189 992 z "},"ë":{"ha":689,"x_min":64,"x_max":636,"o":"m 64 336 q 90 485 64 419 q 158 597 115 551 q 254 667 200 643 q 367 692 308 692 q 481 669 431 692 q 566 606 532 647 q 618 506 600 564 q 636 375 636 447 q 632 313 636 338 l 176 313 q 244 139 183 203 q 401 75 304 75 q 491 90 450 75 q 569 128 532 104 l 610 53 q 511 4 565 25 q 388 -17 457 -17 q 260 8 319 -17 q 158 77 201 32 q 89 188 114 122 q 64 336 64 253 m 536 388 q 492 547 536 492 q 369 601 449 601 q 301 587 333 601 q 242 545 268 572 q 198 478 215 518 q 175 388 181 439 l 536 388 m 249 817 q 199 836 218 817 q 181 885 181 856 q 199 933 181 914 q 249 953 218 953 q 297 933 278 953 q 317 885 317 914 q 297 836 317 856 q 249 817 278 817 m 488 817 q 439 836 458 817 q 419 885 419 856 q 439 933 419 914 q 488 953 458 953 q 537 933 518 953 q 556 885 556 914 q 537 836 556 856 q 488 817 518 817 z "},"ē":{"ha":689,"x_min":64,"x_max":636,"o":"m 64 336 q 90 485 64 419 q 158 597 115 551 q 254 667 200 643 q 367 692 308 692 q 481 669 431 692 q 566 606 532 647 q 618 506 600 564 q 636 375 636 447 q 632 313 636 338 l 176 313 q 244 139 183 203 q 401 75 304 75 q 491 90 450 75 q 569 128 532 104 l 610 53 q 511 4 565 25 q 388 -17 457 -17 q 260 8 319 -17 q 158 77 201 32 q 89 188 114 122 q 64 336 64 253 m 536 388 q 492 547 536 492 q 369 601 449 601 q 301 587 333 601 q 242 545 268 572 q 198 478 215 518 q 175 388 181 439 l 536 388 m 197 914 l 539 914 l 539 835 l 197 835 l 197 914 z "},"ĕ":{"ha":689,"x_min":64,"x_max":636,"o":"m 64 336 q 90 485 64 419 q 158 597 115 551 q 254 667 200 643 q 367 692 308 692 q 481 669 431 692 q 566 606 532 647 q 618 506 600 564 q 636 375 636 447 q 632 313 636 338 l 176 313 q 244 139 183 203 q 401 75 304 75 q 491 90 450 75 q 569 128 532 104 l 610 53 q 511 4 565 25 q 388 -17 457 -17 q 260 8 319 -17 q 158 77 201 32 q 89 188 114 122 q 64 336 64 253 m 536 388 q 492 547 536 492 q 369 601 449 601 q 301 587 333 601 q 242 545 268 572 q 198 478 215 518 q 175 388 181 439 l 536 388 m 368 799 q 291 815 324 799 q 238 856 258 831 q 206 913 217 882 q 193 975 194 944 l 264 975 q 294 902 269 935 q 368 869 319 869 q 442 902 417 869 q 472 975 467 935 l 543 975 q 530 913 540 944 q 499 856 519 882 q 445 815 478 831 q 368 799 413 799 z "},"ė":{"ha":689,"x_min":64,"x_max":636,"o":"m 64 336 q 90 485 64 419 q 158 597 115 551 q 254 667 200 643 q 367 692 308 692 q 481 669 431 692 q 566 606 532 647 q 618 506 600 564 q 636 375 636 447 q 632 313 636 338 l 176 313 q 244 139 183 203 q 401 75 304 75 q 491 90 450 75 q 569 128 532 104 l 610 53 q 511 4 565 25 q 388 -17 457 -17 q 260 8 319 -17 q 158 77 201 32 q 89 188 114 122 q 64 336 64 253 m 536 388 q 492 547 536 492 q 369 601 449 601 q 301 587 333 601 q 242 545 268 572 q 198 478 215 518 q 175 388 181 439 l 536 388 m 368 814 q 315 835 336 814 q 293 889 293 856 q 315 942 293 921 q 368 964 336 964 q 422 942 400 964 q 443 889 443 921 q 422 835 443 856 q 368 814 400 814 z "},"ẹ":{"ha":689,"x_min":64,"x_max":636,"o":"m 64 336 q 90 485 64 419 q 158 597 115 551 q 254 667 200 643 q 367 692 308 692 q 481 669 431 692 q 566 606 532 647 q 618 506 600 564 q 636 375 636 447 q 632 313 636 338 l 176 313 q 244 139 183 203 q 401 75 304 75 q 491 90 450 75 q 569 128 532 104 l 610 53 q 511 4 565 25 q 388 -17 457 -17 q 260 8 319 -17 q 158 77 201 32 q 89 188 114 122 q 64 336 64 253 m 536 388 q 492 547 536 492 q 369 601 449 601 q 301 587 333 601 q 242 545 268 572 q 198 478 215 518 q 175 388 181 439 l 536 388 m 365 -286 q 312 -265 333 -286 q 290 -211 290 -244 q 312 -158 290 -179 q 365 -137 333 -137 q 419 -158 397 -137 q 440 -211 440 -179 q 419 -265 440 -244 q 365 -286 397 -286 z "},"ẻ":{"ha":689,"x_min":64,"x_max":636,"o":"m 64 336 q 90 485 64 419 q 158 597 115 551 q 254 667 200 643 q 367 692 308 692 q 481 669 431 692 q 566 606 532 647 q 618 506 600 564 q 636 375 636 447 q 632 313 636 338 l 176 313 q 244 139 183 203 q 401 75 304 75 q 491 90 450 75 q 569 128 532 104 l 610 53 q 511 4 565 25 q 388 -17 457 -17 q 260 8 319 -17 q 158 77 201 32 q 89 188 114 122 q 64 336 64 253 m 536 388 q 492 547 536 492 q 369 601 449 601 q 301 587 333 601 q 242 545 268 572 q 198 478 215 518 q 175 388 181 439 l 536 388 m 317 821 q 372 844 350 831 q 394 885 394 858 q 279 943 394 939 l 292 1010 q 433 978 383 1007 q 483 897 483 950 q 471 845 483 867 q 437 808 458 824 q 388 783 415 792 q 329 768 360 774 l 317 821 z "},"ẽ":{"ha":689,"x_min":64,"x_max":636,"o":"m 64 336 q 90 485 64 419 q 158 597 115 551 q 254 667 200 643 q 367 692 308 692 q 481 669 431 692 q 566 606 532 647 q 618 506 600 564 q 636 375 636 447 q 632 313 636 338 l 176 313 q 244 139 183 203 q 401 75 304 75 q 491 90 450 75 q 569 128 532 104 l 610 53 q 511 4 565 25 q 388 -17 457 -17 q 260 8 319 -17 q 158 77 201 32 q 89 188 114 122 q 64 336 64 253 m 536 388 q 492 547 536 492 q 369 601 449 601 q 301 587 333 601 q 242 545 268 572 q 198 478 215 518 q 175 388 181 439 l 536 388 m 175 804 q 208 909 181 867 q 288 951 236 951 q 336 940 314 951 q 377 916 358 929 q 413 892 396 903 q 446 881 429 881 q 497 951 485 881 l 561 951 q 528 847 556 889 q 449 804 500 804 q 401 815 422 804 q 360 840 379 826 q 325 864 342 853 q 290 875 308 875 q 239 804 251 875 l 175 804 l 175 804 z "},"ế":{"ha":689,"x_min":64,"x_max":690,"o":"m 64 336 q 90 485 64 419 q 158 597 115 551 q 254 667 200 643 q 367 692 308 692 q 481 669 431 692 q 566 606 532 647 q 618 506 600 564 q 636 375 636 447 q 632 313 636 338 l 176 313 q 244 139 183 203 q 401 75 304 75 q 491 90 450 75 q 569 128 532 104 l 610 53 q 511 4 565 25 q 388 -17 457 -17 q 260 8 319 -17 q 158 77 201 32 q 89 188 114 122 q 64 336 64 253 m 536 388 q 492 547 536 492 q 369 601 449 601 q 301 587 333 601 q 242 545 268 572 q 198 478 215 518 q 175 388 181 439 l 536 388 m 321 961 l 415 961 l 529 796 l 451 796 l 371 897 l 365 897 l 285 796 l 207 796 l 321 961 m 593 1047 l 690 1047 l 563 889 l 492 889 l 593 1047 z "},"ề":{"ha":689,"x_min":64,"x_max":647,"o":"m 64 336 q 90 485 64 419 q 158 597 115 551 q 254 667 200 643 q 367 692 308 692 q 481 669 431 692 q 566 606 532 647 q 618 506 600 564 q 636 375 636 447 q 632 313 636 338 l 176 313 q 244 139 183 203 q 401 75 304 75 q 491 90 450 75 q 569 128 532 104 l 610 53 q 511 4 565 25 q 388 -17 457 -17 q 260 8 319 -17 q 158 77 201 32 q 89 188 114 122 q 64 336 64 253 m 536 388 q 492 547 536 492 q 369 601 449 601 q 301 587 333 601 q 242 545 268 572 q 198 478 215 518 q 175 388 181 439 l 536 388 m 321 961 l 415 961 l 529 796 l 451 796 l 371 897 l 365 897 l 285 796 l 207 796 l 321 961 m 647 889 l 576 889 l 449 1047 l 544 1047 l 647 889 z "},"ể":{"ha":689,"x_min":64,"x_max":658,"o":"m 64 336 q 90 485 64 419 q 158 597 115 551 q 254 667 200 643 q 367 692 308 692 q 481 669 431 692 q 566 606 532 647 q 618 506 600 564 q 636 375 636 447 q 632 313 636 338 l 176 313 q 244 139 183 203 q 401 75 304 75 q 491 90 450 75 q 569 128 532 104 l 610 53 q 511 4 565 25 q 388 -17 457 -17 q 260 8 319 -17 q 158 77 201 32 q 89 188 114 122 q 64 336 64 253 m 536 388 q 492 547 536 492 q 369 601 449 601 q 301 587 333 601 q 242 545 268 572 q 198 478 215 518 q 175 388 181 439 l 536 388 m 321 961 l 415 961 l 529 796 l 451 796 l 371 897 l 365 897 l 285 796 l 207 796 l 321 961 m 517 921 q 559 940 543 928 q 575 975 575 953 q 553 1016 575 1003 q 479 1032 531 1029 l 489 1089 q 615 1061 571 1086 q 658 988 658 1036 q 647 940 658 960 q 618 908 636 921 q 577 886 600 894 q 529 872 554 878 l 517 921 z "},"ễ":{"ha":689,"x_min":64,"x_max":636,"o":"m 64 336 q 90 485 64 419 q 158 597 115 551 q 254 667 200 643 q 367 692 308 692 q 481 669 431 692 q 566 606 532 647 q 618 506 600 564 q 636 375 636 447 q 632 313 636 338 l 176 313 q 244 139 183 203 q 401 75 304 75 q 491 90 450 75 q 569 128 532 104 l 610 53 q 511 4 565 25 q 388 -17 457 -17 q 260 8 319 -17 q 158 77 201 32 q 89 188 114 122 q 64 336 64 253 m 536 388 q 492 547 536 492 q 369 601 449 601 q 301 587 333 601 q 242 545 268 572 q 198 478 215 518 q 175 388 181 439 l 536 388 m 315 938 l 421 938 l 540 793 l 460 793 l 371 883 l 365 883 l 276 793 l 196 793 l 315 938 m 186 988 q 219 1078 192 1043 q 296 1114 247 1114 q 341 1105 322 1114 q 376 1084 360 1096 q 406 1063 392 1072 q 438 1054 421 1054 q 492 1114 482 1054 l 550 1114 q 517 1023 544 1058 q 440 988 489 988 q 395 997 414 988 q 360 1017 376 1006 q 330 1038 344 1029 q 299 1047 315 1047 q 244 988 254 1047 l 186 988 z "},"ệ":{"ha":689,"x_min":64,"x_max":636,"o":"m 64 336 q 90 485 64 419 q 158 597 115 551 q 254 667 200 643 q 367 692 308 692 q 481 669 431 692 q 566 606 532 647 q 618 506 600 564 q 636 375 636 447 q 632 313 636 338 l 176 313 q 244 139 183 203 q 401 75 304 75 q 491 90 450 75 q 569 128 532 104 l 610 53 q 511 4 565 25 q 388 -17 457 -17 q 260 8 319 -17 q 158 77 201 32 q 89 188 114 122 q 64 336 64 253 m 536 388 q 492 547 536 492 q 369 601 449 601 q 301 587 333 601 q 242 545 268 572 q 198 478 215 518 q 175 388 181 439 l 536 388 m 321 992 l 415 992 l 547 796 l 464 796 l 371 922 l 365 922 l 272 796 l 189 796 l 321 992 m 364 -286 q 310 -265 332 -286 q 289 -211 289 -244 q 310 -158 289 -179 q 364 -137 332 -137 q 417 -158 396 -137 q 439 -211 439 -179 q 417 -265 439 -244 q 364 -286 396 -286 z "},"ę":{"ha":689,"x_min":64,"x_max":636,"o":"m 64 336 q 90 485 64 419 q 158 597 115 551 q 254 667 200 643 q 367 692 308 692 q 481 669 431 692 q 566 606 532 647 q 618 506 600 564 q 636 375 636 447 q 632 313 636 338 l 176 313 q 244 139 183 203 q 401 75 304 75 q 491 90 450 75 q 569 128 532 104 l 610 53 q 535 -6 564 21 q 488 -57 506 -33 q 463 -102 469 -81 q 456 -146 456 -124 q 475 -194 456 -178 q 521 -210 494 -210 q 551 -205 538 -210 q 576 -192 564 -200 l 606 -249 q 555 -275 586 -264 q 497 -286 524 -286 q 408 -256 444 -286 q 372 -168 372 -226 q 380 -118 372 -142 q 400 -74 388 -94 q 427 -36 413 -53 q 456 -7 442 -19 q 421 -15 438 -14 q 388 -17 404 -17 q 260 8 319 -17 q 158 77 201 32 q 89 188 114 122 q 64 336 64 253 m 536 388 q 493 547 536 492 q 369 601 450 601 q 301 587 333 601 q 242 545 268 572 q 198 478 215 518 q 175 388 181 439 l 536 388 z "},"ĝ":{"ha":700,"x_min":63,"x_max":683,"o":"m 163 -114 q 215 -200 163 -168 q 358 -232 267 -232 q 447 -220 407 -232 q 514 -190 486 -208 q 557 -146 542 -171 q 572 -94 572 -121 q 538 -29 572 -47 q 436 -11 503 -11 l 319 -11 q 277 -9 300 -11 q 232 0 254 -7 q 179 -56 196 -26 q 163 -114 163 -85 m 63 -129 q 89 -47 63 -86 q 161 24 115 -8 l 161 29 q 119 72 136 44 q 101 139 101 99 q 125 214 101 182 q 175 264 149 246 l 175 269 q 115 344 142 297 q 88 451 88 390 q 108 551 88 507 q 163 627 128 596 q 244 675 197 658 q 342 692 290 692 q 394 687 369 692 q 438 675 418 682 l 672 675 l 672 588 l 533 588 q 573 528 557 564 q 589 449 589 492 q 569 351 589 394 q 517 277 550 307 q 438 231 483 247 q 342 214 393 214 q 290 220 317 214 q 240 238 264 226 q 210 203 222 222 q 197 157 197 185 q 222 104 197 125 q 317 83 247 83 l 447 83 q 624 45 565 83 q 683 -78 683 7 q 660 -167 683 -125 q 592 -242 636 -210 q 484 -292 547 -274 q 342 -311 421 -311 q 228 -299 279 -311 q 140 -264 176 -287 q 83 -207 103 -240 q 63 -129 63 -174 m 342 290 q 397 301 371 290 q 442 333 422 313 q 474 384 463 354 q 485 451 485 414 q 443 567 485 526 q 342 608 401 608 q 240 567 282 608 q 199 451 199 526 q 210 384 199 414 q 241 333 221 354 q 287 301 261 313 q 342 290 313 290 m 285 992 l 379 992 l 511 796 l 428 796 l 335 922 l 329 922 l 236 796 l 153 796 l 285 992 z "},"ğ":{"ha":700,"x_min":63,"x_max":683,"o":"m 163 -114 q 215 -200 163 -168 q 358 -232 267 -232 q 447 -220 407 -232 q 514 -190 486 -208 q 557 -146 542 -171 q 572 -94 572 -121 q 538 -29 572 -47 q 436 -11 503 -11 l 319 -11 q 277 -9 300 -11 q 232 0 254 -7 q 179 -56 196 -26 q 163 -114 163 -85 m 63 -129 q 89 -47 63 -86 q 161 24 115 -8 l 161 29 q 119 72 136 44 q 101 139 101 99 q 125 214 101 182 q 175 264 149 246 l 175 269 q 115 344 142 297 q 88 451 88 390 q 108 551 88 507 q 163 627 128 596 q 244 675 197 658 q 342 692 290 692 q 394 687 369 692 q 438 675 418 682 l 672 675 l 672 588 l 533 588 q 573 528 557 564 q 589 449 589 492 q 569 351 589 394 q 517 277 550 307 q 438 231 483 247 q 342 214 393 214 q 290 220 317 214 q 240 238 264 226 q 210 203 222 222 q 197 157 197 185 q 222 104 197 125 q 317 83 247 83 l 447 83 q 624 45 565 83 q 683 -78 683 7 q 660 -167 683 -125 q 592 -242 636 -210 q 484 -292 547 -274 q 342 -311 421 -311 q 228 -299 279 -311 q 140 -264 176 -287 q 83 -207 103 -240 q 63 -129 63 -174 m 342 290 q 397 301 371 290 q 442 333 422 313 q 474 384 463 354 q 485 451 485 414 q 443 567 485 526 q 342 608 401 608 q 240 567 282 608 q 199 451 199 526 q 210 384 199 414 q 241 333 221 354 q 287 301 261 313 q 342 290 313 290 m 332 799 q 255 815 288 799 q 201 856 222 831 q 169 913 181 882 q 157 975 158 944 l 228 975 q 258 902 233 935 q 332 869 283 869 q 406 902 381 869 q 436 975 431 935 l 507 975 q 494 913 504 944 q 463 856 483 882 q 409 815 442 831 q 332 799 376 799 z "},"ġ":{"ha":700,"x_min":63,"x_max":683,"o":"m 163 -114 q 215 -200 163 -168 q 358 -232 267 -232 q 447 -220 407 -232 q 514 -190 486 -208 q 557 -146 542 -171 q 572 -94 572 -121 q 538 -29 572 -47 q 436 -11 503 -11 l 319 -11 q 277 -9 300 -11 q 232 0 254 -7 q 179 -56 196 -26 q 163 -114 163 -85 m 63 -129 q 89 -47 63 -86 q 161 24 115 -8 l 161 29 q 119 72 136 44 q 101 139 101 99 q 125 214 101 182 q 175 264 149 246 l 175 269 q 115 344 142 297 q 88 451 88 390 q 108 551 88 507 q 163 627 128 596 q 244 675 197 658 q 342 692 290 692 q 394 687 369 692 q 438 675 418 682 l 672 675 l 672 588 l 533 588 q 573 528 557 564 q 589 449 589 492 q 569 351 589 394 q 517 277 550 307 q 438 231 483 247 q 342 214 393 214 q 290 220 317 214 q 240 238 264 226 q 210 203 222 222 q 197 157 197 185 q 222 104 197 125 q 317 83 247 83 l 447 83 q 624 45 565 83 q 683 -78 683 7 q 660 -167 683 -125 q 592 -242 636 -210 q 484 -292 547 -274 q 342 -311 421 -311 q 228 -299 279 -311 q 140 -264 176 -287 q 83 -207 103 -240 q 63 -129 63 -174 m 342 290 q 397 301 371 290 q 442 333 422 313 q 474 384 463 354 q 485 451 485 414 q 443 567 485 526 q 342 608 401 608 q 240 567 282 608 q 199 451 199 526 q 210 384 199 414 q 241 333 221 354 q 287 301 261 313 q 342 290 313 290 m 332 814 q 278 835 300 814 q 257 889 257 856 q 278 942 257 921 q 332 964 300 964 q 385 942 364 964 q 407 889 407 921 q 385 835 407 856 q 332 814 364 814 z "},"ģ":{"ha":700,"x_min":63,"x_max":683,"o":"m 163 -114 q 215 -200 163 -168 q 358 -232 267 -232 q 447 -220 407 -232 q 514 -190 486 -208 q 557 -146 542 -171 q 572 -94 572 -121 q 538 -29 572 -47 q 436 -11 503 -11 l 319 -11 q 277 -9 300 -11 q 232 0 254 -7 q 179 -56 196 -26 q 163 -114 163 -85 m 63 -129 q 89 -47 63 -86 q 161 24 115 -8 l 161 29 q 119 72 136 44 q 101 139 101 99 q 125 214 101 182 q 175 264 149 246 l 175 269 q 115 344 142 297 q 88 451 88 390 q 108 551 88 507 q 163 627 128 596 q 244 675 197 658 q 342 692 290 692 q 394 687 369 692 q 438 675 418 682 l 672 675 l 672 588 l 533 588 q 573 528 557 564 q 589 449 589 492 q 569 351 589 394 q 517 277 550 307 q 438 231 483 247 q 342 214 393 214 q 290 220 317 214 q 240 238 264 226 q 210 203 222 222 q 197 157 197 185 q 222 104 197 125 q 317 83 247 83 l 447 83 q 624 45 565 83 q 683 -78 683 7 q 660 -167 683 -125 q 592 -242 636 -210 q 484 -292 547 -274 q 342 -311 421 -311 q 228 -299 279 -311 q 140 -264 176 -287 q 83 -207 103 -240 q 63 -129 63 -174 m 342 290 q 397 301 371 290 q 442 333 422 313 q 474 384 463 354 q 485 451 485 414 q 443 567 485 526 q 342 608 401 608 q 240 567 282 608 q 199 451 199 526 q 210 384 199 414 q 241 333 221 354 q 287 301 261 313 q 342 290 313 290 m 371 751 q 268 788 300 763 q 236 858 236 813 q 253 911 236 889 q 297 949 269 933 q 361 973 325 964 q 436 986 397 982 l 447 929 q 359 908 393 922 q 325 867 325 893 q 345 825 325 839 q 396 804 365 811 l 371 751 l 371 751 z "},"ǧ":{"ha":700,"x_min":63,"x_max":683,"o":"m 163 -114 q 215 -200 163 -168 q 358 -232 267 -232 q 447 -220 407 -232 q 514 -190 486 -208 q 557 -146 542 -171 q 572 -94 572 -121 q 538 -29 572 -47 q 436 -11 503 -11 l 319 -11 q 277 -9 300 -11 q 232 0 254 -7 q 179 -56 196 -26 q 163 -114 163 -85 m 63 -129 q 89 -47 63 -86 q 161 24 115 -8 l 161 29 q 119 72 136 44 q 101 139 101 99 q 125 214 101 182 q 175 264 149 246 l 175 269 q 115 344 142 297 q 88 451 88 390 q 108 551 88 507 q 163 627 128 596 q 244 675 197 658 q 342 692 290 692 q 394 687 369 692 q 438 675 418 682 l 672 675 l 672 588 l 533 588 q 573 528 557 564 q 589 449 589 492 q 569 351 589 394 q 517 277 550 307 q 438 231 483 247 q 342 214 393 214 q 290 220 317 214 q 240 238 264 226 q 210 203 222 222 q 197 157 197 185 q 222 104 197 125 q 317 83 247 83 l 447 83 q 624 45 565 83 q 683 -78 683 7 q 660 -167 683 -125 q 592 -242 636 -210 q 484 -292 547 -274 q 342 -311 421 -311 q 228 -299 279 -311 q 140 -264 176 -287 q 83 -207 103 -240 q 63 -129 63 -174 m 342 290 q 397 301 371 290 q 442 333 422 313 q 474 384 463 354 q 485 451 485 414 q 443 567 485 526 q 342 608 401 608 q 240 567 282 608 q 199 451 199 526 q 210 384 199 414 q 241 333 221 354 q 287 301 261 313 q 342 290 313 290 m 153 992 l 236 992 l 329 864 l 335 864 l 428 992 l 511 992 l 379 796 l 285 796 l 153 992 z "},"ḡ":{"ha":700,"x_min":63,"x_max":683,"o":"m 163 -114 q 215 -200 163 -168 q 358 -232 267 -232 q 447 -220 407 -232 q 514 -190 486 -208 q 557 -146 542 -171 q 572 -94 572 -121 q 538 -29 572 -47 q 436 -11 503 -11 l 319 -11 q 277 -9 300 -11 q 232 0 254 -7 q 179 -56 196 -26 q 163 -114 163 -85 m 63 -129 q 89 -47 63 -86 q 161 24 115 -8 l 161 29 q 119 72 136 44 q 101 139 101 99 q 125 214 101 182 q 175 264 149 246 l 175 269 q 115 344 142 297 q 88 451 88 390 q 108 551 88 507 q 163 627 128 596 q 244 675 197 658 q 342 692 290 692 q 394 687 369 692 q 438 675 418 682 l 672 675 l 672 588 l 533 588 q 573 528 557 564 q 589 449 589 492 q 569 351 589 394 q 517 277 550 307 q 438 231 483 247 q 342 214 393 214 q 290 220 317 214 q 240 238 264 226 q 210 203 222 222 q 197 157 197 185 q 222 104 197 125 q 317 83 247 83 l 447 83 q 624 45 565 83 q 683 -78 683 7 q 660 -167 683 -125 q 592 -242 636 -210 q 484 -292 547 -274 q 342 -311 421 -311 q 228 -299 279 -311 q 140 -264 176 -287 q 83 -207 103 -240 q 63 -129 63 -174 m 342 290 q 397 301 371 290 q 442 333 422 313 q 474 384 463 354 q 485 451 485 414 q 443 567 485 526 q 342 608 401 608 q 240 567 282 608 q 199 451 199 526 q 210 384 199 414 q 241 333 221 354 q 287 301 261 313 q 342 290 313 290 m 161 914 l 503 914 l 503 835 l 161 835 l 161 914 z "},"ĥ":{"ha":756,"x_min":-17,"x_max":654,"o":"m 114 989 l 228 989 l 228 719 l 224 581 q 325 659 272 626 q 449 692 378 692 q 605 625 556 692 q 654 428 654 558 l 654 0 l 540 0 l 540 413 q 510 551 540 508 q 413 593 479 593 q 319 567 360 593 q 228 489 279 540 l 228 0 l 114 0 l 114 989 m -17 1039 l 117 1194 l 228 1194 l 361 1039 l 268 1039 l 175 1133 l 169 1133 l 76 1039 l -17 1039 z "},"ḥ":{"ha":756,"x_min":114,"x_max":654,"o":"m 114 989 l 228 989 l 228 719 l 224 581 q 325 659 272 626 q 449 692 378 692 q 605 625 556 692 q 654 428 654 558 l 654 0 l 540 0 l 540 413 q 510 551 540 508 q 413 593 479 593 q 319 567 360 593 q 228 489 279 540 l 228 0 l 114 0 l 114 989 m 397 -286 q 344 -265 365 -286 q 322 -211 322 -244 q 344 -158 322 -179 q 397 -137 365 -137 q 451 -158 429 -137 q 472 -211 472 -179 q 451 -265 472 -244 q 397 -286 429 -286 z "},"ḫ":{"ha":756,"x_min":114,"x_max":654,"o":"m 114 989 l 228 989 l 228 719 l 224 581 q 325 659 272 626 q 449 692 378 692 q 605 625 556 692 q 654 428 654 558 l 654 0 l 540 0 l 540 413 q 510 551 540 508 q 413 593 479 593 q 319 567 360 593 q 228 489 279 540 l 228 0 l 114 0 l 114 989 m 396 -286 q 319 -270 351 -286 q 265 -228 286 -254 q 233 -172 244 -203 q 221 -110 222 -140 l 292 -110 q 322 -183 297 -150 q 396 -215 347 -215 q 469 -183 444 -215 q 500 -110 494 -150 l 571 -110 q 558 -172 568 -140 q 526 -228 547 -203 q 473 -270 506 -254 q 396 -286 440 -286 z "},"ħ":{"ha":756,"x_min":11,"x_max":654,"o":"m 224 553 q 325 631 272 599 q 449 664 378 664 q 605 597 556 664 q 654 400 654 531 l 654 0 l 540 0 l 540 385 q 510 523 540 481 q 413 565 479 565 q 319 539 360 565 q 228 461 279 513 l 228 0 l 114 0 l 114 793 l 11 793 l 11 853 l 114 860 l 114 989 l 228 989 l 228 860 l 481 860 l 481 793 l 228 793 l 228 692 l 224 553 z "},"ì":{"ha":342,"x_min":17,"x_max":261,"o":"m 114 675 l 228 675 l 228 0 l 114 0 l 114 675 m 17 992 l 136 992 l 261 796 l 174 796 l 17 992 z "},"í":{"ha":342,"x_min":81,"x_max":325,"o":"m 114 675 l 228 675 l 228 0 l 114 0 l 114 675 m 168 796 l 81 796 l 206 992 l 325 992 l 168 796 z "},"î":{"ha":342,"x_min":-8,"x_max":350,"o":"m 114 675 l 228 675 l 228 0 l 114 0 l 114 675 m 124 992 l 218 992 l 350 796 l 267 796 l 174 922 l 168 922 l 75 796 l -8 796 l 124 992 z "},"ĩ":{"ha":342,"x_min":-22,"x_max":364,"o":"m 114 675 l 228 675 l 228 0 l 114 0 l 114 675 m -22 804 q 11 909 -17 867 q 90 951 39 951 q 139 940 117 951 q 180 916 161 929 q 215 892 199 903 q 249 881 232 881 q 300 951 288 881 l 364 951 q 331 847 358 889 q 251 804 303 804 q 203 815 225 804 q 163 840 182 826 q 128 864 144 853 q 93 875 111 875 q 42 804 54 875 l -22 804 l -22 804 z "},"ï":{"ha":342,"x_min":-17,"x_max":358,"o":"m 114 675 l 228 675 l 228 0 l 114 0 l 114 675 m 51 817 q 2 836 21 817 q -17 885 -17 856 q 2 933 -17 914 q 51 953 21 953 q 100 933 81 953 q 119 885 119 914 q 100 836 119 856 q 51 817 81 817 m 290 817 q 242 836 261 817 q 222 885 222 856 q 242 933 222 914 q 290 953 261 953 q 340 933 321 953 q 358 885 358 914 q 340 836 358 856 q 290 817 321 817 z "},"ī":{"ha":342,"x_min":0,"x_max":342,"o":"m 114 675 l 228 675 l 228 0 l 114 0 l 114 675 m 0 914 l 342 914 l 342 835 l 0 835 l 0 914 z "},"ǐ":{"ha":342,"x_min":-8,"x_max":350,"o":"m 114 675 l 228 675 l 228 0 l 114 0 l 114 675 m -8 992 l 75 992 l 168 864 l 174 864 l 267 992 l 350 992 l 218 796 l 124 796 l -8 992 z "},"ỉ":{"ha":342,"x_min":82,"x_max":286,"o":"m 114 675 l 228 675 l 228 0 l 114 0 l 114 675 m 119 821 q 175 844 153 831 q 197 885 197 858 q 82 943 197 939 l 94 1010 q 236 978 186 1007 q 286 897 286 950 q 274 845 286 867 q 240 808 261 824 q 190 783 218 792 q 132 768 163 774 l 119 821 z "},"ị":{"ha":342,"x_min":93,"x_max":251,"o":"m 172 814 q 116 835 139 814 q 93 888 93 856 q 116 941 93 921 q 172 961 139 961 q 228 941 206 961 q 251 888 251 921 q 228 835 251 856 q 172 814 206 814 m 114 675 l 228 675 l 228 0 l 114 0 l 114 675 m 172 -286 q 119 -265 140 -286 q 97 -211 97 -244 q 119 -158 97 -179 q 172 -137 140 -137 q 226 -158 204 -137 q 247 -211 247 -179 q 226 -265 247 -244 q 172 -286 204 -286 z "},"į":{"ha":342,"x_min":53,"x_max":288,"o":"m 114 675 l 228 675 l 228 0 q 162 -68 186 -31 q 138 -146 138 -106 q 157 -194 138 -178 q 203 -210 176 -210 q 231 -205 218 -210 q 258 -192 244 -200 l 288 -249 q 237 -275 268 -264 q 179 -286 206 -286 q 90 -256 126 -286 q 53 -168 53 -226 q 83 -71 53 -112 q 142 0 113 -29 l 114 0 l 114 675 m 171 814 q 115 835 138 814 q 92 888 92 856 q 115 941 92 921 q 171 961 138 961 q 226 941 203 961 q 249 888 249 921 q 226 835 249 856 q 171 814 203 814 z "},"ı":{"ha":342,"x_min":114,"x_max":228,"o":"m 114 675 l 228 675 l 228 0 l 114 0 l 114 675 z "},"ĵ":{"ha":343,"x_min":-56,"x_max":350,"o":"m 115 675 l 229 675 l 229 -76 q 188 -240 229 -179 q 44 -301 146 -301 q -12 -296 13 -301 q -56 -283 -37 -290 l -32 -197 q -3 -205 -19 -201 q 32 -208 14 -208 q 99 -174 82 -208 q 115 -76 115 -139 l 115 675 m 124 992 l 218 992 l 350 796 l 267 796 l 174 922 l 168 922 l 75 796 l -8 796 l 124 992 z "},"ķ":{"ha":688,"x_min":114,"x_max":675,"o":"m 114 989 l 226 989 l 226 319 l 231 319 l 518 675 l 644 675 l 418 404 l 675 0 l 550 0 l 353 325 l 226 178 l 226 0 l 114 0 l 114 989 m 336 -67 q 439 -102 407 -78 q 471 -174 471 -126 q 454 -226 471 -204 q 410 -264 438 -249 q 345 -288 382 -279 q 269 -300 308 -297 l 258 -244 q 348 -223 314 -237 q 382 -181 382 -208 q 361 -140 382 -153 q 311 -119 340 -126 l 336 -67 l 336 -67 z "},"ĸ":{"ha":688,"x_min":114,"x_max":675,"o":"m 114 675 l 228 675 l 228 317 l 232 317 l 518 675 l 644 675 l 421 404 l 675 0 l 550 0 l 353 321 l 228 174 l 228 0 l 114 0 l 114 675 z "},"ĺ":{"ha":354,"x_min":94,"x_max":347,"o":"m 114 989 l 228 989 l 228 128 q 238 89 228 100 q 260 78 247 78 q 270 78 265 78 q 285 81 275 78 l 300 -6 q 274 -14 289 -11 q 235 -17 258 -17 q 142 22 169 -17 q 114 136 114 61 l 114 989 m 190 1053 l 94 1053 l 217 1208 l 347 1208 l 190 1053 z "},"ľ":{"ha":367,"x_min":114,"x_max":383,"o":"m 114 989 l 228 989 l 228 128 q 238 89 228 100 q 260 78 247 78 q 270 78 265 78 q 285 81 275 78 l 300 -6 q 274 -14 289 -11 q 235 -17 258 -17 q 142 22 169 -17 q 114 136 114 61 l 114 989 m 307 761 l 301 1056 l 383 1056 l 382 976 l 363 761 l 307 761 z "},"ŀ":{"ha":503,"x_min":114,"x_max":504,"o":"m 114 989 l 228 989 l 228 128 q 238 89 228 100 q 260 78 247 78 q 270 78 265 78 q 285 81 275 78 l 300 -6 q 274 -14 289 -11 q 235 -17 258 -17 q 142 22 169 -17 q 114 136 114 61 l 114 989 m 339 451 q 363 516 339 492 q 422 540 388 540 q 480 516 456 540 q 504 451 504 492 q 480 390 504 414 q 422 365 456 365 q 363 390 388 365 q 339 451 339 414 z "},"ļ":{"ha":354,"x_min":114,"x_max":331,"o":"m 114 989 l 228 989 l 228 128 q 238 89 228 100 q 260 78 247 78 q 270 78 265 78 q 285 81 275 78 l 300 -6 q 274 -14 289 -11 q 235 -17 258 -17 q 142 22 169 -17 q 114 136 114 61 l 114 989 m 196 -67 q 299 -102 267 -78 q 331 -174 331 -126 q 314 -226 331 -204 q 269 -264 297 -249 q 205 -288 242 -279 q 129 -300 168 -297 l 118 -244 q 208 -223 174 -237 q 242 -181 242 -208 q 221 -140 242 -153 q 171 -119 200 -126 l 196 -67 l 196 -67 z "},"ḷ":{"ha":354,"x_min":114,"x_max":311,"o":"m 114 989 l 228 989 l 228 128 q 238 89 228 100 q 260 78 247 78 q 270 78 265 78 q 285 81 275 78 l 300 -6 q 274 -14 289 -11 q 235 -17 258 -17 q 142 22 169 -17 q 114 136 114 61 l 114 989 m 236 -286 q 183 -265 204 -286 q 161 -211 161 -244 q 183 -158 161 -179 q 236 -137 204 -137 q 290 -158 268 -137 q 311 -211 311 -179 q 290 -265 311 -244 q 236 -286 268 -286 z "},"ḹ":{"ha":354,"x_min":-1,"x_max":340,"o":"m 114 989 l 228 989 l 228 128 q 238 89 228 100 q 260 78 247 78 q 270 78 265 78 q 285 81 275 78 l 300 -6 q 274 -14 289 -11 q 235 -17 258 -17 q 142 22 169 -17 q 114 136 114 61 l 114 989 m -1 1221 l 340 1221 l 340 1142 l -1 1142 l -1 1221 m 236 -286 q 183 -265 204 -286 q 161 -211 161 -244 q 183 -158 161 -179 q 236 -137 204 -137 q 290 -158 268 -137 q 311 -211 311 -179 q 290 -265 311 -244 q 236 -286 268 -286 z "},"ḻ":{"ha":354,"x_min":64,"x_max":407,"o":"m 114 989 l 228 989 l 228 128 q 238 89 228 100 q 260 78 247 78 q 270 78 265 78 q 285 81 275 78 l 300 -6 q 274 -14 289 -11 q 235 -17 258 -17 q 142 22 169 -17 q 114 136 114 61 l 114 989 m 407 -237 l 64 -237 l 64 -157 l 407 -157 l 407 -237 z "},"ł":{"ha":364,"x_min":32,"x_max":332,"o":"m 235 519 l 235 128 q 244 89 235 100 q 267 78 254 78 q 276 78 271 78 q 292 81 281 78 l 307 -6 q 279 -14 294 -11 q 240 -17 264 -17 q 148 22 176 -17 q 119 136 119 61 l 119 460 l 32 404 l 32 501 l 119 557 l 119 989 l 235 989 l 235 617 l 332 679 l 332 582 l 235 519 z "},"ṃ":{"ha":1151,"x_min":114,"x_max":1046,"o":"m 114 675 l 208 675 l 218 578 l 222 578 q 319 659 267 626 q 432 692 371 692 q 553 658 510 692 q 618 563 597 624 q 724 656 671 621 q 840 692 778 692 q 995 625 944 692 q 1046 428 1046 558 l 1046 0 l 932 0 l 932 413 q 901 551 932 508 q 807 593 871 593 q 638 489 731 593 l 638 0 l 524 0 l 524 413 q 493 551 524 508 q 397 593 463 593 q 228 489 321 593 l 228 0 l 114 0 l 114 675 m 592 -286 q 538 -265 560 -286 q 517 -211 517 -244 q 538 -158 517 -179 q 592 -137 560 -137 q 645 -158 624 -137 q 667 -211 667 -179 q 645 -265 667 -244 q 592 -286 624 -286 z "},"ń":{"ha":760,"x_min":114,"x_max":654,"o":"m 114 675 l 208 675 l 218 578 l 222 578 q 324 659 271 626 q 449 692 378 692 q 605 625 556 692 q 654 428 654 558 l 654 0 l 540 0 l 540 413 q 510 551 540 508 q 413 593 479 593 q 319 567 360 593 q 228 489 279 540 l 228 0 l 114 0 l 114 675 m 403 796 l 315 796 l 440 992 l 560 992 l 403 796 z "},"ň":{"ha":760,"x_min":114,"x_max":654,"o":"m 114 675 l 208 675 l 218 578 l 222 578 q 324 659 271 626 q 449 692 378 692 q 605 625 556 692 q 654 428 654 558 l 654 0 l 540 0 l 540 413 q 510 551 540 508 q 413 593 479 593 q 319 567 360 593 q 228 489 279 540 l 228 0 l 114 0 l 114 675 m 226 992 l 310 992 l 403 864 l 408 864 l 501 992 l 585 992 l 453 796 l 358 796 l 226 992 z "},"ñ":{"ha":760,"x_min":114,"x_max":654,"o":"m 114 675 l 208 675 l 218 578 l 222 578 q 324 659 271 626 q 449 692 378 692 q 605 625 556 692 q 654 428 654 558 l 654 0 l 540 0 l 540 413 q 510 551 540 508 q 413 593 479 593 q 319 567 360 593 q 228 489 279 540 l 228 0 l 114 0 l 114 675 m 213 804 q 246 909 218 867 q 325 951 274 951 q 374 940 351 951 q 415 916 396 929 q 450 892 433 903 q 483 881 467 881 q 535 951 522 881 l 599 951 q 565 847 593 889 q 486 804 538 804 q 438 815 460 804 q 398 840 417 826 q 363 864 379 853 q 328 875 346 875 q 276 804 289 875 l 213 804 l 213 804 z "},"ņ":{"ha":760,"x_min":114,"x_max":654,"o":"m 114 675 l 208 675 l 218 578 l 222 578 q 324 659 271 626 q 449 692 378 692 q 605 625 556 692 q 654 428 654 558 l 654 0 l 540 0 l 540 413 q 510 551 540 508 q 413 593 479 593 q 319 567 360 593 q 228 489 279 540 l 228 0 l 114 0 l 114 675 m 347 -67 q 450 -102 418 -78 q 482 -174 482 -126 q 465 -226 482 -204 q 421 -264 449 -249 q 356 -288 393 -279 q 281 -300 319 -297 l 269 -244 q 359 -223 325 -237 q 393 -181 393 -208 q 372 -140 393 -153 q 322 -119 351 -126 l 347 -67 l 347 -67 z "},"ṅ":{"ha":760,"x_min":114,"x_max":654,"o":"m 114 675 l 208 675 l 218 578 l 222 578 q 324 659 271 626 q 449 692 378 692 q 605 625 556 692 q 654 428 654 558 l 654 0 l 540 0 l 540 413 q 510 551 540 508 q 413 593 479 593 q 319 567 360 593 q 228 489 279 540 l 228 0 l 114 0 l 114 675 m 406 814 q 352 835 374 814 q 331 889 331 856 q 352 942 331 921 q 406 964 374 964 q 459 942 438 964 q 481 889 481 921 q 459 835 481 856 q 406 814 438 814 z "},"ṇ":{"ha":760,"x_min":114,"x_max":654,"o":"m 114 675 l 208 675 l 218 578 l 222 578 q 324 659 271 626 q 449 692 378 692 q 605 625 556 692 q 654 428 654 558 l 654 0 l 540 0 l 540 413 q 510 551 540 508 q 413 593 479 593 q 319 567 360 593 q 228 489 279 540 l 228 0 l 114 0 l 114 675 m 388 -286 q 334 -265 356 -286 q 313 -211 313 -244 q 334 -158 313 -179 q 388 -137 356 -137 q 441 -158 419 -137 q 463 -211 463 -179 q 441 -265 463 -244 q 388 -286 419 -286 z "},"ṉ":{"ha":760,"x_min":114,"x_max":654,"o":"m 114 675 l 208 675 l 218 578 l 222 578 q 324 659 271 626 q 449 692 378 692 q 605 625 556 692 q 654 428 654 558 l 654 0 l 540 0 l 540 413 q 510 551 540 508 q 413 593 479 593 q 319 567 360 593 q 228 489 279 540 l 228 0 l 114 0 l 114 675 m 558 -237 l 215 -237 l 215 -157 l 558 -157 l 558 -237 z "},"ŉ":{"ha":1076,"x_min":88,"x_max":963,"o":"m 88 651 q 166 725 140 686 q 192 825 192 764 q 181 824 188 824 q 129 842 151 824 q 107 893 107 860 q 128 950 107 929 q 181 971 149 971 q 244 938 221 971 q 268 844 268 906 q 230 701 268 761 q 119 599 192 640 l 88 651 m 422 675 l 517 675 l 526 578 l 531 578 q 633 659 579 626 q 757 692 686 692 q 913 625 864 692 q 963 428 963 558 l 963 0 l 849 0 l 849 413 q 818 551 849 508 q 721 593 788 593 q 628 567 668 593 q 536 489 588 540 l 536 0 l 422 0 l 422 675 z "},"ò":{"ha":753,"x_min":64,"x_max":689,"o":"m 64 336 q 90 487 64 421 q 158 599 115 553 q 258 668 201 644 q 376 692 314 692 q 495 668 439 692 q 594 599 551 644 q 663 487 638 553 q 689 336 689 421 q 663 187 689 253 q 594 76 638 121 q 495 7 551 31 q 376 -17 439 -17 q 258 7 314 -17 q 158 76 201 31 q 90 187 115 121 q 64 336 64 253 m 182 336 q 196 231 182 278 q 235 149 210 183 q 297 97 261 115 q 376 78 333 78 q 456 97 419 78 q 517 149 492 115 q 557 231 543 183 q 571 336 571 278 q 557 442 571 394 q 517 525 543 490 q 456 578 492 560 q 376 597 419 597 q 297 578 333 597 q 235 525 261 560 q 196 442 210 490 q 182 336 182 394 m 222 992 l 342 992 l 467 796 l 379 796 l 222 992 z "},"ó":{"ha":753,"x_min":64,"x_max":689,"o":"m 64 336 q 90 487 64 421 q 158 599 115 553 q 258 668 201 644 q 376 692 314 692 q 495 668 439 692 q 594 599 551 644 q 663 487 638 553 q 689 336 689 421 q 663 187 689 253 q 594 76 638 121 q 495 7 551 31 q 376 -17 439 -17 q 258 7 314 -17 q 158 76 201 31 q 90 187 115 121 q 64 336 64 253 m 182 336 q 196 231 182 278 q 235 149 210 183 q 297 97 261 115 q 376 78 333 78 q 456 97 419 78 q 517 149 492 115 q 557 231 543 183 q 571 336 571 278 q 557 442 571 394 q 517 525 543 490 q 456 578 492 560 q 376 597 419 597 q 297 578 333 597 q 235 525 261 560 q 196 442 210 490 q 182 336 182 394 m 374 796 l 286 796 l 411 992 l 531 992 l 374 796 z "},"ô":{"ha":753,"x_min":64,"x_max":689,"o":"m 64 336 q 90 487 64 421 q 158 599 115 553 q 258 668 201 644 q 376 692 314 692 q 495 668 439 692 q 594 599 551 644 q 663 487 638 553 q 689 336 689 421 q 663 187 689 253 q 594 76 638 121 q 495 7 551 31 q 376 -17 439 -17 q 258 7 314 -17 q 158 76 201 31 q 90 187 115 121 q 64 336 64 253 m 182 336 q 196 231 182 278 q 235 149 210 183 q 297 97 261 115 q 376 78 333 78 q 456 97 419 78 q 517 149 492 115 q 557 231 543 183 q 571 336 571 278 q 557 442 571 394 q 517 525 543 490 q 456 578 492 560 q 376 597 419 597 q 297 578 333 597 q 235 525 261 560 q 196 442 210 490 q 182 336 182 394 m 329 992 l 424 992 l 556 796 l 472 796 l 379 922 l 374 922 l 281 796 l 197 796 l 329 992 z "},"õ":{"ha":753,"x_min":64,"x_max":689,"o":"m 64 336 q 90 487 64 421 q 158 599 115 553 q 258 668 201 644 q 376 692 314 692 q 495 668 439 692 q 594 599 551 644 q 663 487 638 553 q 689 336 689 421 q 663 187 689 253 q 594 76 638 121 q 495 7 551 31 q 376 -17 439 -17 q 258 7 314 -17 q 158 76 201 31 q 90 187 115 121 q 64 336 64 253 m 182 336 q 196 231 182 278 q 235 149 210 183 q 297 97 261 115 q 376 78 333 78 q 456 97 419 78 q 517 149 492 115 q 557 231 543 183 q 571 336 571 278 q 557 442 571 394 q 517 525 543 490 q 456 578 492 560 q 376 597 419 597 q 297 578 333 597 q 235 525 261 560 q 196 442 210 490 q 182 336 182 394 m 183 804 q 217 909 189 867 q 296 951 244 951 q 344 940 322 951 q 385 916 367 929 q 421 892 404 903 q 454 881 438 881 q 506 951 493 881 l 569 951 q 536 847 564 889 q 457 804 508 804 q 409 815 431 804 q 369 840 388 826 q 333 864 350 853 q 299 875 317 875 q 247 804 260 875 l 183 804 l 183 804 z "},"ö":{"ha":753,"x_min":64,"x_max":689,"o":"m 64 336 q 90 487 64 421 q 158 599 115 553 q 258 668 201 644 q 376 692 314 692 q 495 668 439 692 q 594 599 551 644 q 663 487 638 553 q 689 336 689 421 q 663 187 689 253 q 594 76 638 121 q 495 7 551 31 q 376 -17 439 -17 q 258 7 314 -17 q 158 76 201 31 q 90 187 115 121 q 64 336 64 253 m 182 336 q 196 231 182 278 q 235 149 210 183 q 297 97 261 115 q 376 78 333 78 q 456 97 419 78 q 517 149 492 115 q 557 231 543 183 q 571 336 571 278 q 557 442 571 394 q 517 525 543 490 q 456 578 492 560 q 376 597 419 597 q 297 578 333 597 q 235 525 261 560 q 196 442 210 490 q 182 336 182 394 m 257 817 q 208 836 226 817 q 189 885 189 856 q 208 933 189 914 q 257 953 226 953 q 306 933 286 953 q 325 885 325 914 q 306 836 325 856 q 257 817 286 817 m 496 817 q 447 836 467 817 q 428 885 428 856 q 447 933 428 914 q 496 953 467 953 q 545 933 526 953 q 564 885 564 914 q 545 836 564 856 q 496 817 526 817 z "},"ō":{"ha":753,"x_min":64,"x_max":689,"o":"m 64 336 q 90 487 64 421 q 158 599 115 553 q 258 668 201 644 q 376 692 314 692 q 495 668 439 692 q 594 599 551 644 q 663 487 638 553 q 689 336 689 421 q 663 187 689 253 q 594 76 638 121 q 495 7 551 31 q 376 -17 439 -17 q 258 7 314 -17 q 158 76 201 31 q 90 187 115 121 q 64 336 64 253 m 182 336 q 196 231 182 278 q 235 149 210 183 q 297 97 261 115 q 376 78 333 78 q 456 97 419 78 q 517 149 492 115 q 557 231 543 183 q 571 336 571 278 q 557 442 571 394 q 517 525 543 490 q 456 578 492 560 q 376 597 419 597 q 297 578 333 597 q 235 525 261 560 q 196 442 210 490 q 182 336 182 394 m 206 914 l 547 914 l 547 835 l 206 835 l 206 914 z "},"ő":{"ha":753,"x_min":64,"x_max":689,"o":"m 64 336 q 90 487 64 421 q 158 599 115 553 q 258 668 201 644 q 376 692 314 692 q 495 668 439 692 q 594 599 551 644 q 663 487 638 553 q 689 336 689 421 q 663 187 689 253 q 594 76 638 121 q 495 7 551 31 q 376 -17 439 -17 q 258 7 314 -17 q 158 76 201 31 q 90 187 115 121 q 64 336 64 253 m 182 336 q 196 231 182 278 q 235 149 210 183 q 297 97 261 115 q 376 78 333 78 q 456 97 419 78 q 517 149 492 115 q 557 231 543 183 q 571 336 571 278 q 557 442 571 394 q 517 525 543 490 q 456 578 492 560 q 376 597 419 597 q 297 578 333 597 q 235 525 261 560 q 196 442 210 490 q 182 336 182 394 m 338 992 l 439 992 l 317 793 l 240 793 l 338 992 m 543 992 l 643 992 l 521 793 l 444 793 l 543 992 z "},"ǒ":{"ha":753,"x_min":64,"x_max":689,"o":"m 64 336 q 90 487 64 421 q 158 599 115 553 q 258 668 201 644 q 376 692 314 692 q 495 668 439 692 q 594 599 551 644 q 663 487 638 553 q 689 336 689 421 q 663 187 689 253 q 594 76 638 121 q 495 7 551 31 q 376 -17 439 -17 q 258 7 314 -17 q 158 76 201 31 q 90 187 115 121 q 64 336 64 253 m 182 336 q 196 231 182 278 q 235 149 210 183 q 297 97 261 115 q 376 78 333 78 q 456 97 419 78 q 517 149 492 115 q 557 231 543 183 q 571 336 571 278 q 557 442 571 394 q 517 525 543 490 q 456 578 492 560 q 376 597 419 597 q 297 578 333 597 q 235 525 261 560 q 196 442 210 490 q 182 336 182 394 m 197 992 l 281 992 l 374 864 l 379 864 l 472 992 l 556 992 l 424 796 l 329 796 l 197 992 z "},"ọ":{"ha":753,"x_min":64,"x_max":689,"o":"m 64 336 q 90 487 64 421 q 158 599 115 553 q 258 668 201 644 q 376 692 314 692 q 495 668 439 692 q 594 599 551 644 q 663 487 638 553 q 689 336 689 421 q 663 187 689 253 q 594 76 638 121 q 495 7 551 31 q 376 -17 439 -17 q 258 7 314 -17 q 158 76 201 31 q 90 187 115 121 q 64 336 64 253 m 182 336 q 196 231 182 278 q 235 149 210 183 q 297 97 261 115 q 376 78 333 78 q 456 97 419 78 q 517 149 492 115 q 557 231 543 183 q 571 336 571 278 q 557 442 571 394 q 517 525 543 490 q 456 578 492 560 q 376 597 419 597 q 297 578 333 597 q 235 525 261 560 q 196 442 210 490 q 182 336 182 394 m 378 -286 q 324 -265 346 -286 q 303 -211 303 -244 q 324 -158 303 -179 q 378 -137 346 -137 q 431 -158 410 -137 q 453 -211 453 -179 q 431 -265 453 -244 q 378 -286 410 -286 z "},"ỏ":{"ha":753,"x_min":64,"x_max":689,"o":"m 64 336 q 90 487 64 421 q 158 599 115 553 q 258 668 201 644 q 376 692 314 692 q 495 668 439 692 q 594 599 551 644 q 663 487 638 553 q 689 336 689 421 q 663 187 689 253 q 594 76 638 121 q 495 7 551 31 q 376 -17 439 -17 q 258 7 314 -17 q 158 76 201 31 q 90 187 115 121 q 64 336 64 253 m 182 336 q 196 231 182 278 q 235 149 210 183 q 297 97 261 115 q 376 78 333 78 q 456 97 419 78 q 517 149 492 115 q 557 231 543 183 q 571 336 571 278 q 557 442 571 394 q 517 525 543 490 q 456 578 492 560 q 376 597 419 597 q 297 578 333 597 q 235 525 261 560 q 196 442 210 490 q 182 336 182 394 m 325 821 q 381 844 358 831 q 403 885 403 858 q 288 943 403 939 l 300 1010 q 442 978 392 1007 q 492 897 492 950 q 479 845 492 867 q 445 808 467 824 q 396 783 424 792 q 338 768 368 774 l 325 821 z "},"ố":{"ha":753,"x_min":64,"x_max":699,"o":"m 64 336 q 90 487 64 421 q 158 599 115 553 q 258 668 201 644 q 376 692 314 692 q 495 668 439 692 q 594 599 551 644 q 663 487 638 553 q 689 336 689 421 q 663 187 689 253 q 594 76 638 121 q 495 7 551 31 q 376 -17 439 -17 q 258 7 314 -17 q 158 76 201 31 q 90 187 115 121 q 64 336 64 253 m 182 336 q 196 231 182 278 q 235 149 210 183 q 297 97 261 115 q 376 78 333 78 q 456 97 419 78 q 517 149 492 115 q 557 231 543 183 q 571 336 571 278 q 557 442 571 394 q 517 525 543 490 q 456 578 492 560 q 376 597 419 597 q 297 578 333 597 q 235 525 261 560 q 196 442 210 490 q 182 336 182 394 m 329 961 l 424 961 l 538 796 l 460 796 l 379 897 l 374 897 l 293 796 l 215 796 l 329 961 m 601 1047 l 699 1047 l 571 889 l 500 889 l 601 1047 z "},"ồ":{"ha":753,"x_min":64,"x_max":689,"o":"m 64 336 q 90 487 64 421 q 158 599 115 553 q 258 668 201 644 q 376 692 314 692 q 495 668 439 692 q 594 599 551 644 q 663 487 638 553 q 689 336 689 421 q 663 187 689 253 q 594 76 638 121 q 495 7 551 31 q 376 -17 439 -17 q 258 7 314 -17 q 158 76 201 31 q 90 187 115 121 q 64 336 64 253 m 182 336 q 196 231 182 278 q 235 149 210 183 q 297 97 261 115 q 376 78 333 78 q 456 97 419 78 q 517 149 492 115 q 557 231 543 183 q 571 336 571 278 q 557 442 571 394 q 517 525 543 490 q 456 578 492 560 q 376 597 419 597 q 297 578 333 597 q 235 525 261 560 q 196 442 210 490 q 182 336 182 394 m 329 961 l 424 961 l 538 796 l 460 796 l 379 897 l 374 897 l 293 796 l 215 796 l 329 961 m 656 889 l 585 889 l 457 1047 l 553 1047 l 656 889 z "},"ổ":{"ha":753,"x_min":64,"x_max":689,"o":"m 64 336 q 90 487 64 421 q 158 599 115 553 q 258 668 201 644 q 376 692 314 692 q 495 668 439 692 q 594 599 551 644 q 663 487 638 553 q 689 336 689 421 q 663 187 689 253 q 594 76 638 121 q 495 7 551 31 q 376 -17 439 -17 q 258 7 314 -17 q 158 76 201 31 q 90 187 115 121 q 64 336 64 253 m 182 336 q 196 231 182 278 q 235 149 210 183 q 297 97 261 115 q 376 78 333 78 q 456 97 419 78 q 517 149 492 115 q 557 231 543 183 q 571 336 571 278 q 557 442 571 394 q 517 525 543 490 q 456 578 492 560 q 376 597 419 597 q 297 578 333 597 q 235 525 261 560 q 196 442 210 490 q 182 336 182 394 m 329 961 l 424 961 l 538 796 l 460 796 l 379 897 l 374 897 l 293 796 l 215 796 l 329 961 m 525 921 q 567 940 551 928 q 583 975 583 953 q 561 1016 583 1003 q 488 1032 539 1029 l 497 1089 q 623 1061 579 1086 q 667 988 667 1036 q 656 940 667 960 q 626 908 644 921 q 585 886 608 894 q 538 872 563 878 l 525 921 z "},"ỗ":{"ha":753,"x_min":64,"x_max":689,"o":"m 64 336 q 90 487 64 421 q 158 599 115 553 q 258 668 201 644 q 376 692 314 692 q 495 668 439 692 q 594 599 551 644 q 663 487 638 553 q 689 336 689 421 q 663 187 689 253 q 594 76 638 121 q 495 7 551 31 q 376 -17 439 -17 q 258 7 314 -17 q 158 76 201 31 q 90 187 115 121 q 64 336 64 253 m 182 336 q 196 231 182 278 q 235 149 210 183 q 297 97 261 115 q 376 78 333 78 q 456 97 419 78 q 517 149 492 115 q 557 231 543 183 q 571 336 571 278 q 557 442 571 394 q 517 525 543 490 q 456 578 492 560 q 376 597 419 597 q 297 578 333 597 q 235 525 261 560 q 196 442 210 490 q 182 336 182 394 m 324 938 l 429 938 l 549 793 l 468 793 l 379 883 l 374 883 l 285 793 l 204 793 l 324 938 m 194 988 q 228 1078 200 1043 q 304 1114 256 1114 q 349 1105 331 1114 q 384 1084 368 1096 q 415 1063 400 1072 q 446 1054 429 1054 q 500 1114 490 1054 l 558 1114 q 525 1023 553 1058 q 449 988 497 988 q 403 997 422 988 q 369 1017 385 1006 q 338 1038 353 1029 q 307 1047 324 1047 q 253 988 263 1047 l 194 988 z "},"ộ":{"ha":753,"x_min":64,"x_max":689,"o":"m 64 336 q 90 487 64 421 q 158 599 115 553 q 258 668 201 644 q 376 692 314 692 q 495 668 439 692 q 594 599 551 644 q 663 487 638 553 q 689 336 689 421 q 663 187 689 253 q 594 76 638 121 q 495 7 551 31 q 376 -17 439 -17 q 258 7 314 -17 q 158 76 201 31 q 90 187 115 121 q 64 336 64 253 m 182 336 q 196 231 182 278 q 235 149 210 183 q 297 97 261 115 q 376 78 333 78 q 456 97 419 78 q 517 149 492 115 q 557 231 543 183 q 571 336 571 278 q 557 442 571 394 q 517 525 543 490 q 456 578 492 560 q 376 597 419 597 q 297 578 333 597 q 235 525 261 560 q 196 442 210 490 q 182 336 182 394 m 329 992 l 424 992 l 556 796 l 472 796 l 379 922 l 374 922 l 281 796 l 197 796 l 329 992 m 378 -286 q 324 -265 346 -286 q 303 -211 303 -244 q 324 -158 303 -179 q 378 -137 346 -137 q 431 -158 410 -137 q 453 -211 453 -179 q 431 -265 453 -244 q 378 -286 410 -286 z "},"ø":{"ha":753,"x_min":64,"x_max":689,"o":"m 247 129 q 376 75 301 75 q 456 94 419 75 q 520 147 493 113 q 562 228 547 181 q 576 332 576 275 q 543 490 576 425 l 247 129 m 506 544 q 376 600 454 600 q 297 581 333 600 q 233 528 260 563 q 192 447 207 494 q 176 342 176 399 q 208 185 176 249 l 506 544 m 614 576 q 669 472 649 532 q 689 336 689 411 q 663 187 689 253 q 594 76 638 121 q 495 7 551 31 q 376 -17 439 -17 q 183 51 267 -17 l 115 -32 l 64 8 l 139 99 q 84 202 104 143 q 64 336 64 261 q 90 487 64 421 q 158 599 115 553 q 258 668 201 644 q 376 692 314 692 q 479 674 429 692 q 569 622 529 657 l 639 707 l 689 667 l 614 576 z "},"œ":{"ha":1165,"x_min":64,"x_max":1113,"o":"m 181 336 q 194 231 181 278 q 233 149 208 183 q 293 97 258 115 q 369 78 328 78 q 446 97 411 78 q 506 149 481 115 q 544 231 531 183 q 558 336 558 278 q 544 442 558 394 q 506 525 531 490 q 446 578 481 560 q 369 597 411 597 q 293 578 328 597 q 233 525 258 560 q 194 442 208 490 q 181 336 181 394 m 64 336 q 89 487 64 421 q 156 599 114 553 q 253 668 197 644 q 369 692 308 692 q 513 649 447 692 q 614 522 578 606 q 715 647 653 601 q 851 692 776 692 q 963 669 914 692 q 1044 606 1011 647 q 1095 505 1078 564 q 1113 374 1113 446 q 1108 310 1113 335 l 665 310 q 684 214 667 257 q 730 140 701 171 q 797 93 758 110 q 878 76 835 76 q 967 92 926 76 q 1044 132 1007 108 l 1086 53 q 988 4 1042 25 q 864 -17 933 -17 q 719 28 785 -17 q 615 151 654 72 q 367 -17 536 -17 q 251 7 306 -17 q 154 76 196 31 q 88 187 113 121 q 64 336 64 253 m 1013 386 q 969 546 1013 490 q 849 601 926 601 q 726 544 778 601 q 665 386 675 486 l 1013 386 z "},"ơ":{"ha":753,"x_min":64,"x_max":704,"o":"m 376 78 q 456 97 419 78 q 517 149 492 115 q 557 231 543 183 q 571 336 571 278 q 557 442 571 394 q 517 525 543 490 q 456 578 492 560 q 376 597 419 597 q 297 578 333 597 q 235 525 261 560 q 196 442 210 490 q 182 336 182 394 q 196 231 182 278 q 235 149 210 183 q 297 97 261 115 q 376 78 333 78 m 672 851 q 695 810 686 832 q 704 761 704 788 q 665 666 704 699 q 575 618 626 633 q 658 501 626 572 q 689 336 689 431 q 663 187 689 253 q 594 76 638 121 q 495 7 551 31 q 376 -17 439 -17 q 258 7 314 -17 q 158 76 201 31 q 90 187 115 121 q 64 336 64 253 q 90 487 64 421 q 158 599 115 553 q 258 668 201 644 q 376 692 314 692 q 507 663 446 692 q 583 692 556 671 q 610 753 610 714 q 604 783 610 768 q 589 811 599 797 l 672 851 z "},"ớ":{"ha":753,"x_min":64,"x_max":704,"o":"m 376 78 q 456 97 419 78 q 517 149 492 115 q 557 231 543 183 q 571 336 571 278 q 557 442 571 394 q 517 525 543 490 q 456 578 492 560 q 376 597 419 597 q 297 578 333 597 q 235 525 261 560 q 196 442 210 490 q 182 336 182 394 q 196 231 182 278 q 235 149 210 183 q 297 97 261 115 q 376 78 333 78 m 672 851 q 695 810 686 832 q 704 761 704 788 q 665 666 704 699 q 575 618 626 633 q 658 501 626 572 q 689 336 689 431 q 663 187 689 253 q 594 76 638 121 q 495 7 551 31 q 376 -17 439 -17 q 258 7 314 -17 q 158 76 201 31 q 90 187 115 121 q 64 336 64 253 q 90 487 64 421 q 158 599 115 553 q 258 668 201 644 q 376 692 314 692 q 507 663 446 692 q 583 692 556 671 q 610 753 610 714 q 604 783 610 768 q 589 811 599 797 l 672 851 m 374 796 l 286 796 l 411 992 l 531 992 l 374 796 z "},"ờ":{"ha":753,"x_min":64,"x_max":704,"o":"m 376 78 q 456 97 419 78 q 517 149 492 115 q 557 231 543 183 q 571 336 571 278 q 557 442 571 394 q 517 525 543 490 q 456 578 492 560 q 376 597 419 597 q 297 578 333 597 q 235 525 261 560 q 196 442 210 490 q 182 336 182 394 q 196 231 182 278 q 235 149 210 183 q 297 97 261 115 q 376 78 333 78 m 672 851 q 695 810 686 832 q 704 761 704 788 q 665 666 704 699 q 575 618 626 633 q 658 501 626 572 q 689 336 689 431 q 663 187 689 253 q 594 76 638 121 q 495 7 551 31 q 376 -17 439 -17 q 258 7 314 -17 q 158 76 201 31 q 90 187 115 121 q 64 336 64 253 q 90 487 64 421 q 158 599 115 553 q 258 668 201 644 q 376 692 314 692 q 507 663 446 692 q 583 692 556 671 q 610 753 610 714 q 604 783 610 768 q 589 811 599 797 l 672 851 m 222 992 l 342 992 l 467 796 l 379 796 l 222 992 z "},"ở":{"ha":753,"x_min":64,"x_max":704,"o":"m 376 78 q 456 97 419 78 q 517 149 492 115 q 557 231 543 183 q 571 336 571 278 q 557 442 571 394 q 517 525 543 490 q 456 578 492 560 q 376 597 419 597 q 297 578 333 597 q 235 525 261 560 q 196 442 210 490 q 182 336 182 394 q 196 231 182 278 q 235 149 210 183 q 297 97 261 115 q 376 78 333 78 m 672 851 q 695 810 686 832 q 704 761 704 788 q 665 666 704 699 q 575 618 626 633 q 658 501 626 572 q 689 336 689 431 q 663 187 689 253 q 594 76 638 121 q 495 7 551 31 q 376 -17 439 -17 q 258 7 314 -17 q 158 76 201 31 q 90 187 115 121 q 64 336 64 253 q 90 487 64 421 q 158 599 115 553 q 258 668 201 644 q 376 692 314 692 q 507 663 446 692 q 583 692 556 671 q 610 753 610 714 q 604 783 610 768 q 589 811 599 797 l 672 851 m 325 821 q 381 844 358 831 q 403 885 403 858 q 288 943 403 939 l 300 1010 q 442 978 392 1007 q 492 897 492 950 q 479 845 492 867 q 445 808 467 824 q 396 783 424 792 q 338 768 368 774 l 325 821 z "},"ỡ":{"ha":753,"x_min":64,"x_max":704,"o":"m 376 78 q 456 97 419 78 q 517 149 492 115 q 557 231 543 183 q 571 336 571 278 q 557 442 571 394 q 517 525 543 490 q 456 578 492 560 q 376 597 419 597 q 297 578 333 597 q 235 525 261 560 q 196 442 210 490 q 182 336 182 394 q 196 231 182 278 q 235 149 210 183 q 297 97 261 115 q 376 78 333 78 m 672 851 q 695 810 686 832 q 704 761 704 788 q 665 666 704 699 q 575 618 626 633 q 658 501 626 572 q 689 336 689 431 q 663 187 689 253 q 594 76 638 121 q 495 7 551 31 q 376 -17 439 -17 q 258 7 314 -17 q 158 76 201 31 q 90 187 115 121 q 64 336 64 253 q 90 487 64 421 q 158 599 115 553 q 258 668 201 644 q 376 692 314 692 q 507 663 446 692 q 583 692 556 671 q 610 753 610 714 q 604 783 610 768 q 589 811 599 797 l 672 851 m 183 804 q 217 909 189 867 q 296 951 244 951 q 344 940 322 951 q 385 916 367 929 q 421 892 404 903 q 454 881 438 881 q 506 951 493 881 l 569 951 q 536 847 564 889 q 457 804 508 804 q 409 815 431 804 q 369 840 388 826 q 333 864 350 853 q 299 875 317 875 q 247 804 260 875 l 183 804 l 183 804 z "},"ợ":{"ha":753,"x_min":64,"x_max":704,"o":"m 376 78 q 456 97 419 78 q 517 149 492 115 q 557 231 543 183 q 571 336 571 278 q 557 442 571 394 q 517 525 543 490 q 456 578 492 560 q 376 597 419 597 q 297 578 333 597 q 235 525 261 560 q 196 442 210 490 q 182 336 182 394 q 196 231 182 278 q 235 149 210 183 q 297 97 261 115 q 376 78 333 78 m 672 851 q 695 810 686 832 q 704 761 704 788 q 665 666 704 699 q 575 618 626 633 q 658 501 626 572 q 689 336 689 431 q 663 187 689 253 q 594 76 638 121 q 495 7 551 31 q 376 -17 439 -17 q 258 7 314 -17 q 158 76 201 31 q 90 187 115 121 q 64 336 64 253 q 90 487 64 421 q 158 599 115 553 q 258 668 201 644 q 376 692 314 692 q 507 663 446 692 q 583 692 556 671 q 610 753 610 714 q 604 783 610 768 q 589 811 599 797 l 672 851 m 378 -286 q 324 -265 346 -286 q 303 -211 303 -244 q 324 -158 303 -179 q 378 -137 346 -137 q 431 -158 410 -137 q 453 -211 453 -179 q 431 -265 453 -244 q 378 -286 410 -286 z "},"ǫ":{"ha":753,"x_min":64,"x_max":689,"o":"m 285 -168 q 292 -119 285 -142 q 312 -76 300 -96 q 337 -40 324 -56 q 363 -15 350 -25 q 247 13 301 -12 q 152 83 193 39 q 88 192 111 128 q 64 336 64 256 q 90 487 64 421 q 158 599 115 553 q 258 668 201 644 q 376 692 314 692 q 495 668 439 692 q 594 599 551 644 q 663 487 638 553 q 689 336 689 421 q 673 212 689 265 q 628 117 657 158 q 558 47 599 76 q 468 -6 518 17 q 395 -67 421 -28 q 369 -146 369 -106 q 389 -194 369 -178 q 433 -210 408 -210 q 463 -205 450 -210 q 490 -192 476 -200 l 519 -249 q 469 -275 500 -264 q 410 -286 438 -286 q 321 -256 357 -286 q 285 -168 285 -226 m 182 336 q 196 231 182 278 q 235 149 210 183 q 297 97 261 115 q 376 78 333 78 q 456 97 419 78 q 517 149 492 115 q 557 231 543 183 q 571 336 571 278 q 557 442 571 394 q 517 525 543 490 q 456 578 492 560 q 376 597 419 597 q 297 578 333 597 q 235 525 261 560 q 196 442 210 490 q 182 336 182 394 z "},"ŕ":{"ha":482,"x_min":114,"x_max":486,"o":"m 114 675 l 208 675 l 218 553 l 222 553 q 306 654 257 617 q 414 692 356 692 q 486 678 454 692 l 464 578 q 433 586 447 583 q 399 589 419 589 q 309 554 356 589 q 228 433 263 519 l 228 0 l 114 0 l 114 675 m 299 796 l 211 796 l 336 992 l 456 992 l 299 796 z "},"ŗ":{"ha":482,"x_min":50,"x_max":486,"o":"m 114 675 l 208 675 l 218 553 l 222 553 q 306 654 257 617 q 414 692 356 692 q 486 678 454 692 l 464 578 q 433 586 447 583 q 399 589 419 589 q 309 554 356 589 q 228 433 263 519 l 228 0 l 114 0 l 114 675 m 128 -67 q 231 -102 199 -78 q 263 -174 263 -126 q 246 -226 263 -204 q 201 -264 229 -249 q 137 -288 174 -279 q 61 -300 100 -297 l 50 -244 q 140 -223 106 -237 q 174 -181 174 -208 q 153 -140 174 -153 q 103 -119 132 -126 l 128 -67 l 128 -67 z "},"ř":{"ha":482,"x_min":114,"x_max":486,"o":"m 114 675 l 208 675 l 218 553 l 222 553 q 306 654 257 617 q 414 692 356 692 q 486 678 454 692 l 464 578 q 433 586 447 583 q 399 589 419 589 q 309 554 356 589 q 228 433 263 519 l 228 0 l 114 0 l 114 675 m 122 992 l 206 992 l 299 864 l 304 864 l 397 992 l 481 992 l 349 796 l 254 796 l 122 992 z "},"ṛ":{"ha":482,"x_min":93,"x_max":486,"o":"m 114 675 l 208 675 l 218 553 l 222 553 q 306 654 257 617 q 414 692 356 692 q 486 678 454 692 l 464 578 q 433 586 447 583 q 399 589 419 589 q 309 554 356 589 q 228 433 263 519 l 228 0 l 114 0 l 114 675 m 168 -286 q 115 -265 136 -286 q 93 -211 93 -244 q 115 -158 93 -179 q 168 -137 136 -137 q 222 -158 200 -137 q 243 -211 243 -179 q 222 -265 243 -244 q 168 -286 200 -286 z "},"ṝ":{"ha":482,"x_min":93,"x_max":486,"o":"m 114 675 l 208 675 l 218 553 l 222 553 q 306 654 257 617 q 414 692 356 692 q 486 678 454 692 l 464 578 q 433 586 447 583 q 399 589 419 589 q 309 554 356 589 q 228 433 263 519 l 228 0 l 114 0 l 114 675 m 131 914 l 472 914 l 472 835 l 131 835 l 131 914 m 168 -286 q 115 -265 136 -286 q 93 -211 93 -244 q 115 -158 93 -179 q 168 -137 136 -137 q 222 -158 200 -137 q 243 -211 243 -179 q 222 -265 243 -244 q 168 -286 200 -286 z "},"ṟ":{"ha":482,"x_min":-4,"x_max":486,"o":"m 114 675 l 208 675 l 218 553 l 222 553 q 306 654 257 617 q 414 692 356 692 q 486 678 454 692 l 464 578 q 433 586 447 583 q 399 589 419 589 q 309 554 356 589 q 228 433 263 519 l 228 0 l 114 0 l 114 675 m 339 -237 l -4 -237 l -4 -157 l 339 -157 l 339 -237 z "},"ś":{"ha":582,"x_min":39,"x_max":538,"o":"m 96 153 q 187 94 140 117 q 294 72 233 72 q 394 103 361 72 q 428 178 428 133 q 414 224 428 204 q 378 258 400 243 q 329 283 357 272 q 274 306 301 294 q 201 334 238 318 q 137 373 165 350 q 90 426 108 396 q 72 500 72 457 q 88 576 72 540 q 134 637 104 611 q 207 677 164 663 q 304 692 250 692 q 422 669 368 692 q 514 615 475 647 l 460 543 q 388 586 425 569 q 306 603 350 603 q 212 574 242 603 q 182 506 182 544 q 194 465 182 482 q 228 434 207 447 q 276 410 249 421 q 332 389 303 400 q 405 360 368 375 q 471 322 442 344 q 519 265 500 299 q 538 185 538 232 q 522 107 538 143 q 474 43 506 71 q 397 -1 443 15 q 290 -17 350 -17 q 153 10 218 -17 q 39 76 88 36 l 96 153 m 301 796 l 214 796 l 339 992 l 458 992 l 301 796 z "},"ŝ":{"ha":582,"x_min":39,"x_max":538,"o":"m 96 153 q 187 94 140 117 q 294 72 233 72 q 394 103 361 72 q 428 178 428 133 q 414 224 428 204 q 378 258 400 243 q 329 283 357 272 q 274 306 301 294 q 201 334 238 318 q 137 373 165 350 q 90 426 108 396 q 72 500 72 457 q 88 576 72 540 q 134 637 104 611 q 207 677 164 663 q 304 692 250 692 q 422 669 368 692 q 514 615 475 647 l 460 543 q 388 586 425 569 q 306 603 350 603 q 212 574 242 603 q 182 506 182 544 q 194 465 182 482 q 228 434 207 447 q 276 410 249 421 q 332 389 303 400 q 405 360 368 375 q 471 322 442 344 q 519 265 500 299 q 538 185 538 232 q 522 107 538 143 q 474 43 506 71 q 397 -1 443 15 q 290 -17 350 -17 q 153 10 218 -17 q 39 76 88 36 l 96 153 m 257 992 l 351 992 l 483 796 l 400 796 l 307 922 l 301 922 l 208 796 l 125 796 l 257 992 z "},"š":{"ha":582,"x_min":39,"x_max":538,"o":"m 96 153 q 187 94 140 117 q 294 72 233 72 q 394 103 361 72 q 428 178 428 133 q 414 224 428 204 q 378 258 400 243 q 329 283 357 272 q 274 306 301 294 q 201 334 238 318 q 137 373 165 350 q 90 426 108 396 q 72 500 72 457 q 88 576 72 540 q 134 637 104 611 q 207 677 164 663 q 304 692 250 692 q 422 669 368 692 q 514 615 475 647 l 460 543 q 388 586 425 569 q 306 603 350 603 q 212 574 242 603 q 182 506 182 544 q 194 465 182 482 q 228 434 207 447 q 276 410 249 421 q 332 389 303 400 q 405 360 368 375 q 471 322 442 344 q 519 265 500 299 q 538 185 538 232 q 522 107 538 143 q 474 43 506 71 q 397 -1 443 15 q 290 -17 350 -17 q 153 10 218 -17 q 39 76 88 36 l 96 153 m 125 992 l 208 992 l 301 864 l 307 864 l 400 992 l 483 992 l 351 796 l 257 796 l 125 992 z "},"ş":{"ha":582,"x_min":39,"x_max":538,"o":"m 96 153 q 187 94 140 117 q 294 72 233 72 q 394 103 361 72 q 428 178 428 133 q 414 224 428 204 q 378 258 400 243 q 329 283 357 272 q 274 306 301 294 q 201 334 238 318 q 137 373 165 350 q 90 426 108 396 q 72 500 72 457 q 88 576 72 540 q 134 637 104 611 q 207 677 164 663 q 304 692 250 692 q 422 669 368 692 q 514 615 475 647 l 460 543 q 388 586 425 569 q 306 603 350 603 q 212 574 242 603 q 182 506 182 544 q 194 465 182 482 q 228 434 207 447 q 276 410 249 421 q 332 389 303 400 q 405 360 368 375 q 471 322 442 344 q 519 265 500 299 q 538 185 538 232 q 522 107 538 143 q 474 43 506 71 q 397 -1 443 15 q 290 -17 350 -17 q 153 10 218 -17 q 39 76 88 36 l 96 153 m 282 4 l 356 4 l 321 -69 q 378 -103 354 -81 q 403 -168 403 -125 q 386 -221 403 -199 q 342 -258 369 -243 q 277 -283 314 -274 q 201 -296 240 -292 l 190 -239 q 280 -216 246 -232 q 314 -172 314 -200 q 291 -130 314 -144 q 226 -104 268 -115 l 282 4 z "},"ș":{"ha":582,"x_min":39,"x_max":538,"o":"m 96 153 q 187 94 140 117 q 294 72 233 72 q 394 103 361 72 q 428 178 428 133 q 414 224 428 204 q 378 258 400 243 q 329 283 357 272 q 274 306 301 294 q 201 334 238 318 q 137 373 165 350 q 90 426 108 396 q 72 500 72 457 q 88 576 72 540 q 134 637 104 611 q 207 677 164 663 q 304 692 250 692 q 422 669 368 692 q 514 615 475 647 l 460 543 q 388 586 425 569 q 306 603 350 603 q 212 574 242 603 q 182 506 182 544 q 194 465 182 482 q 228 434 207 447 q 276 410 249 421 q 332 389 303 400 q 405 360 368 375 q 471 322 442 344 q 519 265 500 299 q 538 185 538 232 q 522 107 538 143 q 474 43 506 71 q 397 -1 443 15 q 290 -17 350 -17 q 153 10 218 -17 q 39 76 88 36 l 96 153 m 268 -67 q 371 -102 339 -78 q 403 -174 403 -126 q 386 -226 403 -204 q 342 -264 369 -249 q 277 -288 314 -279 q 201 -300 240 -297 l 190 -244 q 280 -223 246 -237 q 314 -181 314 -208 q 293 -140 314 -153 q 243 -119 272 -126 l 268 -67 l 268 -67 z "},"ṡ":{"ha":582,"x_min":39,"x_max":538,"o":"m 96 153 q 187 94 140 117 q 294 72 233 72 q 394 103 361 72 q 428 178 428 133 q 414 224 428 204 q 378 258 400 243 q 329 283 357 272 q 274 306 301 294 q 201 334 238 318 q 137 373 165 350 q 90 426 108 396 q 72 500 72 457 q 88 576 72 540 q 134 637 104 611 q 207 677 164 663 q 304 692 250 692 q 422 669 368 692 q 514 615 475 647 l 460 543 q 388 586 425 569 q 306 603 350 603 q 212 574 242 603 q 182 506 182 544 q 194 465 182 482 q 228 434 207 447 q 276 410 249 421 q 332 389 303 400 q 405 360 368 375 q 471 322 442 344 q 519 265 500 299 q 538 185 538 232 q 522 107 538 143 q 474 43 506 71 q 397 -1 443 15 q 290 -17 350 -17 q 153 10 218 -17 q 39 76 88 36 l 96 153 m 304 814 q 251 835 272 814 q 229 889 229 856 q 251 942 229 921 q 304 964 272 964 q 358 942 336 964 q 379 889 379 921 q 358 835 379 856 q 304 814 336 814 z "}}}
